M48
; DRILL file KiCad 10.0.6 date 2026-09-21T17:18:53
; FORMAT={-:-/ absolute / metric / decimal}
; #@! TF.CreationDate,2026-09-21T17:18:53+08:00
; #@! TF.GenerationSoftware,Kicad,Pcbnew,10.0.6
; #@! TF.FileFunction,Plated,1,2,PTH
FMAT,2
METRIC
; #@! TA.AperFunction,Plated,PTH,ViaDrill
T1C0.300
%
G90
G05
T1
X90.7Y-53.723
X90.7Y-57.187
X90.7Y-60.651
X90.7Y-71.043
X90.7Y-74.507
X90.7Y-77.971
X90.7Y-81.435
X90.7Y-95.292
X90.7Y-98.756
X90.7Y-102.22
X90.7Y-105.684
X90.7Y-109.148
X90.7Y-119.54
X90.7Y-123.005
X90.7Y-126.469
X90.7Y-129.933
X90.7Y-143.789
X90.7Y-147.253
X91.7Y-55.455
X91.7Y-58.919
X91.7Y-72.775
X91.7Y-76.239
X91.7Y-79.703
X91.7Y-83.167
X91.7Y-93.56
X91.7Y-97.024
X91.7Y-100.488
X91.7Y-103.952
X91.7Y-107.416
X91.7Y-121.273
X91.7Y-124.737
X91.7Y-128.201
X91.7Y-131.665
X91.7Y-142.057
X91.7Y-145.521
X91.7Y-148.985
X92.7Y-53.723
X92.7Y-57.187
X92.7Y-60.651
X92.7Y-71.043
X92.7Y-74.507
X92.7Y-77.971
X92.7Y-81.435
X92.7Y-95.292
X92.7Y-98.756
X92.7Y-102.22
X92.7Y-105.684
X92.7Y-109.148
X92.7Y-119.54
X92.7Y-123.005
X92.7Y-126.469
X92.7Y-129.933
X92.7Y-143.789
X92.7Y-147.253
X93.7Y-55.455
X93.7Y-58.919
X93.7Y-69.311
X93.7Y-72.775
X93.7Y-76.239
X93.7Y-79.703
X93.7Y-83.167
X93.7Y-93.56
X93.7Y-97.024
X93.7Y-100.488
X93.7Y-103.952
X93.7Y-107.416
X93.7Y-121.273
X93.7Y-124.737
X93.7Y-128.201
X93.7Y-131.665
X93.7Y-135.129
X93.7Y-138.593
X93.7Y-142.057
X93.7Y-145.521
X93.7Y-148.985
X94.7Y-53.723
X94.7Y-57.187
X94.7Y-60.651
X94.7Y-67.579
X94.7Y-71.043
X94.7Y-74.507
X94.7Y-77.971
X94.7Y-81.435
X94.7Y-84.899
X94.7Y-91.828
X94.7Y-95.292
X94.7Y-98.756
X94.7Y-102.22
X94.7Y-105.684
X94.7Y-109.148
X94.7Y-112.612
X94.7Y-116.076
X94.7Y-119.54
X94.7Y-123.005
X94.7Y-126.469
X94.7Y-129.933
X94.7Y-133.397
X94.7Y-140.325
X94.7Y-143.789
X94.7Y-147.253
X95.7Y-55.455
X95.7Y-58.919
X95.7Y-62.383
X95.7Y-69.311
X95.7Y-72.775
X95.7Y-76.239
X95.7Y-79.703
X95.7Y-83.167
X95.7Y-90.096
X95.7Y-93.56
X95.7Y-97.024
X95.7Y-100.488
X95.7Y-103.952
X95.7Y-107.416
X95.7Y-110.88
X95.7Y-117.808
X95.7Y-121.273
X95.7Y-124.737
X95.7Y-128.201
X95.7Y-131.665
X95.7Y-135.129
X95.7Y-138.593
X95.7Y-142.057
X95.7Y-145.521
X95.7Y-148.985
X96.7Y-53.723
X96.7Y-57.187
X96.7Y-60.651
X96.7Y-67.579
X96.7Y-71.043
X96.7Y-74.507
X96.7Y-77.971
X96.7Y-81.435
X96.7Y-95.292
X96.7Y-98.756
X96.7Y-102.22
X96.7Y-105.684
X96.7Y-109.148
X96.7Y-112.612
X96.7Y-119.54
X96.7Y-123.005
X96.7Y-126.469
X96.7Y-129.933
X96.7Y-133.397
X96.7Y-140.325
X96.7Y-143.789
X96.7Y-147.253
X97.7Y-55.455
X97.7Y-58.919
X97.7Y-69.311
X97.7Y-72.775
X97.7Y-76.239
X97.7Y-79.703
X97.7Y-97.024
X97.7Y-100.488
X97.7Y-103.952
X97.7Y-107.416
X97.7Y-121.273
X97.7Y-124.737
X97.7Y-128.201
X97.7Y-145.521
X97.7Y-148.985
X98.7Y-53.723
X98.7Y-57.187
X98.7Y-60.651
X98.7Y-71.043
X98.7Y-74.507
X98.7Y-77.971
X98.7Y-95.292
X98.7Y-98.756
X98.7Y-102.22
X98.7Y-105.684
X98.7Y-109.148
X98.7Y-119.54
X98.7Y-123.005
X98.7Y-126.469
X98.7Y-129.933
X98.7Y-143.789
X98.7Y-147.253
X99.7Y-58.919
X99.7Y-69.311
X99.7Y-72.775
X99.7Y-76.239
X99.7Y-79.703
X99.7Y-83.167
X99.7Y-90.096
X99.7Y-93.56
X99.7Y-97.024
X99.7Y-100.488
X99.7Y-103.952
X99.7Y-107.416
X99.7Y-110.88
X99.7Y-117.808
X99.7Y-121.273
X99.7Y-124.737
X99.7Y-128.201
X99.7Y-145.521
X100.7Y-57.187
X100.7Y-60.651
X100.7Y-67.579
X100.7Y-71.043
X100.7Y-74.507
X100.7Y-77.971
X100.7Y-81.435
X100.7Y-84.899
X100.7Y-91.828
X100.7Y-95.292
X100.7Y-98.756
X100.7Y-102.22
X100.7Y-105.684
X100.7Y-109.148
X100.7Y-112.612
X100.7Y-116.076
X100.7Y-119.54
X100.7Y-123.005
X100.7Y-126.469
X100.7Y-129.933
X100.7Y-133.397
X100.7Y-140.325
X100.7Y-143.789
X101.7Y-58.919
X101.7Y-62.383
X101.7Y-69.311
X101.7Y-72.775
X101.7Y-76.239
X101.7Y-79.703
X101.7Y-83.167
X101.7Y-90.096
X101.7Y-93.56
X101.7Y-97.024
X101.7Y-100.488
X101.7Y-103.952
X101.7Y-107.416
X101.7Y-110.88
X101.7Y-117.808
X101.7Y-121.273
X101.7Y-124.737
X101.7Y-128.201
X101.7Y-131.665
X101.7Y-135.129
X101.7Y-138.593
X101.7Y-142.057
X101.7Y-145.521
X102.7Y-60.651
X102.7Y-67.579
X102.7Y-71.043
X102.7Y-74.507
X102.7Y-77.971
X102.7Y-81.435
X102.7Y-84.899
X102.7Y-91.828
X102.7Y-95.292
X102.7Y-98.756
X102.7Y-102.22
X102.7Y-105.684
X102.7Y-109.148
X103.7Y-62.383
X103.7Y-69.311
X103.7Y-72.775
X103.7Y-76.239
X103.7Y-79.703
X103.7Y-83.167
X103.7Y-90.096
X103.7Y-93.56
X103.7Y-97.024
X103.7Y-100.488
X103.7Y-103.952
X104.7Y-67.579
X104.7Y-71.043
X104.7Y-74.507
X104.7Y-77.971
X104.7Y-81.435
X104.7Y-84.899
X104.7Y-91.828
X104.7Y-95.292
X104.7Y-98.756
X104.7Y-102.22
X105.7Y-69.311
X105.7Y-72.775
X105.7Y-76.239
X105.7Y-79.703
X105.7Y-83.167
X105.7Y-93.56
X105.7Y-97.024
X105.7Y-117.808
X105.7Y-121.273
X105.7Y-124.737
X105.7Y-128.201
X105.7Y-131.665
X105.7Y-135.129
X105.7Y-138.593
X105.7Y-142.057
X105.7Y-145.521
X106.7Y-57.187
X106.7Y-67.579
X106.7Y-71.043
X106.7Y-74.507
X106.7Y-77.971
X106.7Y-81.435
X106.7Y-91.828
X106.7Y-95.292
X106.7Y-105.184
X106.7Y-112.612
X106.7Y-116.076
X106.7Y-119.54
X106.7Y-123.005
X106.7Y-126.469
X106.7Y-129.933
X106.7Y-133.397
X106.7Y-143.789
X107.2Y-103.952
X107.7Y-58.919
X107.7Y-69.311
X107.7Y-72.775
X107.7Y-76.239
X107.7Y-79.703
X107.7Y-83.167
X107.7Y-93.56
X107.7Y-110.88
X107.7Y-117.808
X107.7Y-121.273
X107.7Y-124.737
X107.7Y-128.201
X107.7Y-131.665
X107.7Y-142.057
X107.7Y-145.521
X108.2Y-107.416
X108.7Y-53.723
X108.7Y-57.187
X108.7Y-60.651
X108.7Y-71.043
X108.7Y-74.507
X108.7Y-77.971
X108.7Y-81.435
X108.7Y-84.899
X108.7Y-91.828
X108.7Y-109.148
X108.7Y-112.612
X108.7Y-116.076
X108.7Y-119.54
X108.7Y-123.005
X108.7Y-126.469
X108.7Y-129.933
X108.7Y-143.789
X108.7Y-147.253
X109.2Y-105.684
X109.7Y-55.455
X109.7Y-58.919
X109.7Y-72.775
X109.7Y-76.239
X109.7Y-79.703
X109.7Y-83.167
X109.7Y-90.096
X109.7Y-103.952
X109.7Y-107.416
X109.7Y-121.273
X109.7Y-124.737
X109.7Y-128.201
X109.7Y-131.665
X109.7Y-135.129
X109.7Y-138.593
X109.7Y-142.057
X109.7Y-145.521
X109.7Y-148.985
X110.7Y-53.723
X110.7Y-57.187
X110.7Y-60.651
X110.7Y-74.507
X110.7Y-77.971
X110.7Y-81.435
X110.7Y-84.899
X110.7Y-91.828
X110.7Y-102.22
X110.7Y-105.684
X110.7Y-109.148
X110.7Y-119.54
X110.7Y-123.005
X110.7Y-126.469
X110.7Y-129.933
X110.7Y-133.397
X110.7Y-140.325
X110.7Y-143.789
X110.7Y-147.253
X111.7Y-55.455
X111.7Y-58.919
X111.7Y-62.383
X111.7Y-72.775
X111.7Y-76.239
X111.7Y-79.703
X111.7Y-83.167
X111.7Y-90.096
X111.7Y-100.488
X111.7Y-103.952
X111.7Y-107.416
X111.7Y-117.808
X111.7Y-121.273
X111.7Y-124.737
X111.7Y-128.201
X111.7Y-131.665
X111.7Y-135.129
X111.7Y-138.593
X111.7Y-142.057
X111.7Y-145.521
X111.7Y-148.985
X112.7Y-53.723
X112.7Y-57.187
X112.7Y-60.651
X112.7Y-67.579
X112.7Y-74.507
X112.7Y-77.971
X112.7Y-81.435
X112.7Y-84.899
X112.7Y-98.756
X112.7Y-102.22
X112.7Y-105.684
X112.7Y-109.148
X112.7Y-112.612
X112.7Y-116.076
X112.7Y-119.54
X112.7Y-123.005
X112.7Y-126.469
X112.7Y-129.933
X112.7Y-133.397
X112.7Y-140.325
X112.7Y-143.789
X112.7Y-147.253
X113.2Y-95.292
X113.7Y-55.455
X113.7Y-58.919
X113.7Y-62.383
X113.7Y-76.239
X113.7Y-79.703
X113.7Y-83.167
X113.7Y-97.024
X113.7Y-100.488
X113.7Y-103.952
X113.7Y-107.416
X113.7Y-110.88
X113.7Y-117.808
X113.7Y-121.273
X113.7Y-124.737
X113.7Y-128.201
X113.7Y-131.665
X113.7Y-135.129
X113.7Y-138.593
X113.7Y-142.057
X113.7Y-145.521
X113.7Y-148.985
X114.2Y-69.311
X114.2Y-93.56
X114.7Y-53.723
X114.7Y-57.187
X114.7Y-60.651
X114.7Y-67.579
X114.7Y-74.507
X114.7Y-77.971
X114.7Y-81.435
X114.7Y-95.292
X114.7Y-98.756
X114.7Y-102.22
X114.7Y-105.684
X114.7Y-109.148
X114.7Y-112.612
X114.7Y-116.076
X114.7Y-119.54
X114.7Y-123.005
X114.7Y-126.469
X114.7Y-129.933
X114.7Y-133.397
X114.7Y-140.325
X114.7Y-143.789
X114.7Y-147.253
X115.7Y-55.455
X115.7Y-58.919
X115.7Y-62.383
X115.7Y-69.311
X115.7Y-76.239
X115.7Y-79.703
X115.7Y-83.167
X115.7Y-93.56
X115.7Y-97.024
X115.7Y-100.488
X115.7Y-103.952
X115.7Y-107.416
X115.7Y-110.88
X115.7Y-117.808
X115.7Y-121.273
X115.7Y-124.737
X115.7Y-128.201
X115.7Y-131.665
X115.7Y-135.129
X115.7Y-138.593
X115.7Y-142.057
X115.7Y-145.521
X115.7Y-148.985
X116.7Y-53.723
X116.7Y-57.187
X116.7Y-60.651
X116.7Y-67.579
X116.7Y-77.971
X116.7Y-81.435
X116.7Y-91.828
X116.7Y-95.292
X116.7Y-98.756
X116.7Y-102.22
X116.7Y-105.684
X116.7Y-109.148
X116.7Y-112.612
X116.7Y-116.076
X116.7Y-119.54
X116.7Y-123.005
X116.7Y-126.469
X116.7Y-129.933
X116.7Y-143.789
X116.7Y-147.253
X117.7Y-55.455
X117.7Y-58.919
X117.7Y-62.383
X117.7Y-69.311
X117.7Y-76.239
X117.7Y-79.703
X117.7Y-83.167
X117.7Y-93.56
X117.7Y-97.024
X117.7Y-100.488
X117.7Y-103.952
X117.7Y-107.416
X117.7Y-110.88
X117.7Y-117.808
X117.7Y-121.273
X117.7Y-124.737
X117.7Y-128.201
X117.7Y-131.665
X117.7Y-142.057
X117.7Y-145.521
X117.7Y-148.985
X118.2Y-90.096
X118.7Y-53.723
X118.7Y-57.187
X118.7Y-60.651
X118.7Y-67.579
X118.7Y-71.043
X118.7Y-77.971
X118.7Y-81.435
X118.7Y-84.899
X118.7Y-91.828
X118.7Y-95.292
X118.7Y-98.756
X118.7Y-102.22
X118.7Y-105.684
X118.7Y-109.148
X118.7Y-112.612
X118.7Y-116.076
X118.7Y-119.54
X118.7Y-123.005
X118.7Y-126.469
X118.7Y-129.933
X118.7Y-133.397
X118.7Y-140.325
X118.7Y-143.789
X118.7Y-147.253
X119.7Y-55.455
X119.7Y-58.919
X119.7Y-62.383
X119.7Y-69.311
X119.7Y-76.239
X119.7Y-79.703
X119.7Y-83.167
X119.7Y-90.096
X119.7Y-93.56
X119.7Y-97.024
X119.7Y-100.488
X119.7Y-103.952
X119.7Y-107.416
X119.7Y-110.88
X119.7Y-117.808
X119.7Y-121.273
X119.7Y-124.737
X119.7Y-128.201
X119.7Y-131.665
X119.7Y-135.129
X119.7Y-138.593
X119.7Y-142.057
X119.7Y-145.521
X119.7Y-148.985
X120.7Y-53.723
X120.7Y-57.187
X120.7Y-60.651
X120.7Y-71.043
X120.7Y-77.971
X120.7Y-81.435
X120.7Y-91.828
X120.7Y-95.292
X120.7Y-98.756
X120.7Y-102.22
X120.7Y-105.684
X120.7Y-109.148
X120.7Y-112.612
X120.7Y-116.076
X120.7Y-119.54
X120.7Y-123.005
X120.7Y-126.469
X120.7Y-129.933
X120.7Y-133.397
X120.7Y-140.325
X120.7Y-143.789
X120.7Y-147.253
X121.7Y-55.455
X121.7Y-58.919
X121.7Y-69.311
X121.7Y-72.275
X121.7Y-76.239
X121.7Y-79.703
X121.7Y-83.167
X121.7Y-90.096
X121.7Y-93.56
X121.7Y-97.024
X121.7Y-100.488
X121.7Y-103.952
X121.7Y-107.416
X121.7Y-110.88
X121.7Y-117.808
X121.7Y-121.273
X121.7Y-124.737
X121.7Y-128.201
X121.7Y-131.665
X121.7Y-135.129
X121.7Y-138.593
X121.7Y-142.057
X121.7Y-145.521
X121.7Y-148.985
X122.7Y-53.723
X122.7Y-57.187
X122.7Y-60.651
X122.7Y-71.043
X122.7Y-77.971
X122.7Y-81.435
X122.7Y-91.828
X122.7Y-95.292
X122.7Y-98.756
X122.7Y-102.22
X122.7Y-105.684
X122.7Y-109.148
X122.7Y-119.54
X122.7Y-123.005
X122.7Y-126.469
X122.7Y-129.933
X122.7Y-133.397
X122.7Y-140.325
X122.7Y-143.789
X122.7Y-147.253
X123.7Y-55.455
X123.7Y-58.919
X123.7Y-62.383
X123.7Y-69.311
X123.7Y-72.775
X123.7Y-79.703
X123.7Y-90.096
X123.7Y-93.56
X123.7Y-97.024
X123.7Y-100.488
X123.7Y-103.952
X123.7Y-107.416
X123.7Y-121.273
X123.7Y-124.737
X123.7Y-128.201
X123.7Y-131.665
X123.7Y-135.129
X123.7Y-138.593
X123.7Y-142.057
X123.7Y-145.521
X123.7Y-148.985
X124.7Y-53.723
X124.7Y-57.187
X124.7Y-60.651
X124.7Y-67.579
X124.7Y-71.043
X124.7Y-77.971
X124.7Y-81.435
X124.7Y-84.899
X124.7Y-91.828
X124.7Y-95.292
X124.7Y-98.756
X124.7Y-102.22
X124.7Y-105.684
X124.7Y-109.148
X124.7Y-112.612
X124.7Y-116.076
X124.7Y-119.54
X124.7Y-123.005
X124.7Y-126.469
X124.7Y-129.933
X124.7Y-133.397
X124.7Y-140.325
X124.7Y-143.789
X124.7Y-147.253
X125.7Y-55.455
X125.7Y-58.919
X125.7Y-62.383
X125.7Y-69.311
X125.7Y-72.775
X125.7Y-79.703
X125.7Y-90.096
X125.7Y-93.56
X125.7Y-97.024
X125.7Y-100.488
X125.7Y-103.952
X125.7Y-107.416
X125.7Y-110.88
X125.7Y-117.808
X125.7Y-121.273
X125.7Y-124.737
X125.7Y-128.201
X125.7Y-131.665
X125.7Y-135.129
X125.7Y-138.593
X125.7Y-142.057
X125.7Y-145.521
X125.7Y-148.985
X126.7Y-53.723
X126.7Y-57.187
X126.7Y-60.651
X126.7Y-67.579
X126.7Y-71.043
X126.7Y-77.971
X126.7Y-91.828
X126.7Y-95.292
X126.7Y-98.756
X126.7Y-102.22
X126.7Y-105.684
X126.7Y-109.148
X126.7Y-112.612
X126.7Y-116.076
X126.7Y-119.54
X126.7Y-123.005
X126.7Y-126.469
X126.7Y-129.933
X126.7Y-133.397
X126.7Y-140.325
X126.7Y-143.789
X126.7Y-147.253
X127.7Y-55.455
X127.7Y-58.919
X127.7Y-62.383
X127.7Y-69.311
X127.7Y-72.775
X127.7Y-79.703
X127.7Y-90.096
X127.7Y-93.56
X127.7Y-97.024
X127.7Y-100.488
X127.7Y-103.952
X127.7Y-107.416
X127.7Y-110.88
X127.7Y-117.808
X127.7Y-121.273
X127.7Y-124.737
X127.7Y-128.201
X127.7Y-131.665
X127.7Y-135.129
X127.7Y-138.593
X127.7Y-142.057
X127.7Y-145.521
X127.7Y-148.985
X128.701Y-53.723
X128.701Y-57.187
X128.701Y-60.651
X128.701Y-67.579
X128.701Y-71.043
X128.701Y-77.971
X128.701Y-95.292
X128.701Y-98.756
X128.701Y-102.22
X128.701Y-105.684
X128.701Y-109.148
X128.701Y-112.612
X128.701Y-116.076
X128.701Y-119.54
X128.701Y-123.005
X128.701Y-126.469
X128.701Y-129.933
X128.701Y-133.397
X128.701Y-140.325
X128.701Y-143.789
X128.701Y-147.253
X129.701Y-55.455
X129.701Y-58.919
X129.701Y-62.383
X129.701Y-69.311
X129.701Y-72.775
X129.701Y-79.703
X129.701Y-97.024
X129.701Y-100.488
X129.701Y-103.952
X129.701Y-107.416
X129.701Y-110.88
X129.701Y-117.808
X129.701Y-121.273
X129.701Y-124.737
X129.701Y-128.201
X129.701Y-131.665
X129.701Y-135.129
X129.701Y-138.593
X129.701Y-142.057
X129.701Y-145.521
X129.701Y-148.985
X130.701Y-53.723
X130.701Y-57.187
X130.701Y-60.651
X130.701Y-67.579
X130.701Y-71.043
X130.701Y-77.971
X130.701Y-95.292
X130.701Y-98.756
X130.701Y-102.22
X130.701Y-105.684
X130.701Y-109.148
X130.701Y-112.612
X130.701Y-116.076
X130.701Y-119.54
X130.701Y-123.005
X130.701Y-126.469
X130.701Y-129.933
X130.701Y-133.397
X130.701Y-140.325
X130.701Y-143.789
X130.701Y-147.253
X131.701Y-55.455
X131.701Y-58.919
X131.701Y-69.311
X131.701Y-72.775
X131.701Y-79.703
X131.701Y-90.096
X131.701Y-93.56
X131.701Y-97.024
X131.701Y-100.488
X131.701Y-103.952
X131.701Y-107.416
X131.701Y-110.88
X131.701Y-117.808
X131.701Y-121.273
X131.701Y-124.737
X131.701Y-128.201
X131.701Y-145.521
X131.701Y-148.985
X132.701Y-53.723
X132.701Y-57.187
X132.701Y-60.651
X132.701Y-71.043
X132.701Y-77.971
X132.701Y-84.899
X132.701Y-91.828
X132.701Y-95.292
X132.701Y-98.756
X132.701Y-102.22
X132.701Y-105.684
X132.701Y-109.148
X132.701Y-112.612
X132.701Y-116.076
X132.701Y-119.54
X132.701Y-123.005
X132.701Y-126.469
X132.701Y-129.933
X132.701Y-143.789
X132.701Y-147.253
X133.701Y-55.455
X133.701Y-58.919
X133.701Y-69.311
X133.701Y-90.096
X133.701Y-93.56
X133.701Y-97.024
X133.701Y-100.488
X133.701Y-103.952
X133.701Y-107.416
X133.701Y-110.88
X133.701Y-117.808
X133.701Y-121.273
X133.701Y-124.737
X133.701Y-128.201
X133.701Y-145.521
X133.701Y-148.985
X134.054Y-83.521
X134.701Y-53.723
X134.701Y-57.187
X134.701Y-60.651
X134.701Y-67.579
X134.701Y-71.043
X134.701Y-84.899
X134.701Y-91.828
X134.701Y-95.292
X134.701Y-98.756
X134.701Y-102.22
X134.701Y-105.684
X134.701Y-109.148
X134.701Y-119.54
X134.701Y-123.005
X134.701Y-126.469
X134.701Y-129.933
X134.701Y-133.397
X134.701Y-140.325
X134.701Y-143.789
X134.701Y-147.253
X135.701Y-55.455
X135.701Y-58.919
X135.701Y-62.383
X135.701Y-69.311
X135.701Y-83.167
X135.701Y-90.096
X135.701Y-93.56
X135.701Y-97.024
X135.701Y-100.488
X135.701Y-103.952
X135.701Y-107.416
X135.701Y-121.273
X135.701Y-124.737
X135.701Y-128.201
X135.701Y-131.665
X135.701Y-135.129
X135.701Y-138.593
X135.701Y-142.057
X135.701Y-145.521
X135.701Y-148.985
X136.701Y-53.723
X136.701Y-57.187
X136.701Y-60.651
X136.701Y-67.579
X136.701Y-71.043
X136.701Y-77.971
X136.701Y-84.899
X136.701Y-91.828
X136.701Y-95.292
X136.701Y-98.756
X136.701Y-102.22
X136.701Y-105.684
X136.701Y-109.148
X136.701Y-119.54
X136.701Y-123.005
X136.701Y-126.469
X136.701Y-129.933
X136.701Y-133.397
X136.701Y-140.325
X136.701Y-143.789
X136.701Y-147.253
X137.701Y-55.455
X137.701Y-58.919
X137.701Y-62.383
X137.701Y-69.311
X137.701Y-83.167
X137.701Y-90.096
X137.701Y-93.56
X137.701Y-97.024
X137.701Y-100.488
X137.701Y-103.952
X137.701Y-107.416
X137.701Y-110.88
X137.701Y-117.808
X137.701Y-121.273
X137.701Y-124.737
X137.701Y-128.201
X137.701Y-131.665
X137.701Y-135.129
X137.701Y-138.593
X137.701Y-142.057
X137.701Y-145.521
X137.701Y-148.985
X138.701Y-53.723
X138.701Y-57.187
X138.701Y-60.651
X138.701Y-67.579
X138.701Y-71.043
X138.701Y-84.899
X138.701Y-91.828
X138.701Y-95.292
X138.701Y-98.756
X138.701Y-102.22
X138.701Y-105.684
X138.701Y-109.148
X138.701Y-112.612
X138.701Y-116.076
X138.701Y-119.54
X138.701Y-123.005
X138.701Y-126.469
X138.701Y-129.933
X138.701Y-133.397
X138.701Y-140.325
X138.701Y-143.789
X138.701Y-147.253
X139.701Y-55.455
X139.701Y-58.919
X139.701Y-62.383
X139.701Y-69.311
X139.701Y-83.167
X139.701Y-90.096
X139.701Y-93.56
X139.701Y-97.024
X139.701Y-100.488
X139.701Y-103.952
X139.701Y-107.416
X139.701Y-110.88
X139.701Y-117.808
X139.701Y-121.273
X139.701Y-124.737
X139.701Y-128.201
X139.701Y-131.665
X139.701Y-135.129
X139.701Y-138.593
X139.701Y-142.057
X139.701Y-145.521
X139.701Y-148.985
X140.701Y-53.723
X140.701Y-57.187
X140.701Y-60.651
X140.701Y-67.579
X140.701Y-71.043
X140.701Y-77.971
X140.701Y-84.899
X140.701Y-91.828
X140.701Y-95.292
X140.701Y-98.756
X140.701Y-102.22
X140.701Y-105.684
X140.701Y-109.148
X140.701Y-112.612
X140.701Y-116.076
X140.701Y-119.54
X140.701Y-123.005
X140.701Y-126.469
X140.701Y-129.933
X140.701Y-133.397
X140.701Y-140.325
X140.701Y-143.789
X140.701Y-147.253
X141.701Y-55.455
X141.701Y-58.919
X141.701Y-62.383
X141.701Y-69.311
X141.701Y-72.775
X141.701Y-83.167
X141.701Y-90.096
X141.701Y-93.56
X141.701Y-97.024
X141.701Y-100.488
X141.701Y-103.952
X141.701Y-107.416
X141.701Y-110.88
X141.701Y-117.808
X141.701Y-121.273
X141.701Y-124.737
X141.701Y-128.201
X141.701Y-131.665
X141.701Y-135.129
X141.701Y-138.593
X141.701Y-142.057
X141.701Y-145.521
X141.701Y-148.985
X142.701Y-53.723
X142.701Y-57.187
X142.701Y-60.651
X142.701Y-67.579
X142.701Y-71.043
X142.701Y-84.899
X142.701Y-91.828
X142.701Y-95.292
X142.701Y-98.756
X142.701Y-102.22
X142.701Y-105.684
X142.701Y-109.148
X142.701Y-112.612
X142.701Y-116.076
X142.701Y-119.54
X142.701Y-123.005
X142.701Y-126.469
X142.701Y-129.933
X142.701Y-133.397
X142.701Y-140.325
X142.701Y-143.789
X142.701Y-147.253
X143.701Y-55.455
X143.701Y-58.919
X143.701Y-69.311
X143.701Y-83.667
X143.701Y-90.096
X143.701Y-93.56
X143.701Y-97.024
X143.701Y-100.488
X143.701Y-103.952
X143.701Y-107.416
X143.701Y-110.88
X143.701Y-117.808
X143.701Y-121.273
X143.701Y-124.737
X143.701Y-128.201
X143.701Y-131.665
X143.701Y-135.129
X143.701Y-138.593
X143.701Y-142.057
X143.701Y-145.521
X143.701Y-148.985
X144.701Y-53.723
X144.701Y-57.187
X144.701Y-60.651
X144.701Y-71.043
X144.701Y-77.971
X144.701Y-84.899
X144.701Y-91.828
X144.701Y-95.292
X144.701Y-98.756
X144.701Y-102.22
X144.701Y-105.684
X144.701Y-109.148
X144.701Y-112.612
X144.701Y-116.076
X144.701Y-119.54
X144.701Y-123.005
X144.701Y-126.469
X144.701Y-129.933
X144.701Y-133.397
X144.701Y-140.325
X144.701Y-143.789
X144.701Y-147.253
X145.701Y-55.455
X145.701Y-58.919
X145.701Y-69.311
X145.701Y-72.775
X145.701Y-97.024
X145.701Y-100.488
X145.701Y-103.952
X145.701Y-107.416
X145.701Y-110.88
X145.701Y-117.808
X145.701Y-121.273
X145.701Y-124.737
X145.701Y-128.201
X145.701Y-131.665
X145.701Y-135.129
X145.701Y-138.593
X145.701Y-142.057
X145.701Y-145.521
X145.701Y-148.985
X146.701Y-53.723
X146.701Y-57.187
X146.701Y-60.651
X146.701Y-67.579
X146.701Y-71.043
X146.701Y-77.971
X146.701Y-95.292
X146.701Y-98.756
X146.701Y-102.22
X146.701Y-105.684
X146.701Y-109.148
X146.701Y-119.54
X146.701Y-123.005
X146.701Y-126.469
X146.701Y-129.933
X146.701Y-133.397
X146.701Y-140.325
X146.701Y-143.789
X146.701Y-147.253
X147.701Y-55.455
X147.701Y-58.919
X147.701Y-62.383
X147.701Y-69.311
X147.701Y-72.775
X147.701Y-79.703
X147.701Y-97.024
X147.701Y-100.488
X147.701Y-103.952
X147.701Y-107.416
X147.701Y-121.273
X147.701Y-124.737
X147.701Y-128.201
X147.701Y-131.665
X147.701Y-135.129
X147.701Y-138.593
X147.701Y-142.057
X147.701Y-145.521
X147.701Y-148.985
X148.701Y-53.723
X148.701Y-57.187
X148.701Y-60.651
X148.701Y-67.579
X148.701Y-71.043
X148.701Y-77.971
X148.701Y-91.828
X148.701Y-95.292
X148.701Y-98.756
X148.701Y-102.22
X148.701Y-105.684
X148.701Y-109.148
X148.701Y-119.54
X148.701Y-123.005
X148.701Y-126.469
X148.701Y-129.933
X148.701Y-133.397
X148.701Y-140.325
X148.701Y-143.789
X148.701Y-147.253
X149.701Y-55.455
X149.701Y-58.919
X149.701Y-62.383
X149.701Y-69.311
X149.701Y-72.775
X149.701Y-79.703
X149.701Y-90.096
X149.701Y-93.56
X149.701Y-97.024
X149.701Y-100.488
X149.701Y-103.952
X149.701Y-107.416
X149.701Y-110.88
X149.701Y-117.808
X149.701Y-121.273
X149.701Y-124.737
X149.701Y-128.201
X149.701Y-145.521
X149.701Y-148.985
X150.701Y-53.723
X150.701Y-57.187
X150.701Y-60.651
X150.701Y-67.579
X150.701Y-71.043
X150.701Y-77.971
X150.701Y-91.828
X150.701Y-95.292
X150.701Y-98.756
X150.701Y-102.22
X150.701Y-105.684
X150.701Y-109.148
X150.701Y-112.612
X150.701Y-116.076
X150.701Y-119.54
X150.701Y-123.005
X150.701Y-126.469
X150.701Y-129.933
X150.701Y-143.789
X150.701Y-147.253
X151.701Y-55.455
X151.701Y-58.919
X151.701Y-62.383
X151.701Y-69.311
X151.701Y-72.775
X151.701Y-79.703
X151.701Y-90.096
X151.701Y-93.56
X151.701Y-97.024
X151.701Y-100.488
X151.701Y-103.952
X151.701Y-107.416
X151.701Y-110.88
X151.701Y-117.808
X151.701Y-121.273
X151.701Y-124.737
X151.701Y-128.201
X151.701Y-145.521
X151.701Y-148.985
X152.701Y-53.723
X152.701Y-57.187
X152.701Y-60.651
X152.701Y-67.579
X152.701Y-71.043
X152.701Y-77.971
X152.701Y-81.435
X152.701Y-84.899
X152.701Y-91.828
X152.701Y-95.292
X152.701Y-98.756
X152.701Y-102.22
X152.701Y-105.684
X152.701Y-109.148
X152.701Y-112.612
X152.701Y-116.076
X152.701Y-119.54
X152.701Y-123.005
X152.701Y-126.469
X152.701Y-129.933
X152.701Y-133.397
X152.701Y-140.325
X152.701Y-143.789
X152.701Y-147.253
X153.701Y-55.455
X153.701Y-58.919
X153.701Y-62.383
X153.701Y-69.311
X153.701Y-72.775
X153.701Y-79.703
X153.701Y-90.096
X153.701Y-93.56
X153.701Y-97.024
X153.701Y-100.488
X153.701Y-103.952
X153.701Y-107.416
X153.701Y-110.88
X153.701Y-117.808
X153.701Y-121.273
X153.701Y-124.737
X153.701Y-128.201
X153.701Y-131.665
X153.701Y-135.129
X153.701Y-138.593
X153.701Y-142.057
X153.701Y-145.521
X153.701Y-148.985
X154.701Y-53.723
X154.701Y-57.187
X154.701Y-60.651
X154.701Y-71.043
X154.701Y-77.971
X154.701Y-81.435
X154.701Y-91.828
X154.701Y-95.292
X154.701Y-98.756
X154.701Y-102.22
X154.701Y-105.684
X154.701Y-109.148
X154.701Y-112.612
X154.701Y-116.076
X154.701Y-119.54
X154.701Y-123.005
X154.701Y-126.469
X154.701Y-129.933
X154.701Y-133.397
X154.701Y-140.325
X154.701Y-143.789
X154.701Y-147.253
X155.347Y-72.422
X155.701Y-55.455
X155.701Y-58.919
X155.701Y-69.311
X155.701Y-76.239
X155.701Y-79.703
X155.701Y-90.096
X155.701Y-93.56
X155.701Y-97.024
X155.701Y-100.488
X155.701Y-103.952
X155.701Y-107.416
X155.701Y-110.88
X155.701Y-117.808
X155.701Y-121.273
X155.701Y-124.737
X155.701Y-128.201
X155.701Y-131.665
X155.701Y-135.129
X155.701Y-138.593
X155.701Y-142.057
X155.701Y-145.521
X155.701Y-148.985
X156.701Y-53.723
X156.701Y-57.187
X156.701Y-60.651
X156.701Y-71.043
X156.701Y-77.971
X156.701Y-81.435
X156.701Y-91.828
X156.701Y-95.292
X156.701Y-98.756
X156.701Y-102.22
X156.701Y-105.684
X156.701Y-109.148
X156.701Y-112.612
X156.701Y-116.076
X156.701Y-119.54
X156.701Y-123.005
X156.701Y-126.469
X156.701Y-129.933
X156.701Y-133.397
X156.701Y-140.325
X156.701Y-143.789
X156.701Y-147.253
X157.701Y-55.455
X157.701Y-58.919
X157.701Y-62.383
X157.701Y-69.311
X157.701Y-76.239
X157.701Y-79.703
X157.701Y-83.167
X157.701Y-90.096
X157.701Y-93.56
X157.701Y-97.024
X157.701Y-100.488
X157.701Y-103.952
X157.701Y-107.416
X157.701Y-110.88
X157.701Y-117.808
X157.701Y-121.273
X157.701Y-124.737
X157.701Y-128.201
X157.701Y-131.665
X157.701Y-135.129
X157.701Y-138.593
X157.701Y-142.057
X157.701Y-145.521
X157.701Y-148.985
X158.701Y-53.723
X158.701Y-57.187
X158.701Y-60.651
X158.701Y-67.579
X158.701Y-71.043
X158.701Y-77.971
X158.701Y-81.435
X158.701Y-84.899
X158.701Y-91.828
X158.701Y-95.292
X158.701Y-98.756
X158.701Y-102.22
X158.701Y-105.684
X158.701Y-109.148
X158.701Y-119.54
X158.701Y-123.005
X158.701Y-126.469
X158.701Y-129.933
X158.701Y-133.397
X158.701Y-140.325
X158.701Y-143.789
X158.701Y-147.253
X159.701Y-55.455
X159.701Y-58.919
X159.701Y-62.383
X159.701Y-69.311
X159.701Y-76.239
X159.701Y-79.703
X159.701Y-83.167
X159.701Y-90.596
X159.701Y-93.56
X159.701Y-97.024
X159.701Y-100.488
X159.701Y-103.952
X159.701Y-107.416
X159.701Y-121.273
X159.701Y-124.737
X159.701Y-128.201
X159.701Y-131.665
X159.701Y-135.129
X159.701Y-138.593
X159.701Y-142.057
X159.701Y-145.521
X159.701Y-148.985
X160.701Y-53.723
X160.701Y-57.187
X160.701Y-60.651
X160.701Y-67.579
X160.701Y-77.971
X160.701Y-95.292
X160.701Y-98.756
X160.701Y-102.22
X160.701Y-105.684
X160.701Y-109.148
X160.701Y-119.54
X160.701Y-123.005
X160.701Y-126.469
X160.701Y-129.933
X160.701Y-133.397
X160.701Y-140.325
X160.701Y-143.789
X160.701Y-147.253
X161.701Y-55.455
X161.701Y-58.919
X161.701Y-62.383
X161.701Y-69.311
X161.701Y-76.239
X161.701Y-79.703
X161.701Y-97.024
X161.701Y-100.488
X161.701Y-103.952
X161.701Y-107.416
X161.701Y-110.88
X161.701Y-117.808
X161.701Y-121.273
X161.701Y-124.737
X161.701Y-128.201
X161.701Y-131.665
X161.701Y-135.129
X161.701Y-138.593
X161.701Y-142.057
X161.701Y-145.521
X161.701Y-148.985
X162.701Y-53.723
X162.701Y-57.187
X162.701Y-60.651
X162.701Y-67.579
X162.701Y-74.507
X162.701Y-77.971
X162.701Y-81.435
X162.701Y-95.292
X162.701Y-98.756
X162.701Y-102.22
X162.701Y-105.684
X162.701Y-109.148
X162.701Y-112.612
X162.701Y-116.076
X162.701Y-119.54
X162.701Y-123.005
X162.701Y-126.469
X162.701Y-129.933
X162.701Y-133.397
X162.701Y-140.325
X162.701Y-143.789
X162.701Y-147.253
X163.201Y-69.311
X163.701Y-55.455
X163.701Y-58.919
X163.701Y-62.383
X163.701Y-76.239
X163.701Y-79.703
X163.701Y-83.167
X163.701Y-93.56
X163.701Y-97.024
X163.701Y-100.488
X163.701Y-103.952
X163.701Y-107.416
X163.701Y-110.88
X163.701Y-117.808
X163.701Y-121.273
X163.701Y-124.737
X163.701Y-128.201
X163.701Y-131.665
X163.701Y-135.129
X163.701Y-138.593
X163.701Y-142.057
X163.701Y-145.521
X163.701Y-148.985
X164.347Y-95.645
X164.701Y-53.723
X164.701Y-57.187
X164.701Y-60.651
X164.701Y-67.579
X164.701Y-74.507
X164.701Y-77.971
X164.701Y-81.435
X164.701Y-84.899
X164.701Y-98.756
X164.701Y-102.22
X164.701Y-105.684
X164.701Y-109.148
X164.701Y-112.612
X164.701Y-116.076
X164.701Y-119.54
X164.701Y-123.005
X164.701Y-126.469
X164.701Y-129.933
X164.701Y-143.789
X164.701Y-147.253
X165.701Y-55.455
X165.701Y-58.919
X165.701Y-62.383
X165.701Y-72.775
X165.701Y-76.239
X165.701Y-79.703
X165.701Y-83.167
X165.701Y-90.096
X165.701Y-100.488
X165.701Y-103.952
X165.701Y-107.416
X165.701Y-110.88
X165.701Y-117.808
X165.701Y-121.273
X165.701Y-124.737
X165.701Y-128.201
X165.701Y-145.521
X165.701Y-148.985
X166.701Y-53.723
X166.701Y-57.187
X166.701Y-60.651
X166.701Y-67.579
X166.701Y-74.507
X166.701Y-77.971
X166.701Y-81.435
X166.701Y-84.899
X166.701Y-91.828
X166.701Y-102.22
X166.701Y-105.684
X166.701Y-109.148
X166.701Y-112.612
X166.701Y-116.076
X166.701Y-119.54
X166.701Y-123.005
X166.701Y-126.469
X166.701Y-129.933
X166.701Y-143.789
X166.701Y-147.253
X167.701Y-55.455
X167.701Y-58.919
X167.701Y-62.383
X167.701Y-72.775
X167.701Y-76.239
X167.701Y-79.703
X167.701Y-83.167
X167.701Y-90.096
X167.701Y-103.952
X167.701Y-107.416
X167.701Y-110.88
X167.701Y-117.808
X167.701Y-121.273
X167.701Y-124.737
X167.701Y-128.201
X167.701Y-131.665
X167.701Y-135.129
X167.701Y-138.593
X167.701Y-142.057
X167.701Y-145.521
X167.701Y-148.985
X168.701Y-53.723
X168.701Y-57.187
X168.701Y-60.651
X168.701Y-71.043
X168.701Y-74.507
X168.701Y-77.971
X168.701Y-81.435
X168.701Y-84.899
X168.701Y-91.828
X168.701Y-105.684
X168.701Y-109.148
X168.701Y-112.612
X168.701Y-116.076
X168.701Y-119.54
X168.701Y-123.005
X168.701Y-126.469
X168.701Y-129.933
X168.701Y-133.397
X168.701Y-140.325
X168.701Y-143.789
X168.701Y-147.253
X169.701Y-58.919
X169.701Y-69.311
X169.701Y-72.775
X169.701Y-76.239
X169.701Y-79.703
X169.701Y-83.167
X169.701Y-90.096
X169.701Y-93.56
X169.701Y-107.916
X169.701Y-110.88
X169.701Y-117.808
X169.701Y-121.273
X169.701Y-124.737
X169.701Y-128.201
X169.701Y-131.665
X169.701Y-135.129
X169.701Y-138.593
X169.701Y-142.057
X169.701Y-145.521
X170.347Y-109.502
X170.701Y-57.187
X170.701Y-67.579
X170.701Y-71.043
X170.701Y-74.507
X170.701Y-77.971
X170.701Y-81.435
X170.701Y-84.899
X170.701Y-91.828
X170.701Y-95.292
X170.701Y-112.612
X170.701Y-116.076
X170.701Y-119.54
X170.701Y-123.005
X170.701Y-126.469
X170.701Y-129.933
X170.701Y-133.397
X170.701Y-140.325
X170.701Y-143.789
X171.701Y-69.311
X171.701Y-72.775
X171.701Y-76.239
X171.701Y-79.703
X171.701Y-83.167
X171.701Y-90.096
X171.701Y-93.56
X171.701Y-97.024
X171.701Y-117.808
X171.701Y-121.273
X171.701Y-124.737
X171.701Y-128.201
X171.701Y-131.665
X171.701Y-135.129
X171.701Y-138.593
X171.701Y-142.057
X171.701Y-145.521
X172.701Y-67.579
X172.701Y-71.043
X172.701Y-74.507
X172.701Y-77.971
X172.701Y-81.435
X172.701Y-84.899
X172.701Y-91.828
X172.701Y-95.292
X172.701Y-98.756
X173.701Y-62.383
X173.701Y-69.311
X173.701Y-72.775
X173.701Y-76.239
X173.701Y-79.703
X173.701Y-83.167
X173.701Y-90.096
X173.701Y-93.56
X173.701Y-97.024
X173.701Y-100.488
X173.701Y-103.952
X174.701Y-60.651
X174.701Y-67.579
X174.701Y-71.043
X174.701Y-74.507
X174.701Y-77.971
X174.701Y-81.435
X174.701Y-84.899
X174.701Y-91.828
X174.701Y-95.292
X174.701Y-98.756
X174.701Y-102.22
X174.701Y-105.684
X175.701Y-58.919
X175.701Y-62.383
X175.701Y-69.311
X175.701Y-72.775
X175.701Y-76.239
X175.701Y-79.703
X175.701Y-83.167
X175.701Y-90.096
X175.701Y-93.56
X175.701Y-97.024
X175.701Y-100.488
X175.701Y-103.952
X175.701Y-107.416
X175.701Y-110.88
X175.701Y-117.808
X175.701Y-121.273
X175.701Y-124.737
X175.701Y-128.201
X175.701Y-131.665
X175.701Y-138.593
X175.701Y-142.057
X175.701Y-145.521
X176.701Y-57.187
X176.701Y-60.651
X176.701Y-64.115
X176.701Y-71.043
X176.701Y-74.507
X176.701Y-77.971
X176.701Y-81.435
X176.701Y-84.899
X176.701Y-91.828
X176.701Y-95.292
X176.701Y-98.756
X176.701Y-102.22
X176.701Y-105.684
X176.701Y-109.148
X176.701Y-112.612
X176.701Y-119.54
X176.701Y-123.005
X176.701Y-126.469
X176.701Y-129.933
X176.701Y-133.397
X176.701Y-140.325
X176.701Y-143.789
X177.054Y-67.933
X177.701Y-58.919
X177.701Y-62.383
X177.701Y-69.311
X177.701Y-72.775
X177.701Y-76.239
X177.701Y-79.703
X177.701Y-83.167
X177.701Y-90.096
X177.701Y-93.56
X177.701Y-97.024
X177.701Y-100.488
X177.701Y-103.952
X177.701Y-107.416
X177.701Y-110.88
X177.701Y-117.808
X177.701Y-121.273
X177.701Y-124.737
X177.701Y-128.201
X177.701Y-131.665
X177.701Y-138.593
X177.701Y-142.057
X177.701Y-145.521
X178.701Y-53.723
X178.701Y-57.187
X178.701Y-60.651
X178.701Y-64.115
X178.701Y-71.043
X178.701Y-74.507
X178.701Y-77.971
X178.701Y-81.435
X178.701Y-88.364
X178.701Y-91.828
X178.701Y-95.292
X178.701Y-98.756
X178.701Y-102.22
X178.701Y-105.684
X178.701Y-109.148
X178.701Y-112.612
X178.701Y-119.54
X178.701Y-123.005
X178.701Y-126.469
X178.701Y-129.933
X178.701Y-136.861
X178.701Y-140.325
X178.701Y-143.789
X178.701Y-147.253
X179.701Y-55.455
X179.701Y-58.919
X179.701Y-62.383
X179.701Y-69.311
X179.701Y-72.775
X179.701Y-76.239
X179.701Y-79.703
X179.701Y-83.167
X179.701Y-90.096
X179.701Y-93.56
X179.701Y-97.024
X179.701Y-100.488
X179.701Y-103.952
X179.701Y-107.416
X179.701Y-110.88
X179.701Y-114.344
X179.701Y-121.273
X179.701Y-124.737
X179.701Y-128.201
X179.701Y-131.665
X179.701Y-138.593
X179.701Y-142.057
X179.701Y-145.521
X179.701Y-148.985
X180.701Y-53.723
X180.701Y-57.187
X180.701Y-60.651
X180.701Y-64.115
X180.701Y-71.043
X180.701Y-74.507
X180.701Y-77.971
X180.701Y-81.435
X180.701Y-88.364
X180.701Y-91.828
X180.701Y-95.292
X180.701Y-98.756
X180.701Y-102.22
X180.701Y-105.684
X180.701Y-109.148
X180.701Y-112.612
X180.701Y-119.54
X180.701Y-123.005
X180.701Y-126.469
X180.701Y-129.933
X180.701Y-136.861
X180.701Y-140.325
X180.701Y-143.789
X180.701Y-147.253
X181.347Y-80.057
X181.347Y-128.554
X181.701Y-55.455
X181.701Y-58.919
X181.701Y-62.383
X181.701Y-65.847
X181.701Y-72.775
X181.701Y-76.239
X181.701Y-86.632
X181.701Y-90.096
X181.701Y-93.56
X181.701Y-97.024
X181.701Y-100.488
X181.701Y-103.952
X181.701Y-107.416
X181.701Y-110.88
X181.701Y-114.344
X181.701Y-121.773
X181.701Y-124.737
X181.701Y-135.129
X181.701Y-138.593
X181.701Y-142.057
X181.701Y-145.521
X181.701Y-148.985
X182.701Y-53.723
X182.701Y-57.187
X182.701Y-60.651
X182.701Y-64.115
X182.701Y-67.579
X182.701Y-75.007
X182.701Y-84.899
X182.701Y-88.364
X182.701Y-91.828
X182.701Y-95.292
X182.701Y-98.756
X182.701Y-102.22
X182.701Y-105.684
X182.701Y-109.148
X182.701Y-112.612
X182.701Y-116.076
X182.701Y-133.397
X182.701Y-136.861
X182.701Y-140.325
X182.701Y-143.789
X182.701Y-147.253
X183.701Y-55.455
X183.701Y-58.919
X183.701Y-62.383
X183.701Y-65.847
X183.701Y-69.311
X183.701Y-83.167
X183.701Y-86.632
X183.701Y-90.096
X183.701Y-93.56
X183.701Y-97.024
X183.701Y-100.488
X183.701Y-103.952
X183.701Y-107.416
X183.701Y-110.88
X183.701Y-114.344
X183.701Y-117.808
X183.701Y-131.665
X183.701Y-135.129
X183.701Y-138.593
X183.701Y-142.057
X183.701Y-145.521
X183.701Y-148.985
X184.701Y-53.723
X184.701Y-57.187
X184.701Y-60.651
X184.701Y-64.115
X184.701Y-67.579
X184.701Y-71.043
X184.701Y-81.435
X184.701Y-84.899
X184.701Y-88.364
X184.701Y-91.828
X184.701Y-95.292
X184.701Y-98.756
X184.701Y-102.22
X184.701Y-105.684
X184.701Y-109.148
X184.701Y-112.612
X184.701Y-116.076
X184.701Y-119.54
X184.701Y-129.933
X184.701Y-133.397
X184.701Y-136.861
X184.701Y-140.325
X184.701Y-143.789
X184.701Y-147.253
X185.701Y-55.455
X185.701Y-58.919
X185.701Y-62.383
X185.701Y-65.847
X185.701Y-69.311
X185.701Y-72.775
X185.701Y-76.239
X185.701Y-79.703
X185.701Y-83.167
X185.701Y-86.632
X185.701Y-90.096
X185.701Y-93.56
X185.701Y-97.024
X185.701Y-100.488
X185.701Y-103.952
X185.701Y-107.416
X185.701Y-110.88
X185.701Y-114.344
X185.701Y-117.808
X185.701Y-121.273
X185.701Y-124.737
X185.701Y-128.201
X185.701Y-131.665
X185.701Y-135.129
X185.701Y-138.593
X185.701Y-142.057
X185.701Y-145.521
X185.701Y-148.985
X186.701Y-53.723
X186.701Y-57.187
X186.701Y-60.651
X186.701Y-64.115
X186.701Y-67.579
X186.701Y-71.043
X186.701Y-74.507
X186.701Y-77.971
X186.701Y-81.435
X186.701Y-84.899
X186.701Y-88.364
X186.701Y-91.828
X186.701Y-95.292
X186.701Y-98.756
X186.701Y-102.22
X186.701Y-105.684
X186.701Y-109.148
X186.701Y-112.612
X186.701Y-116.076
X186.701Y-119.54
X186.701Y-123.005
X186.701Y-126.469
X186.701Y-129.933
X186.701Y-133.397
X186.701Y-136.861
X186.701Y-140.325
X186.701Y-143.789
X186.701Y-147.253
X187.701Y-55.455
X187.701Y-58.919
X187.701Y-62.383
X187.701Y-65.847
X187.701Y-69.311
X187.701Y-72.775
X187.701Y-76.239
X187.701Y-79.703
X187.701Y-83.167
X187.701Y-86.632
X187.701Y-90.096
X187.701Y-93.56
X187.701Y-97.024
X187.701Y-100.488
X187.701Y-103.952
X187.701Y-107.416
X187.701Y-110.88
X187.701Y-114.344
X187.701Y-117.808
X187.701Y-121.273
X187.701Y-124.737
X187.701Y-128.201
X187.701Y-131.665
X187.701Y-135.129
X187.701Y-138.593
X187.701Y-142.057
X187.701Y-145.521
M30
