%TF.GenerationSoftware,KiCad,Pcbnew,10.0.6*%
%TF.CreationDate,2026-09-21T17:18:50+08:00*%
%TF.ProjectId,6g_att,36675f61-7474-42e6-9b69-6361645f7063,rev?*%
%TF.SameCoordinates,Original*%
%TF.FileFunction,Legend,Bot*%
%TF.FilePolarity,Positive*%
%FSLAX46Y46*%
G04 Gerber Fmt 4.6, Leading zero omitted, Abs format (unit mm)*
G04 Created by KiCad (PCBNEW 10.0.6) date 2026-09-21 17:18:50*
%MOMM*%
%LPD*%
G01*
G04 APERTURE LIST*
%ADD10C,0.400000*%
%ADD11C,0.150000*%
%ADD12C,0.120000*%
G04 APERTURE END LIST*
D10*
X153181128Y-108551664D02*
X152133509Y-108551664D01*
X152133509Y-108551664D02*
X153181128Y-109884998D01*
X153181128Y-109884998D02*
X152133509Y-109884998D01*
X151562080Y-109884998D02*
X150514461Y-108551664D01*
X151562080Y-108551664D02*
X150514461Y-109884998D01*
X149752556Y-109884998D02*
X149752556Y-107884998D01*
X149562080Y-109123093D02*
X148990651Y-109884998D01*
X148990651Y-108551664D02*
X149752556Y-109313569D01*
X148133508Y-109884998D02*
X148133508Y-108551664D01*
X148133508Y-108742140D02*
X148038270Y-108646902D01*
X148038270Y-108646902D02*
X147847794Y-108551664D01*
X147847794Y-108551664D02*
X147562079Y-108551664D01*
X147562079Y-108551664D02*
X147371603Y-108646902D01*
X147371603Y-108646902D02*
X147276365Y-108837379D01*
X147276365Y-108837379D02*
X147276365Y-109884998D01*
X147276365Y-108837379D02*
X147181127Y-108646902D01*
X147181127Y-108646902D02*
X146990651Y-108551664D01*
X146990651Y-108551664D02*
X146704937Y-108551664D01*
X146704937Y-108551664D02*
X146514460Y-108646902D01*
X146514460Y-108646902D02*
X146419222Y-108837379D01*
X146419222Y-108837379D02*
X146419222Y-109884998D01*
X145466841Y-109884998D02*
X145466841Y-108551664D01*
X145466841Y-108742140D02*
X145371603Y-108646902D01*
X145371603Y-108646902D02*
X145181127Y-108551664D01*
X145181127Y-108551664D02*
X144895412Y-108551664D01*
X144895412Y-108551664D02*
X144704936Y-108646902D01*
X144704936Y-108646902D02*
X144609698Y-108837379D01*
X144609698Y-108837379D02*
X144609698Y-109884998D01*
X144609698Y-108837379D02*
X144514460Y-108646902D01*
X144514460Y-108646902D02*
X144323984Y-108551664D01*
X144323984Y-108551664D02*
X144038270Y-108551664D01*
X144038270Y-108551664D02*
X143847793Y-108646902D01*
X143847793Y-108646902D02*
X143752555Y-108837379D01*
X143752555Y-108837379D02*
X143752555Y-109884998D01*
X152990652Y-113104886D02*
X152990652Y-111104886D01*
X152990652Y-111104886D02*
X152514462Y-111104886D01*
X152514462Y-111104886D02*
X152228747Y-111200124D01*
X152228747Y-111200124D02*
X152038271Y-111390600D01*
X152038271Y-111390600D02*
X151943033Y-111581076D01*
X151943033Y-111581076D02*
X151847795Y-111962028D01*
X151847795Y-111962028D02*
X151847795Y-112247743D01*
X151847795Y-112247743D02*
X151943033Y-112628695D01*
X151943033Y-112628695D02*
X152038271Y-112819171D01*
X152038271Y-112819171D02*
X152228747Y-113009648D01*
X152228747Y-113009648D02*
X152514462Y-113104886D01*
X152514462Y-113104886D02*
X152990652Y-113104886D01*
X149847795Y-112914409D02*
X149943033Y-113009648D01*
X149943033Y-113009648D02*
X150228747Y-113104886D01*
X150228747Y-113104886D02*
X150419223Y-113104886D01*
X150419223Y-113104886D02*
X150704938Y-113009648D01*
X150704938Y-113009648D02*
X150895414Y-112819171D01*
X150895414Y-112819171D02*
X150990652Y-112628695D01*
X150990652Y-112628695D02*
X151085890Y-112247743D01*
X151085890Y-112247743D02*
X151085890Y-111962028D01*
X151085890Y-111962028D02*
X150990652Y-111581076D01*
X150990652Y-111581076D02*
X150895414Y-111390600D01*
X150895414Y-111390600D02*
X150704938Y-111200124D01*
X150704938Y-111200124D02*
X150419223Y-111104886D01*
X150419223Y-111104886D02*
X150228747Y-111104886D01*
X150228747Y-111104886D02*
X149943033Y-111200124D01*
X149943033Y-111200124D02*
X149847795Y-111295362D01*
X148990652Y-112342981D02*
X147466843Y-112342981D01*
X145657319Y-111104886D02*
X146038272Y-111104886D01*
X146038272Y-111104886D02*
X146228748Y-111200124D01*
X146228748Y-111200124D02*
X146323986Y-111295362D01*
X146323986Y-111295362D02*
X146514462Y-111581076D01*
X146514462Y-111581076D02*
X146609700Y-111962028D01*
X146609700Y-111962028D02*
X146609700Y-112723933D01*
X146609700Y-112723933D02*
X146514462Y-112914409D01*
X146514462Y-112914409D02*
X146419224Y-113009648D01*
X146419224Y-113009648D02*
X146228748Y-113104886D01*
X146228748Y-113104886D02*
X145847795Y-113104886D01*
X145847795Y-113104886D02*
X145657319Y-113009648D01*
X145657319Y-113009648D02*
X145562081Y-112914409D01*
X145562081Y-112914409D02*
X145466843Y-112723933D01*
X145466843Y-112723933D02*
X145466843Y-112247743D01*
X145466843Y-112247743D02*
X145562081Y-112057267D01*
X145562081Y-112057267D02*
X145657319Y-111962028D01*
X145657319Y-111962028D02*
X145847795Y-111866790D01*
X145847795Y-111866790D02*
X146228748Y-111866790D01*
X146228748Y-111866790D02*
X146419224Y-111962028D01*
X146419224Y-111962028D02*
X146514462Y-112057267D01*
X146514462Y-112057267D02*
X146609700Y-112247743D01*
X143562081Y-111200124D02*
X143752557Y-111104886D01*
X143752557Y-111104886D02*
X144038271Y-111104886D01*
X144038271Y-111104886D02*
X144323986Y-111200124D01*
X144323986Y-111200124D02*
X144514462Y-111390600D01*
X144514462Y-111390600D02*
X144609700Y-111581076D01*
X144609700Y-111581076D02*
X144704938Y-111962028D01*
X144704938Y-111962028D02*
X144704938Y-112247743D01*
X144704938Y-112247743D02*
X144609700Y-112628695D01*
X144609700Y-112628695D02*
X144514462Y-112819171D01*
X144514462Y-112819171D02*
X144323986Y-113009648D01*
X144323986Y-113009648D02*
X144038271Y-113104886D01*
X144038271Y-113104886D02*
X143847795Y-113104886D01*
X143847795Y-113104886D02*
X143562081Y-113009648D01*
X143562081Y-113009648D02*
X143466843Y-112914409D01*
X143466843Y-112914409D02*
X143466843Y-112247743D01*
X143466843Y-112247743D02*
X143847795Y-112247743D01*
X142609700Y-113104886D02*
X142609700Y-111104886D01*
X142609700Y-112057267D02*
X141466843Y-112057267D01*
X141466843Y-113104886D02*
X141466843Y-111104886D01*
X140704938Y-111771552D02*
X139657319Y-111771552D01*
X139657319Y-111771552D02*
X140704938Y-113104886D01*
X140704938Y-113104886D02*
X139657319Y-113104886D01*
X153085890Y-114515250D02*
X152990652Y-114420012D01*
X152990652Y-114420012D02*
X152800176Y-114324774D01*
X152800176Y-114324774D02*
X152323985Y-114324774D01*
X152323985Y-114324774D02*
X152133509Y-114420012D01*
X152133509Y-114420012D02*
X152038271Y-114515250D01*
X152038271Y-114515250D02*
X151943033Y-114705726D01*
X151943033Y-114705726D02*
X151943033Y-114896202D01*
X151943033Y-114896202D02*
X152038271Y-115181916D01*
X152038271Y-115181916D02*
X153181128Y-116324774D01*
X153181128Y-116324774D02*
X151943033Y-116324774D01*
X150704938Y-114324774D02*
X150514461Y-114324774D01*
X150514461Y-114324774D02*
X150323985Y-114420012D01*
X150323985Y-114420012D02*
X150228747Y-114515250D01*
X150228747Y-114515250D02*
X150133509Y-114705726D01*
X150133509Y-114705726D02*
X150038271Y-115086678D01*
X150038271Y-115086678D02*
X150038271Y-115562869D01*
X150038271Y-115562869D02*
X150133509Y-115943821D01*
X150133509Y-115943821D02*
X150228747Y-116134297D01*
X150228747Y-116134297D02*
X150323985Y-116229536D01*
X150323985Y-116229536D02*
X150514461Y-116324774D01*
X150514461Y-116324774D02*
X150704938Y-116324774D01*
X150704938Y-116324774D02*
X150895414Y-116229536D01*
X150895414Y-116229536D02*
X150990652Y-116134297D01*
X150990652Y-116134297D02*
X151085890Y-115943821D01*
X151085890Y-115943821D02*
X151181128Y-115562869D01*
X151181128Y-115562869D02*
X151181128Y-115086678D01*
X151181128Y-115086678D02*
X151085890Y-114705726D01*
X151085890Y-114705726D02*
X150990652Y-114515250D01*
X150990652Y-114515250D02*
X150895414Y-114420012D01*
X150895414Y-114420012D02*
X150704938Y-114324774D01*
X148323985Y-116324774D02*
X148323985Y-114324774D01*
X148323985Y-116229536D02*
X148514461Y-116324774D01*
X148514461Y-116324774D02*
X148895414Y-116324774D01*
X148895414Y-116324774D02*
X149085890Y-116229536D01*
X149085890Y-116229536D02*
X149181128Y-116134297D01*
X149181128Y-116134297D02*
X149276366Y-115943821D01*
X149276366Y-115943821D02*
X149276366Y-115372393D01*
X149276366Y-115372393D02*
X149181128Y-115181916D01*
X149181128Y-115181916D02*
X149085890Y-115086678D01*
X149085890Y-115086678D02*
X148895414Y-114991440D01*
X148895414Y-114991440D02*
X148514461Y-114991440D01*
X148514461Y-114991440D02*
X148323985Y-115086678D01*
X146704937Y-115277155D02*
X146419223Y-115372393D01*
X146419223Y-115372393D02*
X146323985Y-115467631D01*
X146323985Y-115467631D02*
X146228747Y-115658107D01*
X146228747Y-115658107D02*
X146228747Y-115943821D01*
X146228747Y-115943821D02*
X146323985Y-116134297D01*
X146323985Y-116134297D02*
X146419223Y-116229536D01*
X146419223Y-116229536D02*
X146609699Y-116324774D01*
X146609699Y-116324774D02*
X147371604Y-116324774D01*
X147371604Y-116324774D02*
X147371604Y-114324774D01*
X147371604Y-114324774D02*
X146704937Y-114324774D01*
X146704937Y-114324774D02*
X146514461Y-114420012D01*
X146514461Y-114420012D02*
X146419223Y-114515250D01*
X146419223Y-114515250D02*
X146323985Y-114705726D01*
X146323985Y-114705726D02*
X146323985Y-114896202D01*
X146323985Y-114896202D02*
X146419223Y-115086678D01*
X146419223Y-115086678D02*
X146514461Y-115181916D01*
X146514461Y-115181916D02*
X146704937Y-115277155D01*
X146704937Y-115277155D02*
X147371604Y-115277155D01*
X143847794Y-115562869D02*
X142323985Y-115562869D01*
X143085889Y-116324774D02*
X143085889Y-114800964D01*
X138800175Y-116324774D02*
X139943032Y-116324774D01*
X139371604Y-116324774D02*
X139371604Y-114324774D01*
X139371604Y-114324774D02*
X139562080Y-114610488D01*
X139562080Y-114610488D02*
X139752556Y-114800964D01*
X139752556Y-114800964D02*
X139943032Y-114896202D01*
X137562080Y-114324774D02*
X137371603Y-114324774D01*
X137371603Y-114324774D02*
X137181127Y-114420012D01*
X137181127Y-114420012D02*
X137085889Y-114515250D01*
X137085889Y-114515250D02*
X136990651Y-114705726D01*
X136990651Y-114705726D02*
X136895413Y-115086678D01*
X136895413Y-115086678D02*
X136895413Y-115562869D01*
X136895413Y-115562869D02*
X136990651Y-115943821D01*
X136990651Y-115943821D02*
X137085889Y-116134297D01*
X137085889Y-116134297D02*
X137181127Y-116229536D01*
X137181127Y-116229536D02*
X137371603Y-116324774D01*
X137371603Y-116324774D02*
X137562080Y-116324774D01*
X137562080Y-116324774D02*
X137752556Y-116229536D01*
X137752556Y-116229536D02*
X137847794Y-116134297D01*
X137847794Y-116134297D02*
X137943032Y-115943821D01*
X137943032Y-115943821D02*
X138038270Y-115562869D01*
X138038270Y-115562869D02*
X138038270Y-115086678D01*
X138038270Y-115086678D02*
X137943032Y-114705726D01*
X137943032Y-114705726D02*
X137847794Y-114515250D01*
X137847794Y-114515250D02*
X137752556Y-114420012D01*
X137752556Y-114420012D02*
X137562080Y-114324774D01*
X135181127Y-116324774D02*
X135181127Y-114324774D01*
X135181127Y-116229536D02*
X135371603Y-116324774D01*
X135371603Y-116324774D02*
X135752556Y-116324774D01*
X135752556Y-116324774D02*
X135943032Y-116229536D01*
X135943032Y-116229536D02*
X136038270Y-116134297D01*
X136038270Y-116134297D02*
X136133508Y-115943821D01*
X136133508Y-115943821D02*
X136133508Y-115372393D01*
X136133508Y-115372393D02*
X136038270Y-115181916D01*
X136038270Y-115181916D02*
X135943032Y-115086678D01*
X135943032Y-115086678D02*
X135752556Y-114991440D01*
X135752556Y-114991440D02*
X135371603Y-114991440D01*
X135371603Y-114991440D02*
X135181127Y-115086678D01*
X133562079Y-115277155D02*
X133276365Y-115372393D01*
X133276365Y-115372393D02*
X133181127Y-115467631D01*
X133181127Y-115467631D02*
X133085889Y-115658107D01*
X133085889Y-115658107D02*
X133085889Y-115943821D01*
X133085889Y-115943821D02*
X133181127Y-116134297D01*
X133181127Y-116134297D02*
X133276365Y-116229536D01*
X133276365Y-116229536D02*
X133466841Y-116324774D01*
X133466841Y-116324774D02*
X134228746Y-116324774D01*
X134228746Y-116324774D02*
X134228746Y-114324774D01*
X134228746Y-114324774D02*
X133562079Y-114324774D01*
X133562079Y-114324774D02*
X133371603Y-114420012D01*
X133371603Y-114420012D02*
X133276365Y-114515250D01*
X133276365Y-114515250D02*
X133181127Y-114705726D01*
X133181127Y-114705726D02*
X133181127Y-114896202D01*
X133181127Y-114896202D02*
X133276365Y-115086678D01*
X133276365Y-115086678D02*
X133371603Y-115181916D01*
X133371603Y-115181916D02*
X133562079Y-115277155D01*
X133562079Y-115277155D02*
X134228746Y-115277155D01*
X130990650Y-114991440D02*
X130228746Y-114991440D01*
X130704936Y-116324774D02*
X130704936Y-114610488D01*
X130704936Y-114610488D02*
X130609698Y-114420012D01*
X130609698Y-114420012D02*
X130419222Y-114324774D01*
X130419222Y-114324774D02*
X130228746Y-114324774D01*
X129562079Y-116324774D02*
X129562079Y-114991440D01*
X129562079Y-114324774D02*
X129657317Y-114420012D01*
X129657317Y-114420012D02*
X129562079Y-114515250D01*
X129562079Y-114515250D02*
X129466841Y-114420012D01*
X129466841Y-114420012D02*
X129562079Y-114324774D01*
X129562079Y-114324774D02*
X129562079Y-114515250D01*
X128609698Y-114991440D02*
X128609698Y-116324774D01*
X128609698Y-115181916D02*
X128514460Y-115086678D01*
X128514460Y-115086678D02*
X128323984Y-114991440D01*
X128323984Y-114991440D02*
X128038269Y-114991440D01*
X128038269Y-114991440D02*
X127847793Y-115086678D01*
X127847793Y-115086678D02*
X127752555Y-115277155D01*
X127752555Y-115277155D02*
X127752555Y-116324774D01*
X126038269Y-116229536D02*
X126228745Y-116324774D01*
X126228745Y-116324774D02*
X126609698Y-116324774D01*
X126609698Y-116324774D02*
X126800174Y-116229536D01*
X126800174Y-116229536D02*
X126895412Y-116039059D01*
X126895412Y-116039059D02*
X126895412Y-115277155D01*
X126895412Y-115277155D02*
X126800174Y-115086678D01*
X126800174Y-115086678D02*
X126609698Y-114991440D01*
X126609698Y-114991440D02*
X126228745Y-114991440D01*
X126228745Y-114991440D02*
X126038269Y-115086678D01*
X126038269Y-115086678D02*
X125943031Y-115277155D01*
X125943031Y-115277155D02*
X125943031Y-115467631D01*
X125943031Y-115467631D02*
X126895412Y-115658107D01*
X123847792Y-114991440D02*
X123085888Y-114991440D01*
X123562078Y-114324774D02*
X123562078Y-116039059D01*
X123562078Y-116039059D02*
X123466840Y-116229536D01*
X123466840Y-116229536D02*
X123276364Y-116324774D01*
X123276364Y-116324774D02*
X123085888Y-116324774D01*
X121562078Y-114991440D02*
X121562078Y-116324774D01*
X122419221Y-114991440D02*
X122419221Y-116039059D01*
X122419221Y-116039059D02*
X122323983Y-116229536D01*
X122323983Y-116229536D02*
X122133507Y-116324774D01*
X122133507Y-116324774D02*
X121847792Y-116324774D01*
X121847792Y-116324774D02*
X121657316Y-116229536D01*
X121657316Y-116229536D02*
X121562078Y-116134297D01*
X120609697Y-114991440D02*
X120609697Y-116324774D01*
X120609697Y-115181916D02*
X120514459Y-115086678D01*
X120514459Y-115086678D02*
X120323983Y-114991440D01*
X120323983Y-114991440D02*
X120038268Y-114991440D01*
X120038268Y-114991440D02*
X119847792Y-115086678D01*
X119847792Y-115086678D02*
X119752554Y-115277155D01*
X119752554Y-115277155D02*
X119752554Y-116324774D01*
X118038268Y-116229536D02*
X118228744Y-116324774D01*
X118228744Y-116324774D02*
X118609697Y-116324774D01*
X118609697Y-116324774D02*
X118800173Y-116229536D01*
X118800173Y-116229536D02*
X118895411Y-116039059D01*
X118895411Y-116039059D02*
X118895411Y-115277155D01*
X118895411Y-115277155D02*
X118800173Y-115086678D01*
X118800173Y-115086678D02*
X118609697Y-114991440D01*
X118609697Y-114991440D02*
X118228744Y-114991440D01*
X118228744Y-114991440D02*
X118038268Y-115086678D01*
X118038268Y-115086678D02*
X117943030Y-115277155D01*
X117943030Y-115277155D02*
X117943030Y-115467631D01*
X117943030Y-115467631D02*
X118895411Y-115658107D01*
X152990652Y-118782757D02*
X151466843Y-118782757D01*
X152228747Y-119544662D02*
X152228747Y-118020852D01*
X149466843Y-119544662D02*
X150609700Y-119544662D01*
X150038272Y-119544662D02*
X150038272Y-117544662D01*
X150038272Y-117544662D02*
X150228748Y-117830376D01*
X150228748Y-117830376D02*
X150419224Y-118020852D01*
X150419224Y-118020852D02*
X150609700Y-118116090D01*
X148228748Y-117544662D02*
X148038271Y-117544662D01*
X148038271Y-117544662D02*
X147847795Y-117639900D01*
X147847795Y-117639900D02*
X147752557Y-117735138D01*
X147752557Y-117735138D02*
X147657319Y-117925614D01*
X147657319Y-117925614D02*
X147562081Y-118306566D01*
X147562081Y-118306566D02*
X147562081Y-118782757D01*
X147562081Y-118782757D02*
X147657319Y-119163709D01*
X147657319Y-119163709D02*
X147752557Y-119354185D01*
X147752557Y-119354185D02*
X147847795Y-119449424D01*
X147847795Y-119449424D02*
X148038271Y-119544662D01*
X148038271Y-119544662D02*
X148228748Y-119544662D01*
X148228748Y-119544662D02*
X148419224Y-119449424D01*
X148419224Y-119449424D02*
X148514462Y-119354185D01*
X148514462Y-119354185D02*
X148609700Y-119163709D01*
X148609700Y-119163709D02*
X148704938Y-118782757D01*
X148704938Y-118782757D02*
X148704938Y-118306566D01*
X148704938Y-118306566D02*
X148609700Y-117925614D01*
X148609700Y-117925614D02*
X148514462Y-117735138D01*
X148514462Y-117735138D02*
X148419224Y-117639900D01*
X148419224Y-117639900D02*
X148228748Y-117544662D01*
X145847795Y-119544662D02*
X145847795Y-117544662D01*
X145847795Y-119449424D02*
X146038271Y-119544662D01*
X146038271Y-119544662D02*
X146419224Y-119544662D01*
X146419224Y-119544662D02*
X146609700Y-119449424D01*
X146609700Y-119449424D02*
X146704938Y-119354185D01*
X146704938Y-119354185D02*
X146800176Y-119163709D01*
X146800176Y-119163709D02*
X146800176Y-118592281D01*
X146800176Y-118592281D02*
X146704938Y-118401804D01*
X146704938Y-118401804D02*
X146609700Y-118306566D01*
X146609700Y-118306566D02*
X146419224Y-118211328D01*
X146419224Y-118211328D02*
X146038271Y-118211328D01*
X146038271Y-118211328D02*
X145847795Y-118306566D01*
X144228747Y-118497043D02*
X143943033Y-118592281D01*
X143943033Y-118592281D02*
X143847795Y-118687519D01*
X143847795Y-118687519D02*
X143752557Y-118877995D01*
X143752557Y-118877995D02*
X143752557Y-119163709D01*
X143752557Y-119163709D02*
X143847795Y-119354185D01*
X143847795Y-119354185D02*
X143943033Y-119449424D01*
X143943033Y-119449424D02*
X144133509Y-119544662D01*
X144133509Y-119544662D02*
X144895414Y-119544662D01*
X144895414Y-119544662D02*
X144895414Y-117544662D01*
X144895414Y-117544662D02*
X144228747Y-117544662D01*
X144228747Y-117544662D02*
X144038271Y-117639900D01*
X144038271Y-117639900D02*
X143943033Y-117735138D01*
X143943033Y-117735138D02*
X143847795Y-117925614D01*
X143847795Y-117925614D02*
X143847795Y-118116090D01*
X143847795Y-118116090D02*
X143943033Y-118306566D01*
X143943033Y-118306566D02*
X144038271Y-118401804D01*
X144038271Y-118401804D02*
X144228747Y-118497043D01*
X144228747Y-118497043D02*
X144895414Y-118497043D01*
X142895414Y-119544662D02*
X142895414Y-118211328D01*
X142895414Y-118401804D02*
X142800176Y-118306566D01*
X142800176Y-118306566D02*
X142609700Y-118211328D01*
X142609700Y-118211328D02*
X142323985Y-118211328D01*
X142323985Y-118211328D02*
X142133509Y-118306566D01*
X142133509Y-118306566D02*
X142038271Y-118497043D01*
X142038271Y-118497043D02*
X142038271Y-119544662D01*
X142038271Y-118497043D02*
X141943033Y-118306566D01*
X141943033Y-118306566D02*
X141752557Y-118211328D01*
X141752557Y-118211328D02*
X141466843Y-118211328D01*
X141466843Y-118211328D02*
X141276366Y-118306566D01*
X141276366Y-118306566D02*
X141181128Y-118497043D01*
X141181128Y-118497043D02*
X141181128Y-119544662D01*
X138800175Y-119449424D02*
X138609699Y-119544662D01*
X138609699Y-119544662D02*
X138228747Y-119544662D01*
X138228747Y-119544662D02*
X138038270Y-119449424D01*
X138038270Y-119449424D02*
X137943032Y-119258947D01*
X137943032Y-119258947D02*
X137943032Y-119163709D01*
X137943032Y-119163709D02*
X138038270Y-118973233D01*
X138038270Y-118973233D02*
X138228747Y-118877995D01*
X138228747Y-118877995D02*
X138514461Y-118877995D01*
X138514461Y-118877995D02*
X138704937Y-118782757D01*
X138704937Y-118782757D02*
X138800175Y-118592281D01*
X138800175Y-118592281D02*
X138800175Y-118497043D01*
X138800175Y-118497043D02*
X138704937Y-118306566D01*
X138704937Y-118306566D02*
X138514461Y-118211328D01*
X138514461Y-118211328D02*
X138228747Y-118211328D01*
X138228747Y-118211328D02*
X138038270Y-118306566D01*
X136228746Y-119544662D02*
X136228746Y-118497043D01*
X136228746Y-118497043D02*
X136323984Y-118306566D01*
X136323984Y-118306566D02*
X136514460Y-118211328D01*
X136514460Y-118211328D02*
X136895413Y-118211328D01*
X136895413Y-118211328D02*
X137085889Y-118306566D01*
X136228746Y-119449424D02*
X136419222Y-119544662D01*
X136419222Y-119544662D02*
X136895413Y-119544662D01*
X136895413Y-119544662D02*
X137085889Y-119449424D01*
X137085889Y-119449424D02*
X137181127Y-119258947D01*
X137181127Y-119258947D02*
X137181127Y-119068471D01*
X137181127Y-119068471D02*
X137085889Y-118877995D01*
X137085889Y-118877995D02*
X136895413Y-118782757D01*
X136895413Y-118782757D02*
X136419222Y-118782757D01*
X136419222Y-118782757D02*
X136228746Y-118687519D01*
X135562079Y-118211328D02*
X134800175Y-118211328D01*
X135276365Y-119544662D02*
X135276365Y-117830376D01*
X135276365Y-117830376D02*
X135181127Y-117639900D01*
X135181127Y-117639900D02*
X134990651Y-117544662D01*
X134990651Y-117544662D02*
X134800175Y-117544662D01*
X133371603Y-119449424D02*
X133562079Y-119544662D01*
X133562079Y-119544662D02*
X133943032Y-119544662D01*
X133943032Y-119544662D02*
X134133508Y-119449424D01*
X134133508Y-119449424D02*
X134228746Y-119258947D01*
X134228746Y-119258947D02*
X134228746Y-118497043D01*
X134228746Y-118497043D02*
X134133508Y-118306566D01*
X134133508Y-118306566D02*
X133943032Y-118211328D01*
X133943032Y-118211328D02*
X133562079Y-118211328D01*
X133562079Y-118211328D02*
X133371603Y-118306566D01*
X133371603Y-118306566D02*
X133276365Y-118497043D01*
X133276365Y-118497043D02*
X133276365Y-118687519D01*
X133276365Y-118687519D02*
X134228746Y-118877995D01*
X132419222Y-119544662D02*
X132419222Y-118211328D01*
X132419222Y-118592281D02*
X132323984Y-118401804D01*
X132323984Y-118401804D02*
X132228746Y-118306566D01*
X132228746Y-118306566D02*
X132038270Y-118211328D01*
X132038270Y-118211328D02*
X131847793Y-118211328D01*
X129943031Y-118211328D02*
X129181127Y-118211328D01*
X129657317Y-119544662D02*
X129657317Y-117830376D01*
X129657317Y-117830376D02*
X129562079Y-117639900D01*
X129562079Y-117639900D02*
X129371603Y-117544662D01*
X129371603Y-117544662D02*
X129181127Y-117544662D01*
X128228746Y-119544662D02*
X128419222Y-119449424D01*
X128419222Y-119449424D02*
X128514460Y-119354185D01*
X128514460Y-119354185D02*
X128609698Y-119163709D01*
X128609698Y-119163709D02*
X128609698Y-118592281D01*
X128609698Y-118592281D02*
X128514460Y-118401804D01*
X128514460Y-118401804D02*
X128419222Y-118306566D01*
X128419222Y-118306566D02*
X128228746Y-118211328D01*
X128228746Y-118211328D02*
X127943031Y-118211328D01*
X127943031Y-118211328D02*
X127752555Y-118306566D01*
X127752555Y-118306566D02*
X127657317Y-118401804D01*
X127657317Y-118401804D02*
X127562079Y-118592281D01*
X127562079Y-118592281D02*
X127562079Y-119163709D01*
X127562079Y-119163709D02*
X127657317Y-119354185D01*
X127657317Y-119354185D02*
X127752555Y-119449424D01*
X127752555Y-119449424D02*
X127943031Y-119544662D01*
X127943031Y-119544662D02*
X128228746Y-119544662D01*
X126704936Y-119544662D02*
X126704936Y-118211328D01*
X126704936Y-118592281D02*
X126609698Y-118401804D01*
X126609698Y-118401804D02*
X126514460Y-118306566D01*
X126514460Y-118306566D02*
X126323984Y-118211328D01*
X126323984Y-118211328D02*
X126133507Y-118211328D01*
X124038269Y-119449424D02*
X123752555Y-119544662D01*
X123752555Y-119544662D02*
X123276364Y-119544662D01*
X123276364Y-119544662D02*
X123085888Y-119449424D01*
X123085888Y-119449424D02*
X122990650Y-119354185D01*
X122990650Y-119354185D02*
X122895412Y-119163709D01*
X122895412Y-119163709D02*
X122895412Y-118973233D01*
X122895412Y-118973233D02*
X122990650Y-118782757D01*
X122990650Y-118782757D02*
X123085888Y-118687519D01*
X123085888Y-118687519D02*
X123276364Y-118592281D01*
X123276364Y-118592281D02*
X123657317Y-118497043D01*
X123657317Y-118497043D02*
X123847793Y-118401804D01*
X123847793Y-118401804D02*
X123943031Y-118306566D01*
X123943031Y-118306566D02*
X124038269Y-118116090D01*
X124038269Y-118116090D02*
X124038269Y-117925614D01*
X124038269Y-117925614D02*
X123943031Y-117735138D01*
X123943031Y-117735138D02*
X123847793Y-117639900D01*
X123847793Y-117639900D02*
X123657317Y-117544662D01*
X123657317Y-117544662D02*
X123181126Y-117544662D01*
X123181126Y-117544662D02*
X122895412Y-117639900D01*
X122133507Y-118973233D02*
X121181126Y-118973233D01*
X122323983Y-119544662D02*
X121657317Y-117544662D01*
X121657317Y-117544662D02*
X120990650Y-119544662D01*
X153181128Y-121431216D02*
X152133509Y-121431216D01*
X152133509Y-121431216D02*
X153181128Y-122764550D01*
X153181128Y-122764550D02*
X152133509Y-122764550D01*
X151562080Y-122764550D02*
X150514461Y-121431216D01*
X151562080Y-121431216D02*
X150514461Y-122764550D01*
X149752556Y-122764550D02*
X149752556Y-120764550D01*
X149562080Y-122002645D02*
X148990651Y-122764550D01*
X148990651Y-121431216D02*
X149752556Y-122193121D01*
X148133508Y-122764550D02*
X148133508Y-121431216D01*
X148133508Y-121621692D02*
X148038270Y-121526454D01*
X148038270Y-121526454D02*
X147847794Y-121431216D01*
X147847794Y-121431216D02*
X147562079Y-121431216D01*
X147562079Y-121431216D02*
X147371603Y-121526454D01*
X147371603Y-121526454D02*
X147276365Y-121716931D01*
X147276365Y-121716931D02*
X147276365Y-122764550D01*
X147276365Y-121716931D02*
X147181127Y-121526454D01*
X147181127Y-121526454D02*
X146990651Y-121431216D01*
X146990651Y-121431216D02*
X146704937Y-121431216D01*
X146704937Y-121431216D02*
X146514460Y-121526454D01*
X146514460Y-121526454D02*
X146419222Y-121716931D01*
X146419222Y-121716931D02*
X146419222Y-122764550D01*
X145466841Y-122764550D02*
X145466841Y-121431216D01*
X145466841Y-121621692D02*
X145371603Y-121526454D01*
X145371603Y-121526454D02*
X145181127Y-121431216D01*
X145181127Y-121431216D02*
X144895412Y-121431216D01*
X144895412Y-121431216D02*
X144704936Y-121526454D01*
X144704936Y-121526454D02*
X144609698Y-121716931D01*
X144609698Y-121716931D02*
X144609698Y-122764550D01*
X144609698Y-121716931D02*
X144514460Y-121526454D01*
X144514460Y-121526454D02*
X144323984Y-121431216D01*
X144323984Y-121431216D02*
X144038270Y-121431216D01*
X144038270Y-121431216D02*
X143847793Y-121526454D01*
X143847793Y-121526454D02*
X143752555Y-121716931D01*
X143752555Y-121716931D02*
X143752555Y-122764550D01*
X142800174Y-122574073D02*
X142704936Y-122669312D01*
X142704936Y-122669312D02*
X142800174Y-122764550D01*
X142800174Y-122764550D02*
X142895412Y-122669312D01*
X142895412Y-122669312D02*
X142800174Y-122574073D01*
X142800174Y-122574073D02*
X142800174Y-122764550D01*
X140990650Y-122669312D02*
X141181126Y-122764550D01*
X141181126Y-122764550D02*
X141562079Y-122764550D01*
X141562079Y-122764550D02*
X141752555Y-122669312D01*
X141752555Y-122669312D02*
X141847793Y-122574073D01*
X141847793Y-122574073D02*
X141943031Y-122383597D01*
X141943031Y-122383597D02*
X141943031Y-121812169D01*
X141943031Y-121812169D02*
X141847793Y-121621692D01*
X141847793Y-121621692D02*
X141752555Y-121526454D01*
X141752555Y-121526454D02*
X141562079Y-121431216D01*
X141562079Y-121431216D02*
X141181126Y-121431216D01*
X141181126Y-121431216D02*
X140990650Y-121526454D01*
X139847793Y-122764550D02*
X140038269Y-122669312D01*
X140038269Y-122669312D02*
X140133507Y-122574073D01*
X140133507Y-122574073D02*
X140228745Y-122383597D01*
X140228745Y-122383597D02*
X140228745Y-121812169D01*
X140228745Y-121812169D02*
X140133507Y-121621692D01*
X140133507Y-121621692D02*
X140038269Y-121526454D01*
X140038269Y-121526454D02*
X139847793Y-121431216D01*
X139847793Y-121431216D02*
X139562078Y-121431216D01*
X139562078Y-121431216D02*
X139371602Y-121526454D01*
X139371602Y-121526454D02*
X139276364Y-121621692D01*
X139276364Y-121621692D02*
X139181126Y-121812169D01*
X139181126Y-121812169D02*
X139181126Y-122383597D01*
X139181126Y-122383597D02*
X139276364Y-122574073D01*
X139276364Y-122574073D02*
X139371602Y-122669312D01*
X139371602Y-122669312D02*
X139562078Y-122764550D01*
X139562078Y-122764550D02*
X139847793Y-122764550D01*
X138323983Y-122764550D02*
X138323983Y-121431216D01*
X138323983Y-121621692D02*
X138228745Y-121526454D01*
X138228745Y-121526454D02*
X138038269Y-121431216D01*
X138038269Y-121431216D02*
X137752554Y-121431216D01*
X137752554Y-121431216D02*
X137562078Y-121526454D01*
X137562078Y-121526454D02*
X137466840Y-121716931D01*
X137466840Y-121716931D02*
X137466840Y-122764550D01*
X137466840Y-121716931D02*
X137371602Y-121526454D01*
X137371602Y-121526454D02*
X137181126Y-121431216D01*
X137181126Y-121431216D02*
X136895412Y-121431216D01*
X136895412Y-121431216D02*
X136704935Y-121526454D01*
X136704935Y-121526454D02*
X136609697Y-121716931D01*
X136609697Y-121716931D02*
X136609697Y-122764550D01*
X152419223Y-123984438D02*
X152419223Y-125413009D01*
X152419223Y-125413009D02*
X152514462Y-125698723D01*
X152514462Y-125698723D02*
X152704938Y-125889200D01*
X152704938Y-125889200D02*
X152990652Y-125984438D01*
X152990652Y-125984438D02*
X153181128Y-125984438D01*
X150514461Y-125984438D02*
X151466842Y-125984438D01*
X151466842Y-125984438D02*
X151466842Y-123984438D01*
X148704937Y-125793961D02*
X148800175Y-125889200D01*
X148800175Y-125889200D02*
X149085889Y-125984438D01*
X149085889Y-125984438D02*
X149276365Y-125984438D01*
X149276365Y-125984438D02*
X149562080Y-125889200D01*
X149562080Y-125889200D02*
X149752556Y-125698723D01*
X149752556Y-125698723D02*
X149847794Y-125508247D01*
X149847794Y-125508247D02*
X149943032Y-125127295D01*
X149943032Y-125127295D02*
X149943032Y-124841580D01*
X149943032Y-124841580D02*
X149847794Y-124460628D01*
X149847794Y-124460628D02*
X149752556Y-124270152D01*
X149752556Y-124270152D02*
X149562080Y-124079676D01*
X149562080Y-124079676D02*
X149276365Y-123984438D01*
X149276365Y-123984438D02*
X149085889Y-123984438D01*
X149085889Y-123984438D02*
X148800175Y-124079676D01*
X148800175Y-124079676D02*
X148704937Y-124174914D01*
X147276365Y-123984438D02*
X147276365Y-125413009D01*
X147276365Y-125413009D02*
X147371604Y-125698723D01*
X147371604Y-125698723D02*
X147562080Y-125889200D01*
X147562080Y-125889200D02*
X147847794Y-125984438D01*
X147847794Y-125984438D02*
X148038270Y-125984438D01*
X145371603Y-125984438D02*
X146323984Y-125984438D01*
X146323984Y-125984438D02*
X146323984Y-123984438D01*
X143562079Y-125793961D02*
X143657317Y-125889200D01*
X143657317Y-125889200D02*
X143943031Y-125984438D01*
X143943031Y-125984438D02*
X144133507Y-125984438D01*
X144133507Y-125984438D02*
X144419222Y-125889200D01*
X144419222Y-125889200D02*
X144609698Y-125698723D01*
X144609698Y-125698723D02*
X144704936Y-125508247D01*
X144704936Y-125508247D02*
X144800174Y-125127295D01*
X144800174Y-125127295D02*
X144800174Y-124841580D01*
X144800174Y-124841580D02*
X144704936Y-124460628D01*
X144704936Y-124460628D02*
X144609698Y-124270152D01*
X144609698Y-124270152D02*
X144419222Y-124079676D01*
X144419222Y-124079676D02*
X144133507Y-123984438D01*
X144133507Y-123984438D02*
X143943031Y-123984438D01*
X143943031Y-123984438D02*
X143657317Y-124079676D01*
X143657317Y-124079676D02*
X143562079Y-124174914D01*
X142133507Y-123984438D02*
X142133507Y-125413009D01*
X142133507Y-125413009D02*
X142228746Y-125698723D01*
X142228746Y-125698723D02*
X142419222Y-125889200D01*
X142419222Y-125889200D02*
X142704936Y-125984438D01*
X142704936Y-125984438D02*
X142895412Y-125984438D01*
X140228745Y-125984438D02*
X141181126Y-125984438D01*
X141181126Y-125984438D02*
X141181126Y-123984438D01*
X138419221Y-125793961D02*
X138514459Y-125889200D01*
X138514459Y-125889200D02*
X138800173Y-125984438D01*
X138800173Y-125984438D02*
X138990649Y-125984438D01*
X138990649Y-125984438D02*
X139276364Y-125889200D01*
X139276364Y-125889200D02*
X139466840Y-125698723D01*
X139466840Y-125698723D02*
X139562078Y-125508247D01*
X139562078Y-125508247D02*
X139657316Y-125127295D01*
X139657316Y-125127295D02*
X139657316Y-124841580D01*
X139657316Y-124841580D02*
X139562078Y-124460628D01*
X139562078Y-124460628D02*
X139466840Y-124270152D01*
X139466840Y-124270152D02*
X139276364Y-124079676D01*
X139276364Y-124079676D02*
X138990649Y-123984438D01*
X138990649Y-123984438D02*
X138800173Y-123984438D01*
X138800173Y-123984438D02*
X138514459Y-124079676D01*
X138514459Y-124079676D02*
X138419221Y-124174914D01*
X136990649Y-123984438D02*
X136990649Y-125413009D01*
X136990649Y-125413009D02*
X137085888Y-125698723D01*
X137085888Y-125698723D02*
X137276364Y-125889200D01*
X137276364Y-125889200D02*
X137562078Y-125984438D01*
X137562078Y-125984438D02*
X137752554Y-125984438D01*
X135085887Y-125984438D02*
X136038268Y-125984438D01*
X136038268Y-125984438D02*
X136038268Y-123984438D01*
X133276363Y-125793961D02*
X133371601Y-125889200D01*
X133371601Y-125889200D02*
X133657315Y-125984438D01*
X133657315Y-125984438D02*
X133847791Y-125984438D01*
X133847791Y-125984438D02*
X134133506Y-125889200D01*
X134133506Y-125889200D02*
X134323982Y-125698723D01*
X134323982Y-125698723D02*
X134419220Y-125508247D01*
X134419220Y-125508247D02*
X134514458Y-125127295D01*
X134514458Y-125127295D02*
X134514458Y-124841580D01*
X134514458Y-124841580D02*
X134419220Y-124460628D01*
X134419220Y-124460628D02*
X134323982Y-124270152D01*
X134323982Y-124270152D02*
X134133506Y-124079676D01*
X134133506Y-124079676D02*
X133847791Y-123984438D01*
X133847791Y-123984438D02*
X133657315Y-123984438D01*
X133657315Y-123984438D02*
X133371601Y-124079676D01*
X133371601Y-124079676D02*
X133276363Y-124174914D01*
D11*
X108244819Y-52886666D02*
X108959104Y-52886666D01*
X108959104Y-52886666D02*
X109101961Y-52839047D01*
X109101961Y-52839047D02*
X109197200Y-52743809D01*
X109197200Y-52743809D02*
X109244819Y-52600952D01*
X109244819Y-52600952D02*
X109244819Y-52505714D01*
X108578152Y-53791428D02*
X109244819Y-53791428D01*
X108197200Y-53553333D02*
X108911485Y-53315238D01*
X108911485Y-53315238D02*
X108911485Y-53934285D01*
X168324819Y-148704166D02*
X169039104Y-148704166D01*
X169039104Y-148704166D02*
X169181961Y-148656547D01*
X169181961Y-148656547D02*
X169277200Y-148561309D01*
X169277200Y-148561309D02*
X169324819Y-148418452D01*
X169324819Y-148418452D02*
X169324819Y-148323214D01*
X168753390Y-149323214D02*
X168705771Y-149227976D01*
X168705771Y-149227976D02*
X168658152Y-149180357D01*
X168658152Y-149180357D02*
X168562914Y-149132738D01*
X168562914Y-149132738D02*
X168515295Y-149132738D01*
X168515295Y-149132738D02*
X168420057Y-149180357D01*
X168420057Y-149180357D02*
X168372438Y-149227976D01*
X168372438Y-149227976D02*
X168324819Y-149323214D01*
X168324819Y-149323214D02*
X168324819Y-149513690D01*
X168324819Y-149513690D02*
X168372438Y-149608928D01*
X168372438Y-149608928D02*
X168420057Y-149656547D01*
X168420057Y-149656547D02*
X168515295Y-149704166D01*
X168515295Y-149704166D02*
X168562914Y-149704166D01*
X168562914Y-149704166D02*
X168658152Y-149656547D01*
X168658152Y-149656547D02*
X168705771Y-149608928D01*
X168705771Y-149608928D02*
X168753390Y-149513690D01*
X168753390Y-149513690D02*
X168753390Y-149323214D01*
X168753390Y-149323214D02*
X168801009Y-149227976D01*
X168801009Y-149227976D02*
X168848628Y-149180357D01*
X168848628Y-149180357D02*
X168943866Y-149132738D01*
X168943866Y-149132738D02*
X169134342Y-149132738D01*
X169134342Y-149132738D02*
X169229580Y-149180357D01*
X169229580Y-149180357D02*
X169277200Y-149227976D01*
X169277200Y-149227976D02*
X169324819Y-149323214D01*
X169324819Y-149323214D02*
X169324819Y-149513690D01*
X169324819Y-149513690D02*
X169277200Y-149608928D01*
X169277200Y-149608928D02*
X169229580Y-149656547D01*
X169229580Y-149656547D02*
X169134342Y-149704166D01*
X169134342Y-149704166D02*
X168943866Y-149704166D01*
X168943866Y-149704166D02*
X168848628Y-149656547D01*
X168848628Y-149656547D02*
X168801009Y-149608928D01*
X168801009Y-149608928D02*
X168753390Y-149513690D01*
X141652857Y-71404819D02*
X141986190Y-70928628D01*
X142224285Y-71404819D02*
X142224285Y-70404819D01*
X142224285Y-70404819D02*
X141843333Y-70404819D01*
X141843333Y-70404819D02*
X141748095Y-70452438D01*
X141748095Y-70452438D02*
X141700476Y-70500057D01*
X141700476Y-70500057D02*
X141652857Y-70595295D01*
X141652857Y-70595295D02*
X141652857Y-70738152D01*
X141652857Y-70738152D02*
X141700476Y-70833390D01*
X141700476Y-70833390D02*
X141748095Y-70881009D01*
X141748095Y-70881009D02*
X141843333Y-70928628D01*
X141843333Y-70928628D02*
X142224285Y-70928628D01*
X141319523Y-70404819D02*
X140700476Y-70404819D01*
X140700476Y-70404819D02*
X141033809Y-70785771D01*
X141033809Y-70785771D02*
X140890952Y-70785771D01*
X140890952Y-70785771D02*
X140795714Y-70833390D01*
X140795714Y-70833390D02*
X140748095Y-70881009D01*
X140748095Y-70881009D02*
X140700476Y-70976247D01*
X140700476Y-70976247D02*
X140700476Y-71214342D01*
X140700476Y-71214342D02*
X140748095Y-71309580D01*
X140748095Y-71309580D02*
X140795714Y-71357200D01*
X140795714Y-71357200D02*
X140890952Y-71404819D01*
X140890952Y-71404819D02*
X141176666Y-71404819D01*
X141176666Y-71404819D02*
X141271904Y-71357200D01*
X141271904Y-71357200D02*
X141319523Y-71309580D01*
X140367142Y-70404819D02*
X139700476Y-70404819D01*
X139700476Y-70404819D02*
X140129047Y-71404819D01*
X137287857Y-77064819D02*
X137621190Y-76588628D01*
X137859285Y-77064819D02*
X137859285Y-76064819D01*
X137859285Y-76064819D02*
X137478333Y-76064819D01*
X137478333Y-76064819D02*
X137383095Y-76112438D01*
X137383095Y-76112438D02*
X137335476Y-76160057D01*
X137335476Y-76160057D02*
X137287857Y-76255295D01*
X137287857Y-76255295D02*
X137287857Y-76398152D01*
X137287857Y-76398152D02*
X137335476Y-76493390D01*
X137335476Y-76493390D02*
X137383095Y-76541009D01*
X137383095Y-76541009D02*
X137478333Y-76588628D01*
X137478333Y-76588628D02*
X137859285Y-76588628D01*
X136335476Y-77064819D02*
X136906904Y-77064819D01*
X136621190Y-77064819D02*
X136621190Y-76064819D01*
X136621190Y-76064819D02*
X136716428Y-76207676D01*
X136716428Y-76207676D02*
X136811666Y-76302914D01*
X136811666Y-76302914D02*
X136906904Y-76350533D01*
X136002142Y-76064819D02*
X135335476Y-76064819D01*
X135335476Y-76064819D02*
X135764047Y-77064819D01*
X133374819Y-76897142D02*
X132898628Y-76563809D01*
X133374819Y-76325714D02*
X132374819Y-76325714D01*
X132374819Y-76325714D02*
X132374819Y-76706666D01*
X132374819Y-76706666D02*
X132422438Y-76801904D01*
X132422438Y-76801904D02*
X132470057Y-76849523D01*
X132470057Y-76849523D02*
X132565295Y-76897142D01*
X132565295Y-76897142D02*
X132708152Y-76897142D01*
X132708152Y-76897142D02*
X132803390Y-76849523D01*
X132803390Y-76849523D02*
X132851009Y-76801904D01*
X132851009Y-76801904D02*
X132898628Y-76706666D01*
X132898628Y-76706666D02*
X132898628Y-76325714D01*
X133374819Y-77849523D02*
X133374819Y-77278095D01*
X133374819Y-77563809D02*
X132374819Y-77563809D01*
X132374819Y-77563809D02*
X132517676Y-77468571D01*
X132517676Y-77468571D02*
X132612914Y-77373333D01*
X132612914Y-77373333D02*
X132660533Y-77278095D01*
X132470057Y-78230476D02*
X132422438Y-78278095D01*
X132422438Y-78278095D02*
X132374819Y-78373333D01*
X132374819Y-78373333D02*
X132374819Y-78611428D01*
X132374819Y-78611428D02*
X132422438Y-78706666D01*
X132422438Y-78706666D02*
X132470057Y-78754285D01*
X132470057Y-78754285D02*
X132565295Y-78801904D01*
X132565295Y-78801904D02*
X132660533Y-78801904D01*
X132660533Y-78801904D02*
X132803390Y-78754285D01*
X132803390Y-78754285D02*
X133374819Y-78182857D01*
X133374819Y-78182857D02*
X133374819Y-78801904D01*
X137804819Y-72187142D02*
X137328628Y-71853809D01*
X137804819Y-71615714D02*
X136804819Y-71615714D01*
X136804819Y-71615714D02*
X136804819Y-71996666D01*
X136804819Y-71996666D02*
X136852438Y-72091904D01*
X136852438Y-72091904D02*
X136900057Y-72139523D01*
X136900057Y-72139523D02*
X136995295Y-72187142D01*
X136995295Y-72187142D02*
X137138152Y-72187142D01*
X137138152Y-72187142D02*
X137233390Y-72139523D01*
X137233390Y-72139523D02*
X137281009Y-72091904D01*
X137281009Y-72091904D02*
X137328628Y-71996666D01*
X137328628Y-71996666D02*
X137328628Y-71615714D01*
X136900057Y-72568095D02*
X136852438Y-72615714D01*
X136852438Y-72615714D02*
X136804819Y-72710952D01*
X136804819Y-72710952D02*
X136804819Y-72949047D01*
X136804819Y-72949047D02*
X136852438Y-73044285D01*
X136852438Y-73044285D02*
X136900057Y-73091904D01*
X136900057Y-73091904D02*
X136995295Y-73139523D01*
X136995295Y-73139523D02*
X137090533Y-73139523D01*
X137090533Y-73139523D02*
X137233390Y-73091904D01*
X137233390Y-73091904D02*
X137804819Y-72520476D01*
X137804819Y-72520476D02*
X137804819Y-73139523D01*
X136804819Y-74044285D02*
X136804819Y-73568095D01*
X136804819Y-73568095D02*
X137281009Y-73520476D01*
X137281009Y-73520476D02*
X137233390Y-73568095D01*
X137233390Y-73568095D02*
X137185771Y-73663333D01*
X137185771Y-73663333D02*
X137185771Y-73901428D01*
X137185771Y-73901428D02*
X137233390Y-73996666D01*
X137233390Y-73996666D02*
X137281009Y-74044285D01*
X137281009Y-74044285D02*
X137376247Y-74091904D01*
X137376247Y-74091904D02*
X137614342Y-74091904D01*
X137614342Y-74091904D02*
X137709580Y-74044285D01*
X137709580Y-74044285D02*
X137757200Y-73996666D01*
X137757200Y-73996666D02*
X137804819Y-73901428D01*
X137804819Y-73901428D02*
X137804819Y-73663333D01*
X137804819Y-73663333D02*
X137757200Y-73568095D01*
X137757200Y-73568095D02*
X137709580Y-73520476D01*
X133294819Y-73023333D02*
X132818628Y-72690000D01*
X133294819Y-72451905D02*
X132294819Y-72451905D01*
X132294819Y-72451905D02*
X132294819Y-72832857D01*
X132294819Y-72832857D02*
X132342438Y-72928095D01*
X132342438Y-72928095D02*
X132390057Y-72975714D01*
X132390057Y-72975714D02*
X132485295Y-73023333D01*
X132485295Y-73023333D02*
X132628152Y-73023333D01*
X132628152Y-73023333D02*
X132723390Y-72975714D01*
X132723390Y-72975714D02*
X132771009Y-72928095D01*
X132771009Y-72928095D02*
X132818628Y-72832857D01*
X132818628Y-72832857D02*
X132818628Y-72451905D01*
X132723390Y-73594762D02*
X132675771Y-73499524D01*
X132675771Y-73499524D02*
X132628152Y-73451905D01*
X132628152Y-73451905D02*
X132532914Y-73404286D01*
X132532914Y-73404286D02*
X132485295Y-73404286D01*
X132485295Y-73404286D02*
X132390057Y-73451905D01*
X132390057Y-73451905D02*
X132342438Y-73499524D01*
X132342438Y-73499524D02*
X132294819Y-73594762D01*
X132294819Y-73594762D02*
X132294819Y-73785238D01*
X132294819Y-73785238D02*
X132342438Y-73880476D01*
X132342438Y-73880476D02*
X132390057Y-73928095D01*
X132390057Y-73928095D02*
X132485295Y-73975714D01*
X132485295Y-73975714D02*
X132532914Y-73975714D01*
X132532914Y-73975714D02*
X132628152Y-73928095D01*
X132628152Y-73928095D02*
X132675771Y-73880476D01*
X132675771Y-73880476D02*
X132723390Y-73785238D01*
X132723390Y-73785238D02*
X132723390Y-73594762D01*
X132723390Y-73594762D02*
X132771009Y-73499524D01*
X132771009Y-73499524D02*
X132818628Y-73451905D01*
X132818628Y-73451905D02*
X132913866Y-73404286D01*
X132913866Y-73404286D02*
X133104342Y-73404286D01*
X133104342Y-73404286D02*
X133199580Y-73451905D01*
X133199580Y-73451905D02*
X133247200Y-73499524D01*
X133247200Y-73499524D02*
X133294819Y-73594762D01*
X133294819Y-73594762D02*
X133294819Y-73785238D01*
X133294819Y-73785238D02*
X133247200Y-73880476D01*
X133247200Y-73880476D02*
X133199580Y-73928095D01*
X133199580Y-73928095D02*
X133104342Y-73975714D01*
X133104342Y-73975714D02*
X132913866Y-73975714D01*
X132913866Y-73975714D02*
X132818628Y-73928095D01*
X132818628Y-73928095D02*
X132771009Y-73880476D01*
X132771009Y-73880476D02*
X132723390Y-73785238D01*
X142224819Y-72327142D02*
X141748628Y-71993809D01*
X142224819Y-71755714D02*
X141224819Y-71755714D01*
X141224819Y-71755714D02*
X141224819Y-72136666D01*
X141224819Y-72136666D02*
X141272438Y-72231904D01*
X141272438Y-72231904D02*
X141320057Y-72279523D01*
X141320057Y-72279523D02*
X141415295Y-72327142D01*
X141415295Y-72327142D02*
X141558152Y-72327142D01*
X141558152Y-72327142D02*
X141653390Y-72279523D01*
X141653390Y-72279523D02*
X141701009Y-72231904D01*
X141701009Y-72231904D02*
X141748628Y-72136666D01*
X141748628Y-72136666D02*
X141748628Y-71755714D01*
X141558152Y-73184285D02*
X142224819Y-73184285D01*
X141177200Y-72946190D02*
X141891485Y-72708095D01*
X141891485Y-72708095D02*
X141891485Y-73327142D01*
X141224819Y-73612857D02*
X141224819Y-74279523D01*
X141224819Y-74279523D02*
X142224819Y-73850952D01*
X178484819Y-52819166D02*
X179199104Y-52819166D01*
X179199104Y-52819166D02*
X179341961Y-52771547D01*
X179341961Y-52771547D02*
X179437200Y-52676309D01*
X179437200Y-52676309D02*
X179484819Y-52533452D01*
X179484819Y-52533452D02*
X179484819Y-52438214D01*
X178484819Y-53771547D02*
X178484819Y-53295357D01*
X178484819Y-53295357D02*
X178961009Y-53247738D01*
X178961009Y-53247738D02*
X178913390Y-53295357D01*
X178913390Y-53295357D02*
X178865771Y-53390595D01*
X178865771Y-53390595D02*
X178865771Y-53628690D01*
X178865771Y-53628690D02*
X178913390Y-53723928D01*
X178913390Y-53723928D02*
X178961009Y-53771547D01*
X178961009Y-53771547D02*
X179056247Y-53819166D01*
X179056247Y-53819166D02*
X179294342Y-53819166D01*
X179294342Y-53819166D02*
X179389580Y-53771547D01*
X179389580Y-53771547D02*
X179437200Y-53723928D01*
X179437200Y-53723928D02*
X179484819Y-53628690D01*
X179484819Y-53628690D02*
X179484819Y-53390595D01*
X179484819Y-53390595D02*
X179437200Y-53295357D01*
X179437200Y-53295357D02*
X179389580Y-53247738D01*
X140914819Y-76837142D02*
X140438628Y-76503809D01*
X140914819Y-76265714D02*
X139914819Y-76265714D01*
X139914819Y-76265714D02*
X139914819Y-76646666D01*
X139914819Y-76646666D02*
X139962438Y-76741904D01*
X139962438Y-76741904D02*
X140010057Y-76789523D01*
X140010057Y-76789523D02*
X140105295Y-76837142D01*
X140105295Y-76837142D02*
X140248152Y-76837142D01*
X140248152Y-76837142D02*
X140343390Y-76789523D01*
X140343390Y-76789523D02*
X140391009Y-76741904D01*
X140391009Y-76741904D02*
X140438628Y-76646666D01*
X140438628Y-76646666D02*
X140438628Y-76265714D01*
X140010057Y-77218095D02*
X139962438Y-77265714D01*
X139962438Y-77265714D02*
X139914819Y-77360952D01*
X139914819Y-77360952D02*
X139914819Y-77599047D01*
X139914819Y-77599047D02*
X139962438Y-77694285D01*
X139962438Y-77694285D02*
X140010057Y-77741904D01*
X140010057Y-77741904D02*
X140105295Y-77789523D01*
X140105295Y-77789523D02*
X140200533Y-77789523D01*
X140200533Y-77789523D02*
X140343390Y-77741904D01*
X140343390Y-77741904D02*
X140914819Y-77170476D01*
X140914819Y-77170476D02*
X140914819Y-77789523D01*
X140343390Y-78360952D02*
X140295771Y-78265714D01*
X140295771Y-78265714D02*
X140248152Y-78218095D01*
X140248152Y-78218095D02*
X140152914Y-78170476D01*
X140152914Y-78170476D02*
X140105295Y-78170476D01*
X140105295Y-78170476D02*
X140010057Y-78218095D01*
X140010057Y-78218095D02*
X139962438Y-78265714D01*
X139962438Y-78265714D02*
X139914819Y-78360952D01*
X139914819Y-78360952D02*
X139914819Y-78551428D01*
X139914819Y-78551428D02*
X139962438Y-78646666D01*
X139962438Y-78646666D02*
X140010057Y-78694285D01*
X140010057Y-78694285D02*
X140105295Y-78741904D01*
X140105295Y-78741904D02*
X140152914Y-78741904D01*
X140152914Y-78741904D02*
X140248152Y-78694285D01*
X140248152Y-78694285D02*
X140295771Y-78646666D01*
X140295771Y-78646666D02*
X140343390Y-78551428D01*
X140343390Y-78551428D02*
X140343390Y-78360952D01*
X140343390Y-78360952D02*
X140391009Y-78265714D01*
X140391009Y-78265714D02*
X140438628Y-78218095D01*
X140438628Y-78218095D02*
X140533866Y-78170476D01*
X140533866Y-78170476D02*
X140724342Y-78170476D01*
X140724342Y-78170476D02*
X140819580Y-78218095D01*
X140819580Y-78218095D02*
X140867200Y-78265714D01*
X140867200Y-78265714D02*
X140914819Y-78360952D01*
X140914819Y-78360952D02*
X140914819Y-78551428D01*
X140914819Y-78551428D02*
X140867200Y-78646666D01*
X140867200Y-78646666D02*
X140819580Y-78694285D01*
X140819580Y-78694285D02*
X140724342Y-78741904D01*
X140724342Y-78741904D02*
X140533866Y-78741904D01*
X140533866Y-78741904D02*
X140438628Y-78694285D01*
X140438628Y-78694285D02*
X140391009Y-78646666D01*
X140391009Y-78646666D02*
X140343390Y-78551428D01*
X145484819Y-76777142D02*
X145008628Y-76443809D01*
X145484819Y-76205714D02*
X144484819Y-76205714D01*
X144484819Y-76205714D02*
X144484819Y-76586666D01*
X144484819Y-76586666D02*
X144532438Y-76681904D01*
X144532438Y-76681904D02*
X144580057Y-76729523D01*
X144580057Y-76729523D02*
X144675295Y-76777142D01*
X144675295Y-76777142D02*
X144818152Y-76777142D01*
X144818152Y-76777142D02*
X144913390Y-76729523D01*
X144913390Y-76729523D02*
X144961009Y-76681904D01*
X144961009Y-76681904D02*
X145008628Y-76586666D01*
X145008628Y-76586666D02*
X145008628Y-76205714D01*
X144818152Y-77634285D02*
X145484819Y-77634285D01*
X144437200Y-77396190D02*
X145151485Y-77158095D01*
X145151485Y-77158095D02*
X145151485Y-77777142D01*
X144913390Y-78300952D02*
X144865771Y-78205714D01*
X144865771Y-78205714D02*
X144818152Y-78158095D01*
X144818152Y-78158095D02*
X144722914Y-78110476D01*
X144722914Y-78110476D02*
X144675295Y-78110476D01*
X144675295Y-78110476D02*
X144580057Y-78158095D01*
X144580057Y-78158095D02*
X144532438Y-78205714D01*
X144532438Y-78205714D02*
X144484819Y-78300952D01*
X144484819Y-78300952D02*
X144484819Y-78491428D01*
X144484819Y-78491428D02*
X144532438Y-78586666D01*
X144532438Y-78586666D02*
X144580057Y-78634285D01*
X144580057Y-78634285D02*
X144675295Y-78681904D01*
X144675295Y-78681904D02*
X144722914Y-78681904D01*
X144722914Y-78681904D02*
X144818152Y-78634285D01*
X144818152Y-78634285D02*
X144865771Y-78586666D01*
X144865771Y-78586666D02*
X144913390Y-78491428D01*
X144913390Y-78491428D02*
X144913390Y-78300952D01*
X144913390Y-78300952D02*
X144961009Y-78205714D01*
X144961009Y-78205714D02*
X145008628Y-78158095D01*
X145008628Y-78158095D02*
X145103866Y-78110476D01*
X145103866Y-78110476D02*
X145294342Y-78110476D01*
X145294342Y-78110476D02*
X145389580Y-78158095D01*
X145389580Y-78158095D02*
X145437200Y-78205714D01*
X145437200Y-78205714D02*
X145484819Y-78300952D01*
X145484819Y-78300952D02*
X145484819Y-78491428D01*
X145484819Y-78491428D02*
X145437200Y-78586666D01*
X145437200Y-78586666D02*
X145389580Y-78634285D01*
X145389580Y-78634285D02*
X145294342Y-78681904D01*
X145294342Y-78681904D02*
X145103866Y-78681904D01*
X145103866Y-78681904D02*
X145008628Y-78634285D01*
X145008628Y-78634285D02*
X144961009Y-78586666D01*
X144961009Y-78586666D02*
X144913390Y-78491428D01*
X98084819Y-148704166D02*
X98799104Y-148704166D01*
X98799104Y-148704166D02*
X98941961Y-148656547D01*
X98941961Y-148656547D02*
X99037200Y-148561309D01*
X99037200Y-148561309D02*
X99084819Y-148418452D01*
X99084819Y-148418452D02*
X99084819Y-148323214D01*
X98084819Y-149085119D02*
X98084819Y-149704166D01*
X98084819Y-149704166D02*
X98465771Y-149370833D01*
X98465771Y-149370833D02*
X98465771Y-149513690D01*
X98465771Y-149513690D02*
X98513390Y-149608928D01*
X98513390Y-149608928D02*
X98561009Y-149656547D01*
X98561009Y-149656547D02*
X98656247Y-149704166D01*
X98656247Y-149704166D02*
X98894342Y-149704166D01*
X98894342Y-149704166D02*
X98989580Y-149656547D01*
X98989580Y-149656547D02*
X99037200Y-149608928D01*
X99037200Y-149608928D02*
X99084819Y-149513690D01*
X99084819Y-149513690D02*
X99084819Y-149227976D01*
X99084819Y-149227976D02*
X99037200Y-149132738D01*
X99037200Y-149132738D02*
X98989580Y-149085119D01*
%TO.C,J4*%
D12*
X101760000Y-51680000D02*
X102870000Y-51680000D01*
X101760000Y-54930000D02*
X102870000Y-54930000D01*
X103460000Y-55980000D02*
X103710000Y-55480000D01*
X103710000Y-55480000D02*
X103960000Y-55980000D01*
X103960000Y-55980000D02*
X103460000Y-55980000D01*
X104550000Y-51680000D02*
X105660000Y-51680000D01*
X104550000Y-54930000D02*
X105660000Y-54930000D01*
%TO.C,J8*%
X173110000Y-147327500D02*
X172000000Y-147327500D01*
X173110000Y-150577500D02*
X172000000Y-150577500D01*
X173700000Y-146277500D02*
X174200000Y-146277500D01*
X173950000Y-146777500D02*
X173700000Y-146277500D01*
X174200000Y-146277500D02*
X173950000Y-146777500D01*
X175900000Y-147327500D02*
X174790000Y-147327500D01*
X175900000Y-150577500D02*
X174790000Y-150577500D01*
%TO.C,R37*%
X140807742Y-74657500D02*
X141282258Y-74657500D01*
X140807742Y-75702500D02*
X141282258Y-75702500D01*
%TO.C,R17*%
X136407742Y-74657500D02*
X136882258Y-74657500D01*
X136407742Y-75702500D02*
X136882258Y-75702500D01*
%TO.C,R12*%
X133922500Y-76642258D02*
X133922500Y-76167742D01*
X134967500Y-76642258D02*
X134967500Y-76167742D01*
%TO.C,R25*%
X138322500Y-73717742D02*
X138322500Y-74192258D01*
X139367500Y-73717742D02*
X139367500Y-74192258D01*
%TO.C,R8*%
X133922500Y-73717742D02*
X133922500Y-74192258D01*
X134967500Y-73717742D02*
X134967500Y-74192258D01*
%TO.C,R47*%
X142702500Y-73717742D02*
X142702500Y-74192258D01*
X143747500Y-73717742D02*
X143747500Y-74192258D01*
%TO.C,J5*%
X172000000Y-51612500D02*
X173110000Y-51612500D01*
X172000000Y-54862500D02*
X173110000Y-54862500D01*
X173700000Y-55912500D02*
X173950000Y-55412500D01*
X173950000Y-55412500D02*
X174200000Y-55912500D01*
X174200000Y-55912500D02*
X173700000Y-55912500D01*
X174790000Y-51612500D02*
X175900000Y-51612500D01*
X174790000Y-54862500D02*
X175900000Y-54862500D01*
%TO.C,R28*%
X138322500Y-76642258D02*
X138322500Y-76167742D01*
X139367500Y-76642258D02*
X139367500Y-76167742D01*
%TO.C,R48*%
X142702500Y-76642258D02*
X142702500Y-76167742D01*
X143747500Y-76642258D02*
X143747500Y-76167742D01*
%TO.C,J3*%
X102870000Y-147327500D02*
X101760000Y-147327500D01*
X102870000Y-150577500D02*
X101760000Y-150577500D01*
X103460000Y-146277500D02*
X103960000Y-146277500D01*
X103710000Y-146777500D02*
X103460000Y-146277500D01*
X103960000Y-146277500D02*
X103710000Y-146777500D01*
X105660000Y-147327500D02*
X104550000Y-147327500D01*
X105660000Y-150577500D02*
X104550000Y-150577500D01*
%TD*%
M02*
