%TF.GenerationSoftware,KiCad,Pcbnew,10.0.6*%
%TF.CreationDate,2026-09-21T17:18:49+08:00*%
%TF.ProjectId,6g_att,36675f61-7474-42e6-9b69-6361645f7063,rev?*%
%TF.SameCoordinates,Original*%
%TF.FileFunction,Copper,L2,Bot*%
%TF.FilePolarity,Positive*%
%FSLAX46Y46*%
G04 Gerber Fmt 4.6, Leading zero omitted, Abs format (unit mm)*
G04 Created by KiCad (PCBNEW 10.0.6) date 2026-09-21 17:18:49*
%MOMM*%
%LPD*%
G01*
G04 APERTURE LIST*
G04 Aperture macros list*
%AMRoundRect*
0 Rectangle with rounded corners*
0 $1 Rounding radius*
0 $2 $3 $4 $5 $6 $7 $8 $9 X,Y pos of 4 corners*
0 Add a 4 corners polygon primitive as box body*
4,1,4,$2,$3,$4,$5,$6,$7,$8,$9,$2,$3,0*
0 Add four circle primitives for the rounded corners*
1,1,$1+$1,$2,$3*
1,1,$1+$1,$4,$5*
1,1,$1+$1,$6,$7*
1,1,$1+$1,$8,$9*
0 Add four rect primitives between the rounded corners*
20,1,$1+$1,$2,$3,$4,$5,0*
20,1,$1+$1,$4,$5,$6,$7,0*
20,1,$1+$1,$6,$7,$8,$9,0*
20,1,$1+$1,$8,$9,$2,$3,0*%
G04 Aperture macros list end*
%TA.AperFunction,SMDPad,CuDef*%
%ADD10RoundRect,0.250000X-1.600000X0.425000X-1.600000X-0.425000X1.600000X-0.425000X1.600000X0.425000X0*%
%TD*%
%TA.AperFunction,SMDPad,CuDef*%
%ADD11RoundRect,0.250000X-0.385000X-1.350000X0.385000X-1.350000X0.385000X1.350000X-0.385000X1.350000X0*%
%TD*%
%TA.AperFunction,SMDPad,CuDef*%
%ADD12RoundRect,0.250000X-0.425000X-1.600000X0.425000X-1.600000X0.425000X1.600000X-0.425000X1.600000X0*%
%TD*%
%TA.AperFunction,SMDPad,CuDef*%
%ADD13RoundRect,0.250000X0.385000X1.350000X-0.385000X1.350000X-0.385000X-1.350000X0.385000X-1.350000X0*%
%TD*%
%TA.AperFunction,SMDPad,CuDef*%
%ADD14RoundRect,0.250000X0.425000X1.600000X-0.425000X1.600000X-0.425000X-1.600000X0.425000X-1.600000X0*%
%TD*%
%TA.AperFunction,SMDPad,CuDef*%
%ADD15RoundRect,0.200000X-0.200000X-0.275000X0.200000X-0.275000X0.200000X0.275000X-0.200000X0.275000X0*%
%TD*%
%TA.AperFunction,SMDPad,CuDef*%
%ADD16RoundRect,0.200000X0.275000X-0.200000X0.275000X0.200000X-0.275000X0.200000X-0.275000X-0.200000X0*%
%TD*%
%TA.AperFunction,SMDPad,CuDef*%
%ADD17RoundRect,0.200000X-0.275000X0.200000X-0.275000X-0.200000X0.275000X-0.200000X0.275000X0.200000X0*%
%TD*%
%TA.AperFunction,ViaPad*%
%ADD18C,0.600000*%
%TD*%
%TA.AperFunction,Conductor*%
%ADD19C,0.300000*%
%TD*%
%TA.AperFunction,Conductor*%
%ADD20C,1.030000*%
%TD*%
G04 APERTURE END LIST*
%TA.AperFunction,Conductor*%
%TO.N,Net-(J4-In)*%
G36*
X133970000Y-74780000D02*
G01*
X134920000Y-74780000D01*
X134920000Y-75580000D01*
X133970000Y-75580000D01*
X133970000Y-74780000D01*
G37*
%TD.AperFunction*%
%TA.AperFunction,Conductor*%
%TO.N,Net-(R17-Pad2)*%
G36*
X138370000Y-74780000D02*
G01*
X139320000Y-74780000D01*
X139320000Y-75580000D01*
X138370000Y-75580000D01*
X138370000Y-74780000D01*
G37*
%TD.AperFunction*%
%TA.AperFunction,Conductor*%
%TO.N,Net-(J5-In)*%
G36*
X142750000Y-74780000D02*
G01*
X143700000Y-74780000D01*
X143700000Y-75580000D01*
X142750000Y-75580000D01*
X142750000Y-74780000D01*
G37*
%TD.AperFunction*%
%TD*%
D10*
%TO.P,J1,2,Ext_2*%
%TO.N,GND*%
X91262500Y-68055000D03*
X91262500Y-62405000D03*
%TD*%
%TO.P,J7,2,Ext_2*%
%TO.N,GND*%
X91100000Y-139795000D03*
X91100000Y-134145000D03*
%TD*%
%TO.P,J2,2,Ext_2*%
%TO.N,GND*%
X91232500Y-117085000D03*
X91232500Y-111435000D03*
%TD*%
%TO.P,J6,2,Ext_2*%
%TO.N,GND*%
X91220000Y-90715000D03*
X91220000Y-85065000D03*
%TD*%
D11*
%TO.P,J4,1,In_1*%
%TO.N,Net-(J4-In)*%
X103710000Y-53220000D03*
D12*
%TO.P,J4,2,Ext_2*%
%TO.N,GND*%
X100885000Y-53470000D03*
X106535000Y-53470000D03*
%TD*%
D13*
%TO.P,J8,1,In_1*%
%TO.N,Net-(J3-In)*%
X173950000Y-149037500D03*
D14*
%TO.P,J8,2,Ext_2*%
%TO.N,GND*%
X176775000Y-148787500D03*
X171125000Y-148787500D03*
%TD*%
D15*
%TO.P,R37,1*%
%TO.N,Net-(R17-Pad2)*%
X140220000Y-75180000D03*
%TO.P,R37,2*%
%TO.N,Net-(J5-In)*%
X141870000Y-75180000D03*
%TD*%
%TO.P,R17,1*%
%TO.N,Net-(J4-In)*%
X135820000Y-75180000D03*
%TO.P,R17,2*%
%TO.N,Net-(R17-Pad2)*%
X137470000Y-75180000D03*
%TD*%
D16*
%TO.P,R12,1*%
%TO.N,GND*%
X134445000Y-77230000D03*
%TO.P,R12,2*%
%TO.N,Net-(J4-In)*%
X134445000Y-75580000D03*
%TD*%
D17*
%TO.P,R25,1*%
%TO.N,GND*%
X138845000Y-73130000D03*
%TO.P,R25,2*%
%TO.N,Net-(R17-Pad2)*%
X138845000Y-74780000D03*
%TD*%
%TO.P,R8,1*%
%TO.N,GND*%
X134445000Y-73130000D03*
%TO.P,R8,2*%
%TO.N,Net-(J4-In)*%
X134445000Y-74780000D03*
%TD*%
%TO.P,R47,1*%
%TO.N,GND*%
X143225000Y-73130000D03*
%TO.P,R47,2*%
%TO.N,Net-(J5-In)*%
X143225000Y-74780000D03*
%TD*%
D11*
%TO.P,J5,1,In_1*%
%TO.N,Net-(J5-In)*%
X173950000Y-53152500D03*
D12*
%TO.P,J5,2,Ext_2*%
%TO.N,GND*%
X171125000Y-53402500D03*
X176775000Y-53402500D03*
%TD*%
D16*
%TO.P,R28,1*%
%TO.N,GND*%
X138845000Y-77230000D03*
%TO.P,R28,2*%
%TO.N,Net-(R17-Pad2)*%
X138845000Y-75580000D03*
%TD*%
%TO.P,R48,1*%
%TO.N,GND*%
X143225000Y-77230000D03*
%TO.P,R48,2*%
%TO.N,Net-(J5-In)*%
X143225000Y-75580000D03*
%TD*%
D13*
%TO.P,J3,1,In_1*%
%TO.N,Net-(J3-In)*%
X103710000Y-149037500D03*
D14*
%TO.P,J3,2,Ext_2*%
%TO.N,GND*%
X106535000Y-148787500D03*
X100885000Y-148787500D03*
%TD*%
D18*
%TO.N,GND*%
X157700500Y-148985356D03*
X93700500Y-55454602D03*
X164700500Y-77971265D03*
X186700500Y-123004591D03*
X175700500Y-90095622D03*
X159700500Y-145521254D03*
X141700500Y-138593050D03*
X97700500Y-55454602D03*
X145700500Y-103952030D03*
X175700500Y-131664846D03*
X179700500Y-62382806D03*
X99700500Y-103952030D03*
X184700500Y-102219979D03*
X182700500Y-109148183D03*
X169700500Y-58918704D03*
X185700500Y-86631520D03*
X98700500Y-60650755D03*
X124700500Y-129932795D03*
X143700500Y-135128948D03*
X121700500Y-97023826D03*
X153700500Y-148985356D03*
X140700500Y-147253305D03*
X167700500Y-148985356D03*
X149700500Y-117808438D03*
X154700500Y-95291775D03*
X156700500Y-91827673D03*
X124700500Y-60650755D03*
X173700500Y-79703316D03*
X97700500Y-124736642D03*
X90700500Y-98755877D03*
X129700500Y-110880234D03*
X162700500Y-147253305D03*
X175700500Y-79703316D03*
X102700500Y-60650755D03*
X168700500Y-129932795D03*
X93700500Y-148985356D03*
X109700500Y-131664846D03*
X186700500Y-112612285D03*
X120700500Y-81435367D03*
X167700500Y-110880234D03*
X185700500Y-131664846D03*
X93700500Y-58918704D03*
X183700500Y-58918704D03*
X137700500Y-93559724D03*
X158700500Y-129932795D03*
X167700500Y-121272540D03*
X155700500Y-103952030D03*
X109700500Y-83167418D03*
X180700500Y-123004591D03*
X101700500Y-93559724D03*
X124700500Y-102219979D03*
X108700500Y-81435367D03*
X91700500Y-100487928D03*
X111700500Y-142057152D03*
X159700500Y-58918704D03*
X100700500Y-84899469D03*
X111700500Y-135128948D03*
X140700500Y-140325101D03*
X114700500Y-143789203D03*
X152700500Y-147253305D03*
X140700500Y-126468693D03*
X149700500Y-69311010D03*
X169700500Y-124736642D03*
X186700500Y-143789203D03*
X186700500Y-129932795D03*
X182700500Y-57186653D03*
X135700500Y-107416132D03*
X157700500Y-58918704D03*
X117700500Y-128200744D03*
X177700500Y-131664846D03*
X163700500Y-103952030D03*
X122700500Y-109148183D03*
X165700500Y-58918704D03*
X118700500Y-147253305D03*
X121700500Y-145521254D03*
X157700500Y-103952030D03*
X143700500Y-58918704D03*
X167700500Y-117808438D03*
X118700500Y-60650755D03*
X97700500Y-128200744D03*
X131700500Y-107416132D03*
X91700500Y-72775112D03*
X145700500Y-72775112D03*
X187700500Y-83167418D03*
X124700500Y-143789203D03*
X115700500Y-58918704D03*
X150700500Y-105684081D03*
X160700500Y-143789203D03*
X117700500Y-58918704D03*
X171700500Y-72775112D03*
X94700500Y-60650755D03*
X93700500Y-97023826D03*
X175700500Y-117808438D03*
X116700500Y-126468693D03*
X159700500Y-100487928D03*
X170700500Y-74507163D03*
X137700500Y-124736642D03*
X107700500Y-58918704D03*
X176700500Y-57186653D03*
X150700500Y-147253305D03*
X156700500Y-143789203D03*
X99700500Y-121272540D03*
X109700500Y-107416132D03*
X102700500Y-98755877D03*
X136700500Y-91827673D03*
X154700500Y-126468693D03*
X117700500Y-124736642D03*
X155700500Y-69311010D03*
X137700500Y-83167418D03*
X147700500Y-148985356D03*
X116700500Y-123004591D03*
X166700500Y-147253305D03*
X164700500Y-98755877D03*
X173700500Y-76239214D03*
X183700500Y-97023826D03*
X111700500Y-131664846D03*
X163700500Y-110880234D03*
X146700500Y-67578959D03*
X130700500Y-71043061D03*
X126700500Y-143789203D03*
X170700500Y-119540489D03*
X123700500Y-79703316D03*
X134700500Y-53722551D03*
X93700500Y-79703316D03*
X144700500Y-84899469D03*
X130700500Y-53722551D03*
X146700500Y-129932795D03*
X90700500Y-119540489D03*
X108700500Y-60650755D03*
X179700500Y-90095622D03*
X99700500Y-83167418D03*
X137700500Y-135128948D03*
X93700500Y-100487928D03*
X123700500Y-62382806D03*
X135700500Y-58918704D03*
X106700500Y-81435367D03*
X150700500Y-112612285D03*
X123700500Y-69311010D03*
X147700500Y-62382806D03*
X91700500Y-58918704D03*
X131700500Y-58918704D03*
X144700500Y-126468693D03*
X142700500Y-133396897D03*
X183700500Y-65846908D03*
X123700500Y-145521254D03*
X154700500Y-143789203D03*
X128700500Y-140325101D03*
X125700500Y-97023826D03*
X152700500Y-105684081D03*
X185700500Y-110880234D03*
X167700500Y-135128948D03*
X92700500Y-81435367D03*
X126700500Y-126468693D03*
X111700500Y-107416132D03*
X116700500Y-67578959D03*
X172700500Y-84899469D03*
X137700500Y-131664846D03*
X181700500Y-97023826D03*
X118700500Y-71043061D03*
X119700500Y-83167418D03*
X180700500Y-64114857D03*
X112700500Y-53722551D03*
X167700500Y-103952030D03*
X159700500Y-138593050D03*
X102700500Y-67578959D03*
X111700500Y-100487928D03*
X144700500Y-71043061D03*
X122700500Y-147253305D03*
X144700500Y-140325101D03*
X147700500Y-55454602D03*
X162700500Y-53722551D03*
X184700500Y-116076387D03*
X91700500Y-148985356D03*
X167700500Y-62382806D03*
X126700500Y-140325101D03*
X181700500Y-86631520D03*
X164700500Y-57186653D03*
X178700500Y-64114857D03*
X140700500Y-91827673D03*
X96700500Y-126468693D03*
X133700500Y-58918704D03*
X100700500Y-74507163D03*
X115700500Y-135128948D03*
X163700500Y-76239214D03*
X178700500Y-119540489D03*
X185700500Y-142057152D03*
X165700500Y-107416132D03*
X134700500Y-102219979D03*
X128700500Y-95291775D03*
X129700500Y-138593050D03*
X98700500Y-126468693D03*
X170700500Y-91827673D03*
X130700500Y-77971265D03*
X141700500Y-69311010D03*
X176700500Y-140325101D03*
X113700500Y-107416132D03*
X102700500Y-71043061D03*
X138700500Y-71043061D03*
X184700500Y-129932795D03*
X134700500Y-91827673D03*
X114700500Y-140325101D03*
X111700500Y-76239214D03*
X144700500Y-77971265D03*
X165700500Y-76239214D03*
X92700500Y-71043061D03*
X137700500Y-97023826D03*
X164700500Y-126468693D03*
X139700500Y-138593050D03*
X91700500Y-97023826D03*
X113700500Y-79703316D03*
X146700500Y-143789203D03*
X167700500Y-145521254D03*
X94700500Y-91827673D03*
X134700500Y-147253305D03*
X187700500Y-103952030D03*
X166700500Y-67578959D03*
X176700500Y-98755877D03*
X172700500Y-74507163D03*
X128700500Y-109148183D03*
X148700500Y-119540489D03*
X139700500Y-107416132D03*
X153700500Y-128200744D03*
X118700500Y-112612285D03*
X184700500Y-71043061D03*
X97700500Y-148985356D03*
X121700500Y-103952030D03*
X127700500Y-103952030D03*
X116700500Y-91827673D03*
X105700500Y-76239214D03*
X110700500Y-140325101D03*
X180700500Y-140325101D03*
X162700500Y-133396897D03*
X152700500Y-81435367D03*
X165700500Y-55454602D03*
X141700500Y-83167418D03*
X184700500Y-91827673D03*
X144700500Y-95291775D03*
X157700500Y-124736642D03*
X115700500Y-97023826D03*
X154700500Y-98755877D03*
X96700500Y-109148183D03*
X113200500Y-95291775D03*
X145700500Y-100487928D03*
X159700500Y-128200744D03*
X186700500Y-140325101D03*
X119700500Y-69311010D03*
X177700500Y-69311010D03*
X169700500Y-121272540D03*
X142700500Y-91827673D03*
X92700500Y-57186653D03*
X183700500Y-93559724D03*
X167700500Y-55454602D03*
X113700500Y-55454602D03*
X187700500Y-69311010D03*
X138700500Y-57186653D03*
X122700500Y-119540489D03*
X158700500Y-147253305D03*
X133700500Y-128200744D03*
X98700500Y-53722551D03*
X144700500Y-91827673D03*
X125700500Y-107416132D03*
X100700500Y-109148183D03*
X147700500Y-100487928D03*
X171700500Y-131664846D03*
X131700500Y-110880234D03*
X148700500Y-109148183D03*
X125700500Y-90095622D03*
X159700500Y-90595622D03*
X91700500Y-128200744D03*
X135700500Y-131664846D03*
X152700500Y-53722551D03*
X176700500Y-81435367D03*
X175700500Y-142057152D03*
X101700500Y-79703316D03*
X187700500Y-138593050D03*
X124700500Y-84899469D03*
X109700500Y-124736642D03*
X177700500Y-121272540D03*
X148700500Y-53722551D03*
X132700500Y-53722551D03*
X103700500Y-79703316D03*
X177700500Y-83167418D03*
X114700500Y-95291775D03*
X132700500Y-147253305D03*
X181700500Y-100487928D03*
X154700500Y-140325101D03*
X147700500Y-128200744D03*
X92700500Y-102219979D03*
X133700500Y-103952030D03*
X121700500Y-90095622D03*
X137700500Y-90095622D03*
X179700500Y-131664846D03*
X169700500Y-145521254D03*
X154700500Y-60650755D03*
X175700500Y-124736642D03*
X185700500Y-117808438D03*
X115700500Y-55454602D03*
X95700500Y-69311010D03*
X121700500Y-83167418D03*
X166700500Y-119540489D03*
X108700500Y-77971265D03*
X157700500Y-107416132D03*
X123700500Y-72775112D03*
X186700500Y-126468693D03*
X90700500Y-129932795D03*
X98700500Y-109148183D03*
X98700500Y-123004591D03*
X157700500Y-69311010D03*
X90700500Y-123004591D03*
X109700500Y-103952030D03*
X152700500Y-143789203D03*
X150700500Y-60650755D03*
X161700500Y-69311010D03*
X113700500Y-83167418D03*
X93700500Y-135128948D03*
X187700500Y-128200744D03*
X122700500Y-95291775D03*
X100700500Y-140325101D03*
X138700500Y-60650755D03*
X100700500Y-57186653D03*
X117700500Y-76239214D03*
X96700500Y-133396897D03*
X170700500Y-140325101D03*
X102700500Y-77971265D03*
X115700500Y-142057152D03*
X177700500Y-76239214D03*
X107700500Y-110880234D03*
X141700500Y-97023826D03*
X100700500Y-105684081D03*
X134700500Y-57186653D03*
X94700500Y-67578959D03*
X186700500Y-74507163D03*
X165700500Y-100487928D03*
X164700500Y-74507163D03*
X153700500Y-55454602D03*
X102700500Y-95291775D03*
X147700500Y-79703316D03*
X164700500Y-116076387D03*
X129700500Y-128200744D03*
X103700500Y-100487928D03*
X136700500Y-57186653D03*
X112700500Y-143789203D03*
X103700500Y-103952030D03*
X186700500Y-95291775D03*
X142700500Y-129932795D03*
X149700500Y-90095622D03*
X120700500Y-71043061D03*
X171700500Y-90095622D03*
X96700500Y-71043061D03*
X155700500Y-124736642D03*
X123700500Y-93559724D03*
X141700500Y-110880234D03*
X97700500Y-79703316D03*
X120700500Y-133396897D03*
X117700500Y-145521254D03*
X135700500Y-121272540D03*
X156700500Y-119540489D03*
X151700500Y-117808438D03*
X167700500Y-72775112D03*
X126700500Y-77971265D03*
X92700500Y-74507163D03*
X117700500Y-110880234D03*
X159700500Y-97023826D03*
X108700500Y-147253305D03*
X182700500Y-75007163D03*
X126700500Y-119540489D03*
X180700500Y-81435367D03*
X126700500Y-53722551D03*
X179700500Y-145521254D03*
X132700500Y-71043061D03*
X112700500Y-57186653D03*
X142700500Y-95291775D03*
X107700500Y-79703316D03*
X112700500Y-74507163D03*
X116700500Y-60650755D03*
X153700500Y-103952030D03*
X132700500Y-102219979D03*
X155700500Y-142057152D03*
X175700500Y-62382806D03*
X149700500Y-93559724D03*
X151700500Y-100487928D03*
X109700500Y-58918704D03*
X100700500Y-102219979D03*
X141700500Y-135128948D03*
X134700500Y-67578959D03*
X155700500Y-79703316D03*
X90700500Y-95291775D03*
X144700500Y-147253305D03*
X161700500Y-103952030D03*
X176700500Y-109148183D03*
X114700500Y-81435367D03*
X141700500Y-148985356D03*
X162700500Y-95291775D03*
X168700500Y-105684081D03*
X125700500Y-72775112D03*
X123700500Y-55454602D03*
X125700500Y-93559724D03*
X136700500Y-84899469D03*
X127700500Y-62382806D03*
X165700500Y-83167418D03*
X128700500Y-133396897D03*
X95700500Y-138593050D03*
X166700500Y-105684081D03*
X95700500Y-110880234D03*
X127700500Y-135128948D03*
X179700500Y-138593050D03*
X130700500Y-67578959D03*
X115700500Y-69311010D03*
X154700500Y-71043061D03*
X166700500Y-123004591D03*
X163700500Y-55454602D03*
X181700500Y-148985356D03*
X96700500Y-143789203D03*
X155700500Y-131664846D03*
X94700500Y-140325101D03*
X157700500Y-79703316D03*
X138700500Y-129932795D03*
X93700500Y-138593050D03*
X139700500Y-135128948D03*
X164700500Y-105684081D03*
X118700500Y-67578959D03*
X93700500Y-103952030D03*
X114700500Y-53722551D03*
X120700500Y-147253305D03*
X136700500Y-102219979D03*
X102700500Y-81435367D03*
X185700500Y-97023826D03*
X165700500Y-145521254D03*
X105700500Y-83167418D03*
X110700500Y-60650755D03*
X176700500Y-91827673D03*
X123700500Y-103952030D03*
X186700500Y-119540489D03*
X178700500Y-102219979D03*
X112700500Y-140325101D03*
X180700500Y-136860999D03*
X115700500Y-83167418D03*
X132700500Y-105684081D03*
X162700500Y-112612285D03*
X186700500Y-81435367D03*
X109700500Y-128200744D03*
X114700500Y-126468693D03*
X152700500Y-67578959D03*
X137700500Y-110880234D03*
X136700500Y-53722551D03*
X173700500Y-100487928D03*
X148700500Y-77971265D03*
X185700500Y-65846908D03*
X132700500Y-119540489D03*
X112700500Y-147253305D03*
X141700500Y-145521254D03*
X175700500Y-110880234D03*
X121700500Y-148985356D03*
X185700500Y-103952030D03*
X161700500Y-121272540D03*
X125700500Y-145521254D03*
X112700500Y-98755877D03*
X141700500Y-128200744D03*
X113700500Y-58918704D03*
X94700500Y-53722551D03*
X140700500Y-119540489D03*
X92700500Y-98755877D03*
X177700500Y-72775112D03*
X146700500Y-77971265D03*
X143700500Y-117808438D03*
X113700500Y-131664846D03*
X153700500Y-107416132D03*
X182700500Y-95291775D03*
X140700500Y-105684081D03*
X184700500Y-143789203D03*
X107700500Y-124736642D03*
X118700500Y-53722551D03*
X167700500Y-79703316D03*
X106700500Y-71043061D03*
X185700500Y-58918704D03*
X181700500Y-62382806D03*
X135700500Y-142057152D03*
X94700500Y-143789203D03*
X137700500Y-117808438D03*
X183700500Y-135128948D03*
X114700500Y-109148183D03*
X143700500Y-124736642D03*
X131700500Y-124736642D03*
X163700500Y-121272540D03*
X164346947Y-95645328D03*
X132700500Y-91827673D03*
X110700500Y-53722551D03*
X100700500Y-60650755D03*
X159700500Y-124736642D03*
X176700500Y-129932795D03*
X177700500Y-145521254D03*
X178700500Y-60650755D03*
X154700500Y-105684081D03*
X142700500Y-112612285D03*
X168700500Y-109148183D03*
X91700500Y-83167418D03*
X155346947Y-72421559D03*
X161700500Y-117808438D03*
X138700500Y-91827673D03*
X102700500Y-105684081D03*
X139700500Y-117808438D03*
X177700500Y-62382806D03*
X94700500Y-102219979D03*
X180700500Y-60650755D03*
X128700500Y-57186653D03*
X136700500Y-129932795D03*
X163700500Y-117808438D03*
X91700500Y-103952030D03*
X152700500Y-98755877D03*
X117700500Y-79703316D03*
X140700500Y-133396897D03*
X186700500Y-147253305D03*
X93700500Y-142057152D03*
X182700500Y-112612285D03*
X124700500Y-77971265D03*
X163700500Y-79703316D03*
X101700500Y-145521254D03*
X156700500Y-116076387D03*
X97700500Y-121272540D03*
X151700500Y-97023826D03*
X141700500Y-131664846D03*
X159700500Y-135128948D03*
X99700500Y-100487928D03*
X133700500Y-124736642D03*
X125700500Y-124736642D03*
X142700500Y-84899469D03*
X158700500Y-91827673D03*
X172700500Y-71043061D03*
X113700500Y-148985356D03*
X170700500Y-81435367D03*
X112700500Y-102219979D03*
X184700500Y-81435367D03*
X105700500Y-121272540D03*
X91700500Y-145521254D03*
X134700500Y-140325101D03*
X93700500Y-72775112D03*
X148700500Y-67578959D03*
X94700500Y-129932795D03*
X130700500Y-143789203D03*
X158700500Y-67578959D03*
X177700500Y-97023826D03*
X140700500Y-67578959D03*
X151700500Y-110880234D03*
X130700500Y-57186653D03*
X186700500Y-136860999D03*
X98700500Y-105684081D03*
X163700500Y-148985356D03*
X101700500Y-76239214D03*
X155700500Y-55454602D03*
X184700500Y-67578959D03*
X90700500Y-77971265D03*
X95700500Y-117808438D03*
X149700500Y-97023826D03*
X152700500Y-77971265D03*
X104700500Y-91827673D03*
X116700500Y-53722551D03*
X157700500Y-131664846D03*
X153700500Y-142057152D03*
X119700500Y-135128948D03*
X126700500Y-60650755D03*
X126700500Y-67578959D03*
X120700500Y-119540489D03*
X183700500Y-62382806D03*
X120700500Y-98755877D03*
X145700500Y-69311010D03*
X119700500Y-93559724D03*
X119700500Y-145521254D03*
X181700500Y-65846908D03*
X120700500Y-116076387D03*
X145700500Y-117808438D03*
X170700500Y-57186653D03*
X127700500Y-72775112D03*
X92700500Y-95291775D03*
X186700500Y-109148183D03*
X136700500Y-60650755D03*
X100700500Y-95291775D03*
X160700500Y-95291775D03*
X162700500Y-67578959D03*
X135700500Y-135128948D03*
X98700500Y-98755877D03*
X169700500Y-117808438D03*
X131700500Y-93559724D03*
X109700500Y-135128948D03*
X158700500Y-143789203D03*
X149700500Y-128200744D03*
X91700500Y-131664846D03*
X141700500Y-90095622D03*
X121700500Y-100487928D03*
X106700500Y-133396897D03*
X162700500Y-143789203D03*
X181700500Y-142057152D03*
X178700500Y-126468693D03*
X116700500Y-105684081D03*
X166700500Y-91827673D03*
X182700500Y-64114857D03*
X157700500Y-138593050D03*
X181700500Y-107416132D03*
X124700500Y-105684081D03*
X161700500Y-145521254D03*
X180700500Y-112612285D03*
X94700500Y-133396897D03*
X158700500Y-95291775D03*
X153700500Y-79703316D03*
X166700500Y-84899469D03*
X121700500Y-124736642D03*
X92700500Y-119540489D03*
X140700500Y-95291775D03*
X118700500Y-140325101D03*
X151700500Y-128200744D03*
X140700500Y-123004591D03*
X127700500Y-90095622D03*
X92700500Y-147253305D03*
X95700500Y-93559724D03*
X157700500Y-90095622D03*
X130700500Y-123004591D03*
X160700500Y-67578959D03*
X176700500Y-74507163D03*
X133700500Y-117808438D03*
X137700500Y-55454602D03*
X175700500Y-128200744D03*
X91700500Y-76239214D03*
X149700500Y-100487928D03*
X158700500Y-98755877D03*
X105700500Y-135128948D03*
X139700500Y-58918704D03*
X149700500Y-148985356D03*
X134700500Y-71043061D03*
X152700500Y-140325101D03*
X169700500Y-131664846D03*
X163700500Y-83167418D03*
X169700500Y-83167418D03*
X175700500Y-83167418D03*
X120700500Y-140325101D03*
X166700500Y-112612285D03*
X128700500Y-98755877D03*
X177700500Y-142057152D03*
X169700500Y-128200744D03*
X186700500Y-88363571D03*
X176700500Y-77971265D03*
X140700500Y-77971265D03*
X184700500Y-84899469D03*
X167700500Y-90095622D03*
X139700500Y-145521254D03*
X115700500Y-76239214D03*
X125700500Y-142057152D03*
X186700500Y-67578959D03*
X168700500Y-71043061D03*
X165700500Y-62382806D03*
X187700500Y-107416132D03*
X119700500Y-58918704D03*
X123700500Y-121272540D03*
X179700500Y-79703316D03*
X117700500Y-69311010D03*
X131700500Y-97023826D03*
X153700500Y-145521254D03*
X158700500Y-126468693D03*
X137700500Y-148985356D03*
X124700500Y-140325101D03*
X142700500Y-98755877D03*
X133700500Y-55454602D03*
X173700500Y-72775112D03*
X165700500Y-128200744D03*
X129700500Y-142057152D03*
X160700500Y-119540489D03*
X101700500Y-110880234D03*
X151700500Y-103952030D03*
X118700500Y-95291775D03*
X112700500Y-77971265D03*
X96700500Y-129932795D03*
X181346947Y-128554297D03*
X162700500Y-109148183D03*
X101700500Y-83167418D03*
X110700500Y-84899469D03*
X184700500Y-60650755D03*
X118200500Y-90095622D03*
X106700500Y-57186653D03*
X145700500Y-58918704D03*
X187700500Y-114344336D03*
X155700500Y-76239214D03*
X97700500Y-103952030D03*
X156700500Y-140325101D03*
X115700500Y-131664846D03*
X162700500Y-119540489D03*
X158700500Y-84899469D03*
X152700500Y-109148183D03*
X171700500Y-97023826D03*
X119700500Y-148985356D03*
X148700500Y-147253305D03*
X120700500Y-53722551D03*
X129700500Y-69311010D03*
X131700500Y-145521254D03*
X118700500Y-57186653D03*
X140700500Y-129932795D03*
X106700500Y-95291775D03*
X183700500Y-148985356D03*
X126700500Y-147253305D03*
X131700500Y-55454602D03*
X161700500Y-62382806D03*
X92700500Y-143789203D03*
X153700500Y-131664846D03*
X105700500Y-69311010D03*
X125700500Y-121272540D03*
X133700500Y-148985356D03*
X117700500Y-55454602D03*
X121700500Y-128200744D03*
X107700500Y-145521254D03*
X97700500Y-107416132D03*
X167700500Y-138593050D03*
X104700500Y-84899469D03*
X106700500Y-91827673D03*
X142700500Y-57186653D03*
X128700500Y-126468693D03*
X180700500Y-77971265D03*
X123700500Y-148985356D03*
X150700500Y-57186653D03*
X141700500Y-100487928D03*
X165700500Y-110880234D03*
X129700500Y-79703316D03*
X187700500Y-62382806D03*
X106700500Y-74507163D03*
X170700500Y-123004591D03*
X162700500Y-74507163D03*
X90700500Y-74507163D03*
X112700500Y-67578959D03*
X111700500Y-58918704D03*
X123700500Y-131664846D03*
X183700500Y-142057152D03*
X124700500Y-53722551D03*
X137700500Y-58918704D03*
X185700500Y-124736642D03*
X146700500Y-95291775D03*
X95700500Y-97023826D03*
X105700500Y-124736642D03*
X132700500Y-143789203D03*
X98700500Y-57186653D03*
X135700500Y-62382806D03*
X168700500Y-147253305D03*
X96700500Y-123004591D03*
X164700500Y-143789203D03*
X182700500Y-133396897D03*
X144700500Y-109148183D03*
X187700500Y-86631520D03*
X111700500Y-83167418D03*
X182700500Y-147253305D03*
X133700500Y-110880234D03*
X182700500Y-116076387D03*
X95700500Y-83167418D03*
X126700500Y-123004591D03*
X137700500Y-142057152D03*
X127700500Y-148985356D03*
X151700500Y-145521254D03*
X124700500Y-57186653D03*
X118700500Y-77971265D03*
X177700500Y-110880234D03*
X148700500Y-129932795D03*
X157700500Y-110880234D03*
X170346947Y-109501736D03*
X147700500Y-135128948D03*
X105700500Y-117808438D03*
X90700500Y-71043061D03*
X133700500Y-145521254D03*
X103700500Y-83167418D03*
X139700500Y-90095622D03*
X99700500Y-145521254D03*
X104700500Y-81435367D03*
X121700500Y-69311010D03*
X115700500Y-124736642D03*
X147700500Y-142057152D03*
X182700500Y-143789203D03*
X180700500Y-126468693D03*
X156700500Y-133396897D03*
X117700500Y-121272540D03*
X163700500Y-145521254D03*
X178700500Y-71043061D03*
X162700500Y-126468693D03*
X129700500Y-72775112D03*
X119700500Y-107416132D03*
X134700500Y-105684081D03*
X163700500Y-58918704D03*
X186700500Y-60650755D03*
X116700500Y-81435367D03*
X181700500Y-90095622D03*
X118700500Y-116076387D03*
X142700500Y-147253305D03*
X136700500Y-126468693D03*
X101700500Y-107416132D03*
X166700500Y-143789203D03*
X122700500Y-143789203D03*
X146700500Y-109148183D03*
X127700500Y-107416132D03*
X163700500Y-131664846D03*
X111700500Y-55454602D03*
X136700500Y-119540489D03*
X128700500Y-53722551D03*
X100700500Y-112612285D03*
X130700500Y-60650755D03*
X163700500Y-138593050D03*
X181700500Y-138593050D03*
X182700500Y-53722551D03*
X109700500Y-148985356D03*
X95700500Y-55454602D03*
X103700500Y-93559724D03*
X185700500Y-148985356D03*
X111700500Y-117808438D03*
X95700500Y-131664846D03*
X95700500Y-72775112D03*
X110700500Y-119540489D03*
X145700500Y-131664846D03*
X93700500Y-145521254D03*
X99700500Y-124736642D03*
X132700500Y-77971265D03*
X153700500Y-110880234D03*
X119700500Y-76239214D03*
X144700500Y-102219979D03*
X151700500Y-62382806D03*
X187700500Y-79703316D03*
X113700500Y-76239214D03*
X122700500Y-102219979D03*
X124700500Y-71043061D03*
X112700500Y-112612285D03*
X142700500Y-126468693D03*
X145700500Y-128200744D03*
X148700500Y-105684081D03*
X119700500Y-79703316D03*
X119700500Y-62382806D03*
X181700500Y-76239214D03*
X129700500Y-58918704D03*
X152700500Y-123004591D03*
X156700500Y-126468693D03*
X170700500Y-67578959D03*
X186700500Y-102219979D03*
X146700500Y-119540489D03*
X94700500Y-126468693D03*
X171700500Y-138593050D03*
X101700500Y-58918704D03*
X141700500Y-103952030D03*
X100700500Y-126468693D03*
X159700500Y-69311010D03*
X91700500Y-79703316D03*
X110700500Y-109148183D03*
X106700500Y-119540489D03*
X180700500Y-57186653D03*
X162700500Y-116076387D03*
X109700500Y-72775112D03*
X151700500Y-121272540D03*
X95700500Y-90095622D03*
X166700500Y-74507163D03*
X118700500Y-84899469D03*
X186700500Y-57186653D03*
X127700500Y-55454602D03*
X184700500Y-64114857D03*
X138700500Y-147253305D03*
X176700500Y-105684081D03*
X180700500Y-147253305D03*
X96700500Y-67578959D03*
X116700500Y-116076387D03*
X161700500Y-138593050D03*
X174700500Y-60650755D03*
X125700500Y-110880234D03*
X160700500Y-133396897D03*
X164700500Y-67578959D03*
X159700500Y-79703316D03*
X93700500Y-107416132D03*
X153700500Y-69311010D03*
X126700500Y-129932795D03*
X157700500Y-55454602D03*
X114700500Y-67578959D03*
X122700500Y-129932795D03*
X140700500Y-60650755D03*
X151700500Y-107416132D03*
X128700500Y-60650755D03*
X103700500Y-90095622D03*
X178700500Y-123004591D03*
X107700500Y-93559724D03*
X110700500Y-123004591D03*
X93700500Y-76239214D03*
X109700500Y-138593050D03*
X187700500Y-65846908D03*
X161700500Y-58918704D03*
X182700500Y-140325101D03*
X143700500Y-131664846D03*
X127700500Y-124736642D03*
X104700500Y-67578959D03*
X180700500Y-119540489D03*
X150700500Y-126468693D03*
X120700500Y-95291775D03*
X127700500Y-128200744D03*
X92700500Y-109148183D03*
X95700500Y-124736642D03*
X148700500Y-95291775D03*
X94700500Y-71043061D03*
X90700500Y-147253305D03*
X184700500Y-112612285D03*
X117700500Y-62382806D03*
X103700500Y-72775112D03*
X159700500Y-62382806D03*
X153700500Y-58918704D03*
X97700500Y-97023826D03*
X97700500Y-69311010D03*
X156700500Y-105684081D03*
X136700500Y-143789203D03*
X138700500Y-84899469D03*
X163700500Y-107416132D03*
X138700500Y-109148183D03*
X135700500Y-145521254D03*
X165700500Y-90095622D03*
X175700500Y-121272540D03*
X153700500Y-72775112D03*
X176700500Y-112612285D03*
X120700500Y-112612285D03*
X183700500Y-131664846D03*
X171700500Y-128200744D03*
X130700500Y-95291775D03*
X179700500Y-58918704D03*
X129700500Y-103952030D03*
X127700500Y-93559724D03*
X99700500Y-76239214D03*
X144700500Y-129932795D03*
X138700500Y-53722551D03*
X90700500Y-81435367D03*
X183700500Y-83167418D03*
X136700500Y-77971265D03*
X169700500Y-110880234D03*
X166700500Y-81435367D03*
X143700500Y-148985356D03*
X183700500Y-86631520D03*
X121700500Y-131664846D03*
X111700500Y-138593050D03*
X137700500Y-145521254D03*
X176700500Y-126468693D03*
X187700500Y-90095622D03*
X92700500Y-105684081D03*
X169700500Y-76239214D03*
X149700500Y-79703316D03*
X129700500Y-97023826D03*
X135700500Y-138593050D03*
X183700500Y-138593050D03*
X116700500Y-143789203D03*
X142700500Y-119540489D03*
X99700500Y-117808438D03*
X158700500Y-133396897D03*
X164700500Y-81435367D03*
X157700500Y-142057152D03*
X132700500Y-123004591D03*
X136700500Y-67578959D03*
X125700500Y-117808438D03*
X99700500Y-107416132D03*
X117700500Y-83167418D03*
X187700500Y-135128948D03*
X110700500Y-81435367D03*
X98700500Y-77971265D03*
X110700500Y-143789203D03*
X154700500Y-77971265D03*
X175700500Y-58918704D03*
X118700500Y-143789203D03*
X161700500Y-148985356D03*
X117700500Y-107416132D03*
X178700500Y-95291775D03*
X92700500Y-60650755D03*
X169700500Y-90095622D03*
X137700500Y-100487928D03*
X149700500Y-55454602D03*
X132700500Y-60650755D03*
X174700500Y-95291775D03*
X93700500Y-124736642D03*
X150700500Y-98755877D03*
X101700500Y-100487928D03*
X177700500Y-124736642D03*
X148700500Y-60650755D03*
X100700500Y-81435367D03*
X174700500Y-74507163D03*
X179700500Y-83167418D03*
X140700500Y-102219979D03*
X160700500Y-126468693D03*
X147700500Y-97023826D03*
X110700500Y-77971265D03*
X96700500Y-53722551D03*
X143700500Y-100487928D03*
X119700500Y-131664846D03*
X118700500Y-91827673D03*
X155700500Y-121272540D03*
X112700500Y-123004591D03*
X126700500Y-133396897D03*
X109700500Y-55454602D03*
X185700500Y-69311010D03*
X143700500Y-90095622D03*
X175700500Y-76239214D03*
X183700500Y-114344336D03*
X135700500Y-124736642D03*
X98700500Y-129932795D03*
X156700500Y-102219979D03*
X183700500Y-107416132D03*
X122700500Y-77971265D03*
X161700500Y-124736642D03*
X122700500Y-81435367D03*
X124700500Y-147253305D03*
X173700500Y-83167418D03*
X157700500Y-121272540D03*
X145700500Y-138593050D03*
X186700500Y-98755877D03*
X147700500Y-145521254D03*
X132700500Y-57186653D03*
X96700500Y-57186653D03*
X172700500Y-98755877D03*
X170700500Y-126468693D03*
X171700500Y-93559724D03*
X171700500Y-117808438D03*
X119700500Y-124736642D03*
X118700500Y-123004591D03*
X166700500Y-60650755D03*
X145700500Y-121272540D03*
X105700500Y-131664846D03*
X141700500Y-121272540D03*
X103700500Y-69311010D03*
X115700500Y-117808438D03*
X178700500Y-109148183D03*
X120700500Y-60650755D03*
X185700500Y-145521254D03*
X140700500Y-116076387D03*
X157700500Y-93559724D03*
X97700500Y-72775112D03*
X184700500Y-133396897D03*
X171700500Y-69311010D03*
X141700500Y-142057152D03*
X150700500Y-143789203D03*
X121700500Y-121272540D03*
X129700500Y-131664846D03*
X133700500Y-121272540D03*
X152700500Y-112612285D03*
X110700500Y-91827673D03*
X101700500Y-135128948D03*
X145700500Y-142057152D03*
X119700500Y-55454602D03*
X95700500Y-79703316D03*
X94700500Y-116076387D03*
X187700500Y-93559724D03*
X180700500Y-88363571D03*
X107700500Y-76239214D03*
X143700500Y-55454602D03*
X168700500Y-57186653D03*
X130700500Y-112612285D03*
X100700500Y-91827673D03*
X186700500Y-91827673D03*
X102700500Y-74507163D03*
X122700500Y-98755877D03*
X126700500Y-109148183D03*
X180700500Y-102219979D03*
X163200500Y-69311010D03*
X136700500Y-140325101D03*
X94700500Y-112612285D03*
X175700500Y-107416132D03*
X150700500Y-53722551D03*
X162700500Y-102219979D03*
X146700500Y-123004591D03*
X138700500Y-123004591D03*
X187700500Y-117808438D03*
X166700500Y-109148183D03*
X101700500Y-138593050D03*
X123700500Y-124736642D03*
X99700500Y-79703316D03*
X163700500Y-97023826D03*
X128700500Y-102219979D03*
X163700500Y-62382806D03*
X138700500Y-116076387D03*
X151700500Y-79703316D03*
X155700500Y-110880234D03*
X139700500Y-83167418D03*
X162700500Y-140325101D03*
X92700500Y-126468693D03*
X131700500Y-79703316D03*
X173700500Y-69311010D03*
X178700500Y-91827673D03*
X185700500Y-114344336D03*
X118700500Y-119540489D03*
X158700500Y-77971265D03*
X131700500Y-128200744D03*
X94700500Y-105684081D03*
X137700500Y-62382806D03*
X115700500Y-100487928D03*
X159700500Y-55454602D03*
X174700500Y-77971265D03*
X168700500Y-112612285D03*
X146700500Y-60650755D03*
X164700500Y-53722551D03*
X184700500Y-53722551D03*
X157700500Y-135128948D03*
X180700500Y-98755877D03*
X98700500Y-102219979D03*
X93700500Y-128200744D03*
X150700500Y-95291775D03*
X176700500Y-64114857D03*
X167700500Y-58918704D03*
X93700500Y-83167418D03*
X130700500Y-147253305D03*
X95700500Y-76239214D03*
X170700500Y-77971265D03*
X177054053Y-67932512D03*
X168700500Y-74507163D03*
X113700500Y-142057152D03*
X177700500Y-93559724D03*
X107700500Y-131664846D03*
X171700500Y-142057152D03*
X141700500Y-93559724D03*
X168700500Y-53722551D03*
X143700500Y-138593050D03*
X114700500Y-119540489D03*
X146700500Y-57186653D03*
X92700500Y-53722551D03*
X172700500Y-95291775D03*
X131700500Y-90095622D03*
X184700500Y-98755877D03*
X130700500Y-126468693D03*
X157700500Y-145521254D03*
X131700500Y-69311010D03*
X139700500Y-124736642D03*
X163700500Y-135128948D03*
X155700500Y-93559724D03*
X149700500Y-124736642D03*
X171700500Y-79703316D03*
X128700500Y-119540489D03*
X153700500Y-135128948D03*
X142700500Y-53722551D03*
X118700500Y-105684081D03*
X109700500Y-79703316D03*
X120700500Y-109148183D03*
X144700500Y-112612285D03*
X96700500Y-81435367D03*
X148700500Y-71043061D03*
X155700500Y-145521254D03*
X132700500Y-116076387D03*
X100700500Y-67578959D03*
X185700500Y-135128948D03*
X136700500Y-109148183D03*
X134700500Y-123004591D03*
X104700500Y-77971265D03*
X106700500Y-67578959D03*
X115700500Y-138593050D03*
X184700500Y-88363571D03*
X120700500Y-143789203D03*
X136700500Y-105684081D03*
X130700500Y-140325101D03*
X167700500Y-142057152D03*
X120700500Y-57186653D03*
X118700500Y-133396897D03*
X119700500Y-142057152D03*
X156700500Y-129932795D03*
X179700500Y-72775112D03*
X154700500Y-53722551D03*
X146700500Y-98755877D03*
X181700500Y-72775112D03*
X164700500Y-147253305D03*
X181700500Y-114344336D03*
X146700500Y-133396897D03*
X185700500Y-55454602D03*
X117700500Y-103952030D03*
X112700500Y-109148183D03*
X96700500Y-60650755D03*
X142700500Y-105684081D03*
X140700500Y-57186653D03*
X124700500Y-133396897D03*
X148700500Y-98755877D03*
X106700500Y-126468693D03*
X116700500Y-112612285D03*
X110700500Y-133396897D03*
X150700500Y-71043061D03*
X187700500Y-58918704D03*
X114700500Y-116076387D03*
X161700500Y-79703316D03*
X154700500Y-102219979D03*
X171700500Y-124736642D03*
X168700500Y-84899469D03*
X147700500Y-138593050D03*
X179700500Y-124736642D03*
X130700500Y-129932795D03*
X153700500Y-97023826D03*
X167700500Y-131664846D03*
X165700500Y-124736642D03*
X104700500Y-74507163D03*
X129700500Y-145521254D03*
X150700500Y-67578959D03*
X180700500Y-105684081D03*
X181700500Y-58918704D03*
X169700500Y-72775112D03*
X137700500Y-138593050D03*
X147700500Y-121272540D03*
X130700500Y-116076387D03*
X90700500Y-53722551D03*
X110700500Y-105684081D03*
X107700500Y-72775112D03*
X90700500Y-102219979D03*
X124700500Y-67578959D03*
X100700500Y-133396897D03*
X105700500Y-93559724D03*
X122700500Y-133396897D03*
X187700500Y-131664846D03*
X114700500Y-60650755D03*
X162700500Y-77971265D03*
X99700500Y-93559724D03*
X96700500Y-102219979D03*
X177700500Y-58918704D03*
X128700500Y-71043061D03*
X178700500Y-136860999D03*
X91700500Y-124736642D03*
X137700500Y-103952030D03*
X95700500Y-100487928D03*
X95700500Y-103952030D03*
X151700500Y-124736642D03*
X169700500Y-107916132D03*
X127700500Y-58918704D03*
X161700500Y-135128948D03*
X116700500Y-95291775D03*
X160700500Y-57186653D03*
X105700500Y-72775112D03*
X117700500Y-142057152D03*
X116700500Y-147253305D03*
X178700500Y-81435367D03*
X155700500Y-107416132D03*
X119700500Y-97023826D03*
X135700500Y-128200744D03*
X173700500Y-103952030D03*
X158700500Y-105684081D03*
X126700500Y-102219979D03*
X147700500Y-103952030D03*
X111700500Y-128200744D03*
X126700500Y-71043061D03*
X163700500Y-93559724D03*
X161700500Y-128200744D03*
X131700500Y-148985356D03*
X182700500Y-98755877D03*
X162700500Y-81435367D03*
X187700500Y-76239214D03*
X99700500Y-110880234D03*
X127700500Y-110880234D03*
X150700500Y-102219979D03*
X125700500Y-131664846D03*
X143700500Y-69311010D03*
X93700500Y-93559724D03*
X116700500Y-77971265D03*
X178700500Y-53722551D03*
X158700500Y-53722551D03*
X144700500Y-60650755D03*
X115700500Y-148985356D03*
X179700500Y-100487928D03*
X143700500Y-110880234D03*
X131700500Y-100487928D03*
X117700500Y-97023826D03*
X120700500Y-91827673D03*
X117700500Y-148985356D03*
X130700500Y-119540489D03*
X185700500Y-90095622D03*
X106700500Y-143789203D03*
X122700500Y-140325101D03*
X139700500Y-121272540D03*
X181700500Y-55454602D03*
X171700500Y-145521254D03*
X136700500Y-98755877D03*
X154700500Y-129932795D03*
X135700500Y-100487928D03*
X186700500Y-53722551D03*
X158700500Y-60650755D03*
X115700500Y-107416132D03*
X125700500Y-55454602D03*
X141700500Y-124736642D03*
X168700500Y-140325101D03*
X165700500Y-79703316D03*
X132700500Y-129932795D03*
X134700500Y-95291775D03*
X181700500Y-110880234D03*
X108700500Y-112612285D03*
X133700500Y-97023826D03*
X148700500Y-102219979D03*
X99700500Y-69311010D03*
X156700500Y-53722551D03*
X147700500Y-124736642D03*
X183700500Y-90095622D03*
X156700500Y-71043061D03*
X125700500Y-62382806D03*
X141700500Y-117808438D03*
X125700500Y-58918704D03*
X128700500Y-112612285D03*
X164700500Y-60650755D03*
X138700500Y-105684081D03*
X174700500Y-105684081D03*
X182700500Y-136860999D03*
X178700500Y-112612285D03*
X164700500Y-129932795D03*
X177700500Y-90095622D03*
X137700500Y-107416132D03*
X166700500Y-116076387D03*
X176700500Y-143789203D03*
X128700500Y-129932795D03*
X107700500Y-142057152D03*
X135700500Y-55454602D03*
X153700500Y-138593050D03*
X128700500Y-77971265D03*
X139700500Y-55454602D03*
X137700500Y-128200744D03*
X131700500Y-117808438D03*
X174700500Y-67578959D03*
X123700500Y-128200744D03*
X101700500Y-69311010D03*
X179700500Y-69311010D03*
X158700500Y-81435367D03*
X164700500Y-123004591D03*
X110700500Y-102219979D03*
X153700500Y-62382806D03*
X127700500Y-79703316D03*
X108700500Y-129932795D03*
X183700500Y-117808438D03*
X170700500Y-133396897D03*
X98700500Y-71043061D03*
X134700500Y-84899469D03*
X155700500Y-117808438D03*
X144700500Y-133396897D03*
X181700500Y-135128948D03*
X162700500Y-105684081D03*
X112700500Y-116076387D03*
X147700500Y-69311010D03*
X156700500Y-109148183D03*
X98700500Y-143789203D03*
X115700500Y-62382806D03*
X185700500Y-83167418D03*
X94700500Y-98755877D03*
X152700500Y-119540489D03*
X113700500Y-138593050D03*
X111700500Y-121272540D03*
X133700500Y-69311010D03*
X168700500Y-91827673D03*
X151700500Y-148985356D03*
X126700500Y-116076387D03*
X123700500Y-100487928D03*
X130700500Y-102219979D03*
X170700500Y-116076387D03*
X145700500Y-55454602D03*
X122700500Y-126468693D03*
X97700500Y-145521254D03*
X182700500Y-88363571D03*
X144700500Y-57186653D03*
X165700500Y-103952030D03*
X174700500Y-102219979D03*
X114700500Y-147253305D03*
X166700500Y-57186653D03*
X157700500Y-128200744D03*
X154700500Y-119540489D03*
X124700500Y-98755877D03*
X135700500Y-103952030D03*
X98700500Y-95291775D03*
X121700500Y-138593050D03*
X186700500Y-77971265D03*
X125700500Y-100487928D03*
X146700500Y-71043061D03*
X171700500Y-135128948D03*
X184700500Y-95291775D03*
X178700500Y-98755877D03*
X91700500Y-93559724D03*
X149700500Y-58918704D03*
X124700500Y-112612285D03*
X156700500Y-60650755D03*
X173700500Y-62382806D03*
X158700500Y-71043061D03*
X184700500Y-140325101D03*
X94700500Y-57186653D03*
X151700500Y-90095622D03*
X167700500Y-76239214D03*
X150700500Y-109148183D03*
X177700500Y-117808438D03*
X169700500Y-135128948D03*
X176700500Y-102219979D03*
X120700500Y-105684081D03*
X151700500Y-58918704D03*
X140700500Y-71043061D03*
X114700500Y-123004591D03*
X101700500Y-124736642D03*
X102700500Y-109148183D03*
X95700500Y-128200744D03*
X126700500Y-105684081D03*
X178700500Y-74507163D03*
X152700500Y-95291775D03*
X115700500Y-121272540D03*
X145700500Y-135128948D03*
X101700500Y-128200744D03*
X162700500Y-98755877D03*
X156700500Y-57186653D03*
X106700500Y-129932795D03*
X178700500Y-105684081D03*
X114700500Y-102219979D03*
X103700500Y-97023826D03*
X100700500Y-98755877D03*
X108700500Y-116076387D03*
X125700500Y-135128948D03*
X142700500Y-109148183D03*
X138700500Y-119540489D03*
X112700500Y-84899469D03*
X167700500Y-83167418D03*
X92700500Y-123004591D03*
X134700500Y-98755877D03*
X128700500Y-143789203D03*
X124700500Y-126468693D03*
X185700500Y-128200744D03*
X117700500Y-131664846D03*
X126700500Y-91827673D03*
X90700500Y-126468693D03*
X146700500Y-147253305D03*
X156700500Y-77971265D03*
X128700500Y-67578959D03*
X115700500Y-93559724D03*
X161700500Y-142057152D03*
X170700500Y-129932795D03*
X113700500Y-62382806D03*
X156700500Y-112612285D03*
X158700500Y-57186653D03*
X179700500Y-110880234D03*
X177700500Y-138593050D03*
X179700500Y-128200744D03*
X90700500Y-143789203D03*
X179700500Y-97023826D03*
X132700500Y-98755877D03*
X185700500Y-138593050D03*
X163700500Y-124736642D03*
X111700500Y-124736642D03*
X159700500Y-93559724D03*
X177700500Y-128200744D03*
X93700500Y-69311010D03*
X96700500Y-119540489D03*
X143700500Y-145521254D03*
X161700500Y-131664846D03*
X121700500Y-72275112D03*
X118700500Y-109148183D03*
X97700500Y-76239214D03*
X108700500Y-91827673D03*
X135700500Y-93559724D03*
X153700500Y-117808438D03*
X96700500Y-140325101D03*
X161700500Y-55454602D03*
X115700500Y-110880234D03*
X178700500Y-140325101D03*
X97700500Y-58918704D03*
X114200500Y-69311010D03*
X160700500Y-140325101D03*
X130700500Y-109148183D03*
X143700500Y-128200744D03*
X129700500Y-148985356D03*
X106700500Y-123004591D03*
X139700500Y-62382806D03*
X107200500Y-103952030D03*
X125700500Y-79703316D03*
X142700500Y-102219979D03*
X160700500Y-60650755D03*
X113700500Y-121272540D03*
X147700500Y-131664846D03*
X133700500Y-100487928D03*
X157700500Y-100487928D03*
X166700500Y-129932795D03*
X163700500Y-128200744D03*
X179700500Y-103952030D03*
X181700500Y-93559724D03*
X157700500Y-97023826D03*
X117700500Y-93559724D03*
X125700500Y-69311010D03*
X176700500Y-60650755D03*
X154700500Y-57186653D03*
X173700500Y-93559724D03*
X184700500Y-57186653D03*
X127700500Y-131664846D03*
X186700500Y-105684081D03*
X182700500Y-60650755D03*
X119700500Y-128200744D03*
X168700500Y-116076387D03*
X166700500Y-53722551D03*
X139700500Y-93559724D03*
X95700500Y-58918704D03*
X132700500Y-109148183D03*
X127700500Y-100487928D03*
X141700500Y-62382806D03*
X138700500Y-95291775D03*
X99700500Y-90095622D03*
X126700500Y-95291775D03*
X108700500Y-123004591D03*
X143700500Y-121272540D03*
X109700500Y-142057152D03*
X113700500Y-103952030D03*
X131700500Y-72775112D03*
X160700500Y-105684081D03*
X105700500Y-138593050D03*
X159700500Y-121272540D03*
X108700500Y-119540489D03*
X155700500Y-148985356D03*
X129700500Y-117808438D03*
X115700500Y-128200744D03*
X142700500Y-71043061D03*
X114200500Y-93559724D03*
X170700500Y-95291775D03*
X116700500Y-129932795D03*
X96700500Y-77971265D03*
X154700500Y-123004591D03*
X150700500Y-116076387D03*
X109700500Y-76239214D03*
X125700500Y-148985356D03*
X159700500Y-148985356D03*
X96700500Y-105684081D03*
X136700500Y-133396897D03*
X95700500Y-62382806D03*
X145700500Y-124736642D03*
X158700500Y-123004591D03*
X187700500Y-100487928D03*
X187700500Y-121272540D03*
X120700500Y-123004591D03*
X152700500Y-71043061D03*
X100700500Y-77971265D03*
X130700500Y-133396897D03*
X127700500Y-69311010D03*
X119700500Y-117808438D03*
X107700500Y-117808438D03*
X149700500Y-103952030D03*
X125700500Y-138593050D03*
X183700500Y-145521254D03*
X160700500Y-147253305D03*
X164700500Y-102219979D03*
X153700500Y-100487928D03*
X148700500Y-57186653D03*
X172700500Y-81435367D03*
X140700500Y-84899469D03*
X165700500Y-117808438D03*
X187700500Y-55454602D03*
X109700500Y-145521254D03*
X119700500Y-138593050D03*
X147700500Y-107416132D03*
X119700500Y-121272540D03*
X90700500Y-60650755D03*
X121700500Y-110880234D03*
X184700500Y-119540489D03*
X123700500Y-135128948D03*
X180700500Y-91827673D03*
X134700500Y-119540489D03*
X149700500Y-145521254D03*
X102700500Y-102219979D03*
X123700500Y-97023826D03*
X182700500Y-84899469D03*
X162700500Y-60650755D03*
X120700500Y-77971265D03*
X187700500Y-142057152D03*
X141700500Y-72775112D03*
X114700500Y-57186653D03*
X123700500Y-90095622D03*
X165700500Y-148985356D03*
X166700500Y-126468693D03*
X155700500Y-58918704D03*
X112700500Y-60650755D03*
X101700500Y-131664846D03*
X168700500Y-123004591D03*
X117700500Y-117808438D03*
X90700500Y-109148183D03*
X93700500Y-121272540D03*
X94700500Y-109148183D03*
X129700500Y-121272540D03*
X103700500Y-62382806D03*
X181700500Y-145521254D03*
X138700500Y-143789203D03*
X164700500Y-109148183D03*
X104700500Y-71043061D03*
X143700500Y-83667418D03*
X177700500Y-103952030D03*
X180700500Y-143789203D03*
X112700500Y-133396897D03*
X174700500Y-91827673D03*
X144700500Y-123004591D03*
X141700500Y-58918704D03*
X175700500Y-93559724D03*
X119700500Y-100487928D03*
X157700500Y-76239214D03*
X171700500Y-83167418D03*
X175700500Y-100487928D03*
X147700500Y-72775112D03*
X149700500Y-121272540D03*
X172700500Y-67578959D03*
X162700500Y-57186653D03*
X112700500Y-119540489D03*
X150700500Y-77971265D03*
X100700500Y-71043061D03*
X123700500Y-142057152D03*
X169700500Y-79703316D03*
X184700500Y-136860999D03*
X101700500Y-72775112D03*
X161700500Y-97023826D03*
X128700500Y-105684081D03*
X186700500Y-133396897D03*
X121700500Y-76239214D03*
X113700500Y-110880234D03*
X185700500Y-107416132D03*
X111700500Y-90095622D03*
X174700500Y-98755877D03*
X116700500Y-57186653D03*
X125700500Y-128200744D03*
X139700500Y-148985356D03*
X115700500Y-145521254D03*
X140700500Y-143789203D03*
X148700500Y-123004591D03*
X164700500Y-84899469D03*
X157700500Y-62382806D03*
X128700500Y-123004591D03*
X150700500Y-91827673D03*
X102700500Y-91827673D03*
X116700500Y-109148183D03*
X134700500Y-109148183D03*
X180700500Y-95291775D03*
X121700500Y-135128948D03*
X123700500Y-138593050D03*
X183700500Y-110880234D03*
X115700500Y-103952030D03*
X148700500Y-91827673D03*
X116700500Y-98755877D03*
X114700500Y-133396897D03*
X159700500Y-76239214D03*
X132700500Y-112612285D03*
X173700500Y-97023826D03*
X118700500Y-81435367D03*
X170700500Y-71043061D03*
X139700500Y-131664846D03*
X152700500Y-84899469D03*
X182700500Y-67578959D03*
X139700500Y-69311010D03*
X182700500Y-102219979D03*
X173700500Y-90095622D03*
X108700500Y-57186653D03*
X150700500Y-129932795D03*
X156700500Y-147253305D03*
X177700500Y-107416132D03*
X140700500Y-53722551D03*
X124700500Y-95291775D03*
X108700500Y-126468693D03*
X101700500Y-117808438D03*
X181700500Y-103952030D03*
X121700500Y-93559724D03*
X143700500Y-93559724D03*
X112700500Y-129932795D03*
X153700500Y-93559724D03*
X144700500Y-119540489D03*
X175700500Y-145521254D03*
X187700500Y-110880234D03*
X161700500Y-110880234D03*
X169700500Y-142057152D03*
X152700500Y-129932795D03*
X136700500Y-147253305D03*
X110700500Y-74507163D03*
X186700500Y-71043061D03*
X160700500Y-129932795D03*
X180700500Y-129932795D03*
X120700500Y-102219979D03*
X152700500Y-126468693D03*
X114700500Y-129932795D03*
X167700500Y-128200744D03*
X184700500Y-105684081D03*
X106700500Y-77971265D03*
X118700500Y-129932795D03*
X148700500Y-133396897D03*
X99700500Y-72775112D03*
X134700500Y-143789203D03*
X169700500Y-93559724D03*
X113700500Y-117808438D03*
X134700500Y-129932795D03*
X124700500Y-91827673D03*
X145700500Y-110880234D03*
X101700500Y-90095622D03*
X137700500Y-69311010D03*
X122700500Y-105684081D03*
X149700500Y-107416132D03*
X155700500Y-97023826D03*
X159700500Y-83167418D03*
X186700500Y-84899469D03*
X154700500Y-112612285D03*
X143700500Y-107416132D03*
X121700500Y-58918704D03*
X138700500Y-112612285D03*
X139700500Y-128200744D03*
X146700500Y-105684081D03*
X152700500Y-133396897D03*
X113700500Y-100487928D03*
X108700500Y-74507163D03*
X144700500Y-105684081D03*
X108700500Y-109148183D03*
X146700500Y-53722551D03*
X151700500Y-72775112D03*
X157700500Y-83167418D03*
X153700500Y-124736642D03*
X184700500Y-147253305D03*
X98700500Y-74507163D03*
X118700500Y-102219979D03*
X170700500Y-112612285D03*
X138700500Y-126468693D03*
X128700500Y-116076387D03*
X96700500Y-95291775D03*
X119700500Y-110880234D03*
X134054053Y-83520971D03*
X178700500Y-143789203D03*
X110700500Y-57186653D03*
X176700500Y-133396897D03*
X144700500Y-53722551D03*
X154700500Y-147253305D03*
X187700500Y-97023826D03*
X99700500Y-58918704D03*
X155700500Y-90095622D03*
X181346947Y-80056869D03*
X178700500Y-129932795D03*
X146700500Y-102219979D03*
X111700500Y-103952030D03*
X179700500Y-93559724D03*
X161700500Y-107416132D03*
X122700500Y-57186653D03*
X185700500Y-121272540D03*
X151700500Y-93559724D03*
X105700500Y-128200744D03*
X113700500Y-128200744D03*
X176700500Y-71043061D03*
X139700500Y-97023826D03*
X145700500Y-148985356D03*
X129700500Y-107416132D03*
X179700500Y-121272540D03*
X133700500Y-107416132D03*
X96700500Y-112612285D03*
X156700500Y-81435367D03*
X136700500Y-71043061D03*
X160700500Y-53722551D03*
X161700500Y-76239214D03*
X187700500Y-145521254D03*
X142700500Y-60650755D03*
X108700500Y-84899469D03*
X185700500Y-79703316D03*
X148700500Y-126468693D03*
X95700500Y-148985356D03*
X103700500Y-76239214D03*
X178700500Y-88363571D03*
X101700500Y-121272540D03*
X111700500Y-62382806D03*
X101700500Y-62382806D03*
X183700500Y-69311010D03*
X175700500Y-97023826D03*
X114700500Y-77971265D03*
X171700500Y-76239214D03*
X179700500Y-114344336D03*
X138700500Y-67578959D03*
X107700500Y-83167418D03*
X127700500Y-138593050D03*
X162700500Y-129932795D03*
X126700500Y-98755877D03*
X123700500Y-58918704D03*
X131700500Y-121272540D03*
X179700500Y-76239214D03*
X132700500Y-84899469D03*
X148700500Y-140325101D03*
X161700500Y-100487928D03*
X129700500Y-62382806D03*
X152700500Y-102219979D03*
X165700500Y-72775112D03*
X181700500Y-124736642D03*
X124700500Y-109148183D03*
X129700500Y-135128948D03*
X181700500Y-121772540D03*
X127700500Y-142057152D03*
X185700500Y-62382806D03*
X140700500Y-98755877D03*
X175700500Y-103952030D03*
X154700500Y-109148183D03*
X111700500Y-79703316D03*
X100700500Y-116076387D03*
X139700500Y-100487928D03*
X176700500Y-123004591D03*
X109200500Y-105684081D03*
X96700500Y-98755877D03*
X185700500Y-100487928D03*
X175700500Y-138593050D03*
X162700500Y-123004591D03*
X160700500Y-98755877D03*
X154700500Y-133396897D03*
X187700500Y-124736642D03*
X178700500Y-57186653D03*
X112700500Y-126468693D03*
X124700500Y-119540489D03*
X122700500Y-71043061D03*
X164700500Y-119540489D03*
X138700500Y-140325101D03*
X159700500Y-103952030D03*
X152700500Y-91827673D03*
X142700500Y-116076387D03*
X174700500Y-84899469D03*
X92700500Y-77971265D03*
X100700500Y-123004591D03*
X142700500Y-143789203D03*
X131700500Y-103952030D03*
X174700500Y-81435367D03*
X145700500Y-107416132D03*
X99700500Y-128200744D03*
X182700500Y-105684081D03*
X159700500Y-142057152D03*
X101700500Y-103952030D03*
X168700500Y-119540489D03*
X113700500Y-124736642D03*
X170700500Y-143789203D03*
X124700500Y-81435367D03*
X95700500Y-107416132D03*
X135700500Y-148985356D03*
X156700500Y-98755877D03*
X114700500Y-105684081D03*
X179700500Y-55454602D03*
X114700500Y-74507163D03*
X106700500Y-116076387D03*
X118700500Y-126468693D03*
X145700500Y-97023826D03*
X93700500Y-131664846D03*
X176700500Y-119540489D03*
X124700500Y-123004591D03*
X106700500Y-112612285D03*
X149700500Y-72775112D03*
X94700500Y-81435367D03*
X146700500Y-140325101D03*
X184700500Y-109148183D03*
X179700500Y-107416132D03*
X145700500Y-145521254D03*
X185700500Y-76239214D03*
X141700500Y-107416132D03*
X168700500Y-81435367D03*
X95700500Y-135128948D03*
X143700500Y-97023826D03*
X151700500Y-55454602D03*
X105700500Y-97023826D03*
X100700500Y-119540489D03*
X159700500Y-131664846D03*
X156700500Y-123004591D03*
X91700500Y-142057152D03*
X166700500Y-102219979D03*
X154700500Y-116076387D03*
X167700500Y-124736642D03*
X120700500Y-129932795D03*
X121700500Y-117808438D03*
X160700500Y-109148183D03*
X150700500Y-119540489D03*
X104700500Y-102219979D03*
X113700500Y-97023826D03*
X152700500Y-60650755D03*
X114700500Y-98755877D03*
X153700500Y-121272540D03*
X135700500Y-69311010D03*
X128700500Y-147253305D03*
X177700500Y-100487928D03*
X142700500Y-123004591D03*
X97700500Y-100487928D03*
X96700500Y-147253305D03*
X139700500Y-142057152D03*
X158700500Y-102219979D03*
X120700500Y-126468693D03*
X101700500Y-97023826D03*
X90700500Y-105684081D03*
X179700500Y-148985356D03*
X149700500Y-110880234D03*
X90700500Y-57186653D03*
X94700500Y-74507163D03*
X118700500Y-98755877D03*
X143700500Y-142057152D03*
X168700500Y-143789203D03*
X153700500Y-90095622D03*
X166700500Y-77971265D03*
X144700500Y-98755877D03*
X136700500Y-123004591D03*
X135700500Y-90095622D03*
X149700500Y-62382806D03*
X109700500Y-121272540D03*
X122700500Y-91827673D03*
X185700500Y-93559724D03*
X107700500Y-128200744D03*
X95700500Y-145521254D03*
X160700500Y-77971265D03*
X134700500Y-60650755D03*
X174700500Y-71043061D03*
X183700500Y-55454602D03*
X178700500Y-147253305D03*
X175700500Y-72775112D03*
X121700500Y-107416132D03*
X171700500Y-121272540D03*
X110700500Y-126468693D03*
X160700500Y-123004591D03*
X139700500Y-110880234D03*
X177700500Y-79703316D03*
X187700500Y-72775112D03*
X122700500Y-60650755D03*
X111700500Y-148985356D03*
X106700500Y-105184081D03*
X127700500Y-97023826D03*
X133700500Y-93559724D03*
X169700500Y-138593050D03*
X140700500Y-112612285D03*
X160700500Y-102219979D03*
X179700500Y-142057152D03*
X91700500Y-55454602D03*
X135700500Y-97023826D03*
X126700500Y-112612285D03*
X127700500Y-145521254D03*
X182700500Y-91827673D03*
X151700500Y-69311010D03*
X98700500Y-147253305D03*
X95700500Y-121272540D03*
X92700500Y-129932795D03*
X94700500Y-84899469D03*
X186700500Y-64114857D03*
X110700500Y-147253305D03*
X169700500Y-69311010D03*
X144700500Y-143789203D03*
X183700500Y-100487928D03*
X130700500Y-98755877D03*
X156700500Y-95291775D03*
X138700500Y-98755877D03*
X104700500Y-98755877D03*
X155700500Y-135128948D03*
X132700500Y-126468693D03*
X107700500Y-69311010D03*
X112700500Y-81435367D03*
X134700500Y-133396897D03*
X116700500Y-102219979D03*
X141700500Y-55454602D03*
X94700500Y-119540489D03*
X129700500Y-55454602D03*
X94700500Y-147253305D03*
X105700500Y-145521254D03*
X150700500Y-123004591D03*
X138700500Y-133396897D03*
X91700500Y-107416132D03*
X138700500Y-102219979D03*
X98700500Y-119540489D03*
X113700500Y-135128948D03*
X121700500Y-142057152D03*
X94700500Y-77971265D03*
X176700500Y-84899469D03*
X122700500Y-123004591D03*
X117700500Y-100487928D03*
X127700500Y-121272540D03*
X175700500Y-69311010D03*
X109700500Y-90095622D03*
X167700500Y-107416132D03*
X147700500Y-58918704D03*
X168700500Y-60650755D03*
X102700500Y-84899469D03*
X127700500Y-117808438D03*
X139700500Y-103952030D03*
X155700500Y-138593050D03*
X180700500Y-71043061D03*
X172700500Y-91827673D03*
X108700500Y-71043061D03*
X94700500Y-95291775D03*
X115700500Y-79703316D03*
X129700500Y-124736642D03*
X152700500Y-57186653D03*
X107700500Y-121272540D03*
X168700500Y-77971265D03*
X136700500Y-95291775D03*
X180700500Y-53722551D03*
X96700500Y-74507163D03*
X143700500Y-103952030D03*
X178700500Y-77971265D03*
X142700500Y-67578959D03*
X185700500Y-72775112D03*
X180700500Y-74507163D03*
X148700500Y-143789203D03*
X183700500Y-103952030D03*
X152700500Y-116076387D03*
X99700500Y-97023826D03*
X124700500Y-116076387D03*
X105700500Y-79703316D03*
X119700500Y-90095622D03*
X108700500Y-143789203D03*
X113700500Y-145521254D03*
X180700500Y-109148183D03*
X116700500Y-119540489D03*
X158700500Y-119540489D03*
X168700500Y-126468693D03*
X104700500Y-95291775D03*
X114700500Y-112612285D03*
X176700500Y-95291775D03*
X142700500Y-140325101D03*
X154700500Y-81435367D03*
X129700500Y-100487928D03*
X135700500Y-83167418D03*
X158700500Y-140325101D03*
X155700500Y-128200744D03*
X101700500Y-142057152D03*
X163700500Y-100487928D03*
X108700500Y-53722551D03*
X158700500Y-109148183D03*
X140700500Y-109148183D03*
X133700500Y-90095622D03*
X168700500Y-133396897D03*
X112700500Y-105684081D03*
X95700500Y-142057152D03*
X146700500Y-126468693D03*
X154700500Y-91827673D03*
X108200500Y-107416132D03*
X111700500Y-145521254D03*
X91700500Y-121272540D03*
X110700500Y-129932795D03*
X163700500Y-142057152D03*
X122700500Y-53722551D03*
X172700500Y-77971265D03*
X165700500Y-121272540D03*
X100700500Y-129932795D03*
X144700500Y-116076387D03*
X186700500Y-116076387D03*
X157700500Y-117808438D03*
X121700500Y-55454602D03*
X159700500Y-107416132D03*
X123700500Y-107416132D03*
X155700500Y-100487928D03*
X125700500Y-103952030D03*
X137700500Y-121272540D03*
X170700500Y-84899469D03*
X164700500Y-112612285D03*
X94700500Y-123004591D03*
X105700500Y-142057152D03*
X134700500Y-126468693D03*
X121700500Y-79703316D03*
X126700500Y-57186653D03*
X119700500Y-103952030D03*
X111700500Y-72775112D03*
X132700500Y-95291775D03*
X130700500Y-105684081D03*
X100700500Y-143789203D03*
%TD*%
%TO.N,Net-(J4-In)*%
D19*
X134437500Y-75180000D02*
X133062500Y-75180000D01*
D20*
X125670000Y-75180000D02*
X132880000Y-75180000D01*
D19*
X134445000Y-75180000D02*
X135820000Y-75180000D01*
D20*
X103710000Y-53220000D02*
G75*
G03*
X125670000Y-75180000I21960000J0D01*
G01*
%TO.N,Net-(J3-In)*%
X173950000Y-149037500D02*
X173950000Y-115510000D01*
X103710000Y-115510000D02*
X103710000Y-149037500D01*
X173950000Y-115510000D02*
G75*
G03*
X138830000Y-80390000I-35120000J0D01*
G01*
X138830000Y-80390000D02*
G75*
G03*
X103710000Y-115510000I0J-35120000D01*
G01*
%TO.N,Net-(R17-Pad2)*%
D19*
X137470000Y-75180000D02*
X140220000Y-75180000D01*
%TO.N,Net-(J5-In)*%
D20*
X151922500Y-75180000D02*
X144810000Y-75180000D01*
D19*
X141870000Y-75180000D02*
X143225000Y-75180000D01*
X144580000Y-75180000D02*
X143225000Y-75180000D01*
D20*
X173950000Y-53152500D02*
G75*
G02*
X151922500Y-75180000I-22027500J0D01*
G01*
%TD*%
%TA.AperFunction,Conductor*%
%TO.N,GND*%
G36*
X99658066Y-51660185D02*
G01*
X99703821Y-51712989D01*
X99714385Y-51777104D01*
X99710000Y-51820016D01*
X99710000Y-53220000D01*
X102059999Y-53220000D01*
X102059999Y-51820028D01*
X102059998Y-51820010D01*
X102055615Y-51777101D01*
X102068385Y-51708408D01*
X102116266Y-51657524D01*
X102178973Y-51640500D01*
X102455523Y-51640500D01*
X102522562Y-51660185D01*
X102568317Y-51712989D01*
X102578881Y-51777101D01*
X102574500Y-51819979D01*
X102574500Y-54620001D01*
X102574501Y-54620018D01*
X102585000Y-54722796D01*
X102585001Y-54722799D01*
X102617819Y-54821836D01*
X102640186Y-54889334D01*
X102696555Y-54980724D01*
X102732289Y-55038657D01*
X102737334Y-55043702D01*
X102770819Y-55105025D01*
X102773251Y-55121405D01*
X102806237Y-55530010D01*
X102917797Y-56448778D01*
X103066255Y-57362286D01*
X103202120Y-58027791D01*
X103251382Y-58269091D01*
X103421632Y-58959825D01*
X103472872Y-59167712D01*
X103527278Y-59355541D01*
X103730362Y-60056668D01*
X103777361Y-60197446D01*
X104023444Y-60934555D01*
X104140009Y-61241911D01*
X104335588Y-61757613D01*
X104351631Y-61799913D01*
X104714390Y-62651340D01*
X104714396Y-62651352D01*
X105111153Y-63487500D01*
X105541257Y-64306995D01*
X106004009Y-65108506D01*
X106343131Y-65644784D01*
X106498666Y-65890744D01*
X106816071Y-66350583D01*
X107024407Y-66652410D01*
X107130348Y-66793391D01*
X107580400Y-67392302D01*
X107917358Y-67805000D01*
X108165729Y-68109200D01*
X108165733Y-68109204D01*
X108779445Y-68801942D01*
X108914411Y-68942456D01*
X109420573Y-69469427D01*
X109943510Y-69971715D01*
X110088057Y-70110554D01*
X110492154Y-70468552D01*
X110780800Y-70724271D01*
X111109722Y-70992827D01*
X111497697Y-71309599D01*
X111744340Y-71494939D01*
X112237590Y-71865593D01*
X112647363Y-72148439D01*
X112999255Y-72391333D01*
X112999265Y-72391339D01*
X112999266Y-72391340D01*
X113781494Y-72885991D01*
X114583005Y-73348743D01*
X115402500Y-73778847D01*
X116235879Y-74174290D01*
X116238659Y-74175609D01*
X116483845Y-74280073D01*
X117090094Y-74538372D01*
X117955457Y-74866560D01*
X118833332Y-75159638D01*
X119722297Y-75417130D01*
X120620909Y-75638618D01*
X121289794Y-75775172D01*
X121527713Y-75823744D01*
X122048252Y-75908339D01*
X122441231Y-75972204D01*
X123359988Y-76083762D01*
X124282492Y-76158234D01*
X124282493Y-76158234D01*
X124282505Y-76158235D01*
X125207237Y-76195500D01*
X125207247Y-76195500D01*
X132980019Y-76195500D01*
X132980020Y-76195499D01*
X133176211Y-76156475D01*
X133361020Y-76079925D01*
X133375464Y-76070273D01*
X133442135Y-76049394D01*
X133509516Y-76067875D01*
X133550471Y-76109223D01*
X133614528Y-76215185D01*
X133614531Y-76215189D01*
X133717015Y-76317673D01*
X133750500Y-76378996D01*
X133745516Y-76448688D01*
X133717015Y-76493035D01*
X133614928Y-76595121D01*
X133614927Y-76595122D01*
X133526980Y-76740604D01*
X133476409Y-76902893D01*
X133470000Y-76973427D01*
X133470000Y-76980000D01*
X135419999Y-76980000D01*
X135419999Y-76973417D01*
X135413591Y-76902897D01*
X135413590Y-76902892D01*
X135363018Y-76740603D01*
X135275072Y-76595122D01*
X135172984Y-76493034D01*
X135139499Y-76431711D01*
X135144483Y-76362019D01*
X135172980Y-76317676D01*
X135275472Y-76215185D01*
X135293290Y-76185711D01*
X135344813Y-76138526D01*
X135413672Y-76126685D01*
X135436289Y-76131475D01*
X135492804Y-76149086D01*
X135563384Y-76155500D01*
X135563387Y-76155500D01*
X136076613Y-76155500D01*
X136076616Y-76155500D01*
X136147196Y-76149086D01*
X136309606Y-76098478D01*
X136455185Y-76010472D01*
X136494111Y-75971546D01*
X136557319Y-75908339D01*
X136618642Y-75874854D01*
X136688334Y-75879838D01*
X136732681Y-75908339D01*
X136834811Y-76010469D01*
X136834813Y-76010470D01*
X136834815Y-76010472D01*
X136980394Y-76098478D01*
X137142804Y-76149086D01*
X137213384Y-76155500D01*
X137213387Y-76155500D01*
X137726613Y-76155500D01*
X137726616Y-76155500D01*
X137797196Y-76149086D01*
X137853705Y-76131476D01*
X137923563Y-76130325D01*
X137982956Y-76167126D01*
X137996710Y-76185711D01*
X138014528Y-76215185D01*
X138014531Y-76215189D01*
X138117015Y-76317673D01*
X138150500Y-76378996D01*
X138145516Y-76448688D01*
X138117015Y-76493035D01*
X138014928Y-76595121D01*
X138014927Y-76595122D01*
X137926980Y-76740604D01*
X137876409Y-76902893D01*
X137870000Y-76973427D01*
X137870000Y-76980000D01*
X139819999Y-76980000D01*
X139819999Y-76973417D01*
X139813591Y-76902897D01*
X139813590Y-76902892D01*
X139763018Y-76740603D01*
X139675072Y-76595122D01*
X139572984Y-76493034D01*
X139539499Y-76431711D01*
X139544483Y-76362019D01*
X139572980Y-76317676D01*
X139675472Y-76215185D01*
X139693290Y-76185711D01*
X139744813Y-76138526D01*
X139813672Y-76126685D01*
X139836289Y-76131475D01*
X139892804Y-76149086D01*
X139963384Y-76155500D01*
X139963387Y-76155500D01*
X140476613Y-76155500D01*
X140476616Y-76155500D01*
X140547196Y-76149086D01*
X140709606Y-76098478D01*
X140855185Y-76010472D01*
X140894111Y-75971546D01*
X140957319Y-75908339D01*
X141018642Y-75874854D01*
X141088334Y-75879838D01*
X141132681Y-75908339D01*
X141234811Y-76010469D01*
X141234813Y-76010470D01*
X141234815Y-76010472D01*
X141380394Y-76098478D01*
X141542804Y-76149086D01*
X141613384Y-76155500D01*
X141613387Y-76155500D01*
X142126613Y-76155500D01*
X142126616Y-76155500D01*
X142197196Y-76149086D01*
X142236876Y-76136720D01*
X142306732Y-76135569D01*
X142366125Y-76172369D01*
X142379878Y-76190951D01*
X142382628Y-76195500D01*
X142394530Y-76215188D01*
X142497015Y-76317673D01*
X142530500Y-76378996D01*
X142525516Y-76448688D01*
X142497015Y-76493035D01*
X142394928Y-76595121D01*
X142394927Y-76595122D01*
X142306980Y-76740604D01*
X142256409Y-76902893D01*
X142250000Y-76973427D01*
X142250000Y-76980000D01*
X144199999Y-76980000D01*
X144199999Y-76973417D01*
X144193591Y-76902897D01*
X144193590Y-76902892D01*
X144143018Y-76740603D01*
X144055072Y-76595122D01*
X143952984Y-76493034D01*
X143919499Y-76431711D01*
X143924483Y-76362019D01*
X143952983Y-76317673D01*
X144055472Y-76215185D01*
X144125282Y-76099704D01*
X144176809Y-76052519D01*
X144245668Y-76040680D01*
X144300287Y-76060753D01*
X144328980Y-76079925D01*
X144328981Y-76079925D01*
X144328982Y-76079926D01*
X144396325Y-76107820D01*
X144513789Y-76156475D01*
X144687128Y-76190954D01*
X144709977Y-76195499D01*
X144709981Y-76195500D01*
X144709982Y-76195500D01*
X152386623Y-76195500D01*
X153314070Y-76158125D01*
X153314080Y-76158124D01*
X153314084Y-76158124D01*
X154239298Y-76083433D01*
X155160755Y-75971548D01*
X155755736Y-75874854D01*
X156076955Y-75822651D01*
X156180393Y-75801533D01*
X156986425Y-75636981D01*
X157887677Y-75414843D01*
X158779253Y-75156595D01*
X159659708Y-74862656D01*
X160527613Y-74533503D01*
X161052663Y-74309800D01*
X161381548Y-74169676D01*
X161552574Y-74088523D01*
X162220165Y-73771747D01*
X163042067Y-73340380D01*
X163845933Y-72876267D01*
X164630459Y-72380163D01*
X165394373Y-71852872D01*
X166136435Y-71295248D01*
X166855443Y-70708197D01*
X167550228Y-70092670D01*
X168219666Y-69449666D01*
X168862670Y-68780228D01*
X169478197Y-68085443D01*
X169974728Y-67477302D01*
X170065245Y-67366439D01*
X170297396Y-67057502D01*
X170622872Y-66624373D01*
X171150163Y-65860459D01*
X171646267Y-65075933D01*
X172110380Y-64272067D01*
X172541747Y-63450165D01*
X172862455Y-62774286D01*
X172939676Y-62611548D01*
X173134192Y-62155000D01*
X173303503Y-61757613D01*
X173632656Y-60889708D01*
X173926595Y-60009253D01*
X174184843Y-59117677D01*
X174406981Y-58216425D01*
X174592650Y-57306959D01*
X174741548Y-56390755D01*
X174853433Y-55469298D01*
X174886985Y-55053666D01*
X174887437Y-55052486D01*
X175600001Y-55052486D01*
X175610494Y-55155197D01*
X175665641Y-55321619D01*
X175665643Y-55321624D01*
X175757684Y-55470845D01*
X175881654Y-55594815D01*
X176030875Y-55686856D01*
X176030880Y-55686858D01*
X176197302Y-55742005D01*
X176197309Y-55742006D01*
X176300019Y-55752499D01*
X176524999Y-55752499D01*
X177025000Y-55752499D01*
X177249972Y-55752499D01*
X177249986Y-55752498D01*
X177352697Y-55742005D01*
X177519119Y-55686858D01*
X177519124Y-55686856D01*
X177668345Y-55594815D01*
X177792315Y-55470845D01*
X177884356Y-55321624D01*
X177884358Y-55321619D01*
X177939505Y-55155197D01*
X177939506Y-55155190D01*
X177949999Y-55052486D01*
X177950000Y-55052473D01*
X177950000Y-53652500D01*
X177025000Y-53652500D01*
X177025000Y-55752499D01*
X176524999Y-55752499D01*
X176525000Y-55752498D01*
X176525000Y-53652500D01*
X175600001Y-53652500D01*
X175600001Y-55052486D01*
X174887437Y-55052486D01*
X174912000Y-54988430D01*
X174922892Y-54975974D01*
X174927712Y-54971156D01*
X175019814Y-54821834D01*
X175074999Y-54655297D01*
X175085500Y-54552509D01*
X175085499Y-53152500D01*
X175085499Y-51764500D01*
X175105184Y-51697461D01*
X175157987Y-51651706D01*
X175209499Y-51640500D01*
X175476000Y-51640500D01*
X175543039Y-51660185D01*
X175588794Y-51712989D01*
X175600000Y-51764500D01*
X175600000Y-53152500D01*
X177949999Y-53152500D01*
X177949999Y-51764500D01*
X177969684Y-51697461D01*
X178022488Y-51651706D01*
X178073999Y-51640500D01*
X183784108Y-51640500D01*
X183847294Y-51640500D01*
X183852702Y-51640617D01*
X184236773Y-51657386D01*
X184247505Y-51658326D01*
X184625963Y-51708150D01*
X184636601Y-51710025D01*
X185009279Y-51792647D01*
X185019720Y-51795445D01*
X185383765Y-51910227D01*
X185393911Y-51913920D01*
X185746578Y-52060000D01*
X185756369Y-52064566D01*
X186094942Y-52240816D01*
X186104310Y-52246224D01*
X186426244Y-52451318D01*
X186435105Y-52457523D01*
X186737930Y-52689889D01*
X186746217Y-52696843D01*
X187027635Y-52954715D01*
X187035284Y-52962364D01*
X187293156Y-53243782D01*
X187300110Y-53252069D01*
X187532476Y-53554894D01*
X187538681Y-53563755D01*
X187743775Y-53885689D01*
X187749183Y-53895057D01*
X187925430Y-54233623D01*
X187930002Y-54243427D01*
X188076075Y-54596078D01*
X188079775Y-54606244D01*
X188194553Y-54970276D01*
X188197353Y-54980724D01*
X188279972Y-55353390D01*
X188281850Y-55364044D01*
X188295707Y-55469296D01*
X188331609Y-55742005D01*
X188331671Y-55742472D01*
X188332614Y-55753248D01*
X188349382Y-56137297D01*
X188349500Y-56142706D01*
X188349500Y-146137293D01*
X188349382Y-146142702D01*
X188332614Y-146526751D01*
X188331671Y-146537527D01*
X188281850Y-146915955D01*
X188279972Y-146926609D01*
X188197353Y-147299275D01*
X188194553Y-147309723D01*
X188079775Y-147673755D01*
X188076075Y-147683921D01*
X187930002Y-148036572D01*
X187925430Y-148046376D01*
X187749183Y-148384942D01*
X187743775Y-148394310D01*
X187538681Y-148716244D01*
X187532476Y-148725105D01*
X187300110Y-149027930D01*
X187293156Y-149036217D01*
X187035284Y-149317635D01*
X187027635Y-149325284D01*
X186746217Y-149583156D01*
X186737930Y-149590110D01*
X186435105Y-149822476D01*
X186426244Y-149828681D01*
X186104310Y-150033775D01*
X186094942Y-150039183D01*
X185756376Y-150215430D01*
X185746572Y-150220002D01*
X185393921Y-150366075D01*
X185383755Y-150369775D01*
X185019723Y-150484553D01*
X185009275Y-150487353D01*
X184636609Y-150569972D01*
X184625955Y-150571850D01*
X184247527Y-150621671D01*
X184236751Y-150622614D01*
X183852703Y-150639382D01*
X183847294Y-150639500D01*
X178066675Y-150639500D01*
X177999636Y-150619815D01*
X177953881Y-150567011D01*
X177943317Y-150502898D01*
X177949999Y-150437488D01*
X177950000Y-150437473D01*
X177950000Y-149037500D01*
X175600001Y-149037500D01*
X175600001Y-150437486D01*
X175606684Y-150502898D01*
X175593914Y-150571591D01*
X175546034Y-150622475D01*
X175483326Y-150639500D01*
X175202178Y-150639500D01*
X175135139Y-150619815D01*
X175089384Y-150567011D01*
X175078820Y-150502898D01*
X175085499Y-150437518D01*
X175085499Y-150437516D01*
X175085500Y-150437509D01*
X175085499Y-147637492D01*
X175074999Y-147534703D01*
X175019814Y-147368166D01*
X174983961Y-147310038D01*
X174979265Y-147293480D01*
X174970523Y-147279877D01*
X174965500Y-147244942D01*
X174965500Y-147137513D01*
X175600000Y-147137513D01*
X175600000Y-148537500D01*
X176525000Y-148537500D01*
X177025000Y-148537500D01*
X177949999Y-148537500D01*
X177949999Y-147137528D01*
X177949998Y-147137513D01*
X177939505Y-147034802D01*
X177884358Y-146868380D01*
X177884356Y-146868375D01*
X177792315Y-146719154D01*
X177668345Y-146595184D01*
X177519124Y-146503143D01*
X177519119Y-146503141D01*
X177352697Y-146447994D01*
X177352690Y-146447993D01*
X177249986Y-146437500D01*
X177025000Y-146437500D01*
X177025000Y-148537500D01*
X176525000Y-148537500D01*
X176525000Y-146437500D01*
X176300029Y-146437500D01*
X176300012Y-146437501D01*
X176197302Y-146447994D01*
X176030880Y-146503141D01*
X176030875Y-146503143D01*
X175881654Y-146595184D01*
X175757684Y-146719154D01*
X175665643Y-146868375D01*
X175665641Y-146868380D01*
X175610494Y-147034802D01*
X175610493Y-147034809D01*
X175600000Y-147137513D01*
X174965500Y-147137513D01*
X174965500Y-114918692D01*
X174947618Y-114372455D01*
X174926805Y-113736678D01*
X174849457Y-112556573D01*
X174733538Y-111379630D01*
X174579173Y-110207111D01*
X174386527Y-109040270D01*
X174155806Y-107880357D01*
X173887257Y-106728614D01*
X173581168Y-105586275D01*
X173237867Y-104454562D01*
X173237863Y-104454548D01*
X172857719Y-103334682D01*
X172441141Y-102227860D01*
X172427143Y-102194067D01*
X171988561Y-101135236D01*
X171500478Y-100058014D01*
X170977411Y-98997340D01*
X170419920Y-97954347D01*
X169828602Y-96930153D01*
X169828600Y-96930149D01*
X169204093Y-95925860D01*
X168547049Y-94942525D01*
X167858192Y-93981226D01*
X167138249Y-93042977D01*
X166387992Y-92128787D01*
X165608216Y-91239624D01*
X164799783Y-90376469D01*
X163963530Y-89540216D01*
X163100375Y-88731783D01*
X162211212Y-87952007D01*
X161297022Y-87201750D01*
X160358773Y-86481807D01*
X159397474Y-85792950D01*
X158414139Y-85135906D01*
X157409850Y-84511399D01*
X156385648Y-83920077D01*
X155342665Y-83362591D01*
X154281989Y-82839523D01*
X153204763Y-82351438D01*
X152112139Y-81898858D01*
X151005317Y-81482280D01*
X149885451Y-81102136D01*
X148753725Y-80758832D01*
X147611388Y-80452743D01*
X146459619Y-80184188D01*
X145299748Y-79953476D01*
X145299730Y-79953473D01*
X144132889Y-79760827D01*
X144132884Y-79760826D01*
X144132876Y-79760825D01*
X142960377Y-79606462D01*
X141783439Y-79490544D01*
X141783433Y-79490543D01*
X141783427Y-79490543D01*
X140603322Y-79413195D01*
X139421319Y-79374500D01*
X138924100Y-79374500D01*
X138830000Y-79374500D01*
X138238681Y-79374500D01*
X137056678Y-79413195D01*
X135876573Y-79490543D01*
X135876568Y-79490543D01*
X135876560Y-79490544D01*
X134699622Y-79606462D01*
X133527123Y-79760825D01*
X132360251Y-79953476D01*
X131200380Y-80184188D01*
X130048611Y-80452743D01*
X128906274Y-80758832D01*
X127774548Y-81102136D01*
X126654682Y-81482280D01*
X125547860Y-81898858D01*
X124455236Y-82351438D01*
X123378010Y-82839523D01*
X122317334Y-83362591D01*
X121274351Y-83920077D01*
X120250149Y-84511399D01*
X119245860Y-85135906D01*
X118262525Y-85792950D01*
X117301226Y-86481807D01*
X116362977Y-87201750D01*
X115448787Y-87952007D01*
X114559624Y-88731783D01*
X113696469Y-89540216D01*
X112860216Y-90376469D01*
X112051783Y-91239624D01*
X111272007Y-92128787D01*
X110521750Y-93042977D01*
X109801807Y-93981226D01*
X109112950Y-94942525D01*
X108455906Y-95925860D01*
X107831399Y-96930149D01*
X107240077Y-97954351D01*
X106682591Y-98997334D01*
X106159523Y-100058010D01*
X105671438Y-101135236D01*
X105218858Y-102227860D01*
X104802280Y-103334682D01*
X104422136Y-104454548D01*
X104078832Y-105586274D01*
X103772743Y-106728611D01*
X103504188Y-107880380D01*
X103273476Y-109040251D01*
X103080825Y-110207123D01*
X102926462Y-111379622D01*
X102811746Y-112544356D01*
X102810543Y-112556573D01*
X102733195Y-113736678D01*
X102712518Y-114368313D01*
X102694500Y-114918692D01*
X102694500Y-147244942D01*
X102676039Y-147310038D01*
X102640189Y-147368159D01*
X102640186Y-147368166D01*
X102585001Y-147534703D01*
X102585001Y-147534704D01*
X102585000Y-147534704D01*
X102574500Y-147637483D01*
X102574500Y-150437501D01*
X102574501Y-150437516D01*
X102581181Y-150502898D01*
X102568411Y-150571591D01*
X102520531Y-150622475D01*
X102457823Y-150639500D01*
X102176675Y-150639500D01*
X102109636Y-150619815D01*
X102063881Y-150567011D01*
X102053317Y-150502898D01*
X102059999Y-150437488D01*
X102060000Y-150437473D01*
X102060000Y-149037500D01*
X99710001Y-149037500D01*
X99710001Y-150437486D01*
X99716684Y-150502898D01*
X99703914Y-150571591D01*
X99656034Y-150622475D01*
X99593326Y-150639500D01*
X93852706Y-150639500D01*
X93847297Y-150639382D01*
X93463248Y-150622614D01*
X93452474Y-150621671D01*
X93390007Y-150613447D01*
X93074044Y-150571850D01*
X93063390Y-150569972D01*
X92690724Y-150487353D01*
X92680276Y-150484553D01*
X92316244Y-150369775D01*
X92306078Y-150366075D01*
X91953427Y-150220002D01*
X91943623Y-150215430D01*
X91605057Y-150039183D01*
X91595689Y-150033775D01*
X91273755Y-149828681D01*
X91264894Y-149822476D01*
X90962069Y-149590110D01*
X90953782Y-149583156D01*
X90672364Y-149325284D01*
X90664715Y-149317635D01*
X90406843Y-149036217D01*
X90399889Y-149027930D01*
X90167523Y-148725105D01*
X90161318Y-148716244D01*
X89956224Y-148394310D01*
X89950816Y-148384942D01*
X89774569Y-148046376D01*
X89769997Y-148036572D01*
X89623924Y-147683921D01*
X89620224Y-147673755D01*
X89608792Y-147637498D01*
X89505445Y-147309720D01*
X89502646Y-147299275D01*
X89472036Y-147161203D01*
X89466784Y-147137513D01*
X99710000Y-147137513D01*
X99710000Y-148537500D01*
X100635000Y-148537500D01*
X101135000Y-148537500D01*
X102059999Y-148537500D01*
X102059999Y-147137528D01*
X102059998Y-147137513D01*
X102049505Y-147034802D01*
X101994358Y-146868380D01*
X101994356Y-146868375D01*
X101902315Y-146719154D01*
X101778345Y-146595184D01*
X101629124Y-146503143D01*
X101629119Y-146503141D01*
X101462697Y-146447994D01*
X101462690Y-146447993D01*
X101359986Y-146437500D01*
X101135000Y-146437500D01*
X101135000Y-148537500D01*
X100635000Y-148537500D01*
X100635000Y-146437500D01*
X100410029Y-146437500D01*
X100410012Y-146437501D01*
X100307302Y-146447994D01*
X100140880Y-146503141D01*
X100140875Y-146503143D01*
X99991654Y-146595184D01*
X99867684Y-146719154D01*
X99775643Y-146868375D01*
X99775641Y-146868380D01*
X99720494Y-147034802D01*
X99720493Y-147034809D01*
X99710000Y-147137513D01*
X89466784Y-147137513D01*
X89420027Y-146926609D01*
X89418149Y-146915955D01*
X89392240Y-146719154D01*
X89368326Y-146537505D01*
X89367386Y-146526773D01*
X89350618Y-146142702D01*
X89350500Y-146137293D01*
X89350500Y-141093999D01*
X89370185Y-141026960D01*
X89422989Y-140981205D01*
X89474500Y-140969999D01*
X90849999Y-140969999D01*
X91350000Y-140969999D01*
X92749972Y-140969999D01*
X92749986Y-140969998D01*
X92852697Y-140959505D01*
X93019119Y-140904358D01*
X93019124Y-140904356D01*
X93168345Y-140812315D01*
X93292315Y-140688345D01*
X93384356Y-140539124D01*
X93384358Y-140539119D01*
X93439505Y-140372697D01*
X93439506Y-140372690D01*
X93449999Y-140269986D01*
X93450000Y-140269973D01*
X93450000Y-140045000D01*
X91350000Y-140045000D01*
X91350000Y-140969999D01*
X90849999Y-140969999D01*
X90850000Y-140969998D01*
X90850000Y-139545000D01*
X91350000Y-139545000D01*
X93449999Y-139545000D01*
X93449999Y-139320028D01*
X93449998Y-139320013D01*
X93439505Y-139217302D01*
X93384358Y-139050880D01*
X93384356Y-139050875D01*
X93292315Y-138901654D01*
X93168345Y-138777684D01*
X93019124Y-138685643D01*
X93019119Y-138685641D01*
X92852697Y-138630494D01*
X92852690Y-138630493D01*
X92749986Y-138620000D01*
X91350000Y-138620000D01*
X91350000Y-139545000D01*
X90850000Y-139545000D01*
X90850000Y-138620000D01*
X89474500Y-138620000D01*
X89407461Y-138600315D01*
X89361706Y-138547511D01*
X89350500Y-138496000D01*
X89350500Y-135443999D01*
X89370185Y-135376960D01*
X89422989Y-135331205D01*
X89474500Y-135319999D01*
X90849999Y-135319999D01*
X91350000Y-135319999D01*
X92749972Y-135319999D01*
X92749986Y-135319998D01*
X92852697Y-135309505D01*
X93019119Y-135254358D01*
X93019124Y-135254356D01*
X93168345Y-135162315D01*
X93292315Y-135038345D01*
X93384356Y-134889124D01*
X93384358Y-134889119D01*
X93439505Y-134722697D01*
X93439506Y-134722690D01*
X93449999Y-134619986D01*
X93450000Y-134619973D01*
X93450000Y-134395000D01*
X91350000Y-134395000D01*
X91350000Y-135319999D01*
X90849999Y-135319999D01*
X90850000Y-135319998D01*
X90850000Y-133895000D01*
X91350000Y-133895000D01*
X93449999Y-133895000D01*
X93449999Y-133670028D01*
X93449998Y-133670013D01*
X93439505Y-133567302D01*
X93384358Y-133400880D01*
X93384356Y-133400875D01*
X93292315Y-133251654D01*
X93168345Y-133127684D01*
X93019124Y-133035643D01*
X93019119Y-133035641D01*
X92852697Y-132980494D01*
X92852690Y-132980493D01*
X92749986Y-132970000D01*
X91350000Y-132970000D01*
X91350000Y-133895000D01*
X90850000Y-133895000D01*
X90850000Y-132970000D01*
X89474500Y-132970000D01*
X89407461Y-132950315D01*
X89361706Y-132897511D01*
X89350500Y-132846000D01*
X89350500Y-118373609D01*
X89370185Y-118306570D01*
X89422989Y-118260815D01*
X89487104Y-118250251D01*
X89582521Y-118259999D01*
X90982499Y-118259999D01*
X91482500Y-118259999D01*
X92882472Y-118259999D01*
X92882486Y-118259998D01*
X92985197Y-118249505D01*
X93151619Y-118194358D01*
X93151624Y-118194356D01*
X93300845Y-118102315D01*
X93424815Y-117978345D01*
X93516856Y-117829124D01*
X93516858Y-117829119D01*
X93572005Y-117662697D01*
X93572006Y-117662690D01*
X93582499Y-117559986D01*
X93582500Y-117559973D01*
X93582500Y-117335000D01*
X91482500Y-117335000D01*
X91482500Y-118259999D01*
X90982499Y-118259999D01*
X90982500Y-118259998D01*
X90982500Y-116835000D01*
X91482500Y-116835000D01*
X93582499Y-116835000D01*
X93582499Y-116610028D01*
X93582498Y-116610013D01*
X93572005Y-116507302D01*
X93516858Y-116340880D01*
X93516856Y-116340875D01*
X93424815Y-116191654D01*
X93300845Y-116067684D01*
X93151624Y-115975643D01*
X93151619Y-115975641D01*
X92985197Y-115920494D01*
X92985190Y-115920493D01*
X92882486Y-115910000D01*
X91482500Y-115910000D01*
X91482500Y-116835000D01*
X90982500Y-116835000D01*
X90982500Y-115910000D01*
X89582528Y-115910000D01*
X89582510Y-115910001D01*
X89487101Y-115919748D01*
X89418408Y-115906978D01*
X89367524Y-115859097D01*
X89350500Y-115796390D01*
X89350500Y-112723609D01*
X89370185Y-112656570D01*
X89422989Y-112610815D01*
X89487104Y-112600251D01*
X89582521Y-112609999D01*
X90982499Y-112609999D01*
X91482500Y-112609999D01*
X92882472Y-112609999D01*
X92882486Y-112609998D01*
X92985197Y-112599505D01*
X93151619Y-112544358D01*
X93151624Y-112544356D01*
X93300845Y-112452315D01*
X93424815Y-112328345D01*
X93516856Y-112179124D01*
X93516858Y-112179119D01*
X93572005Y-112012697D01*
X93572006Y-112012690D01*
X93582499Y-111909986D01*
X93582500Y-111909973D01*
X93582500Y-111685000D01*
X91482500Y-111685000D01*
X91482500Y-112609999D01*
X90982499Y-112609999D01*
X90982500Y-112609998D01*
X90982500Y-111185000D01*
X91482500Y-111185000D01*
X93582499Y-111185000D01*
X93582499Y-110960028D01*
X93582498Y-110960013D01*
X93572005Y-110857302D01*
X93516858Y-110690880D01*
X93516856Y-110690875D01*
X93424815Y-110541654D01*
X93300845Y-110417684D01*
X93151624Y-110325643D01*
X93151619Y-110325641D01*
X92985197Y-110270494D01*
X92985190Y-110270493D01*
X92882486Y-110260000D01*
X91482500Y-110260000D01*
X91482500Y-111185000D01*
X90982500Y-111185000D01*
X90982500Y-110260000D01*
X89582528Y-110260000D01*
X89582510Y-110260001D01*
X89487101Y-110269748D01*
X89418408Y-110256978D01*
X89367524Y-110209097D01*
X89350500Y-110146390D01*
X89350500Y-92004886D01*
X89370185Y-91937847D01*
X89422989Y-91892092D01*
X89487104Y-91881528D01*
X89570021Y-91889999D01*
X90969999Y-91889999D01*
X91470000Y-91889999D01*
X92869972Y-91889999D01*
X92869986Y-91889998D01*
X92972697Y-91879505D01*
X93139119Y-91824358D01*
X93139124Y-91824356D01*
X93288345Y-91732315D01*
X93412315Y-91608345D01*
X93504356Y-91459124D01*
X93504358Y-91459119D01*
X93559505Y-91292697D01*
X93559506Y-91292690D01*
X93569999Y-91189986D01*
X93570000Y-91189973D01*
X93570000Y-90965000D01*
X91470000Y-90965000D01*
X91470000Y-91889999D01*
X90969999Y-91889999D01*
X90970000Y-91889998D01*
X90970000Y-90465000D01*
X91470000Y-90465000D01*
X93569999Y-90465000D01*
X93569999Y-90240028D01*
X93569998Y-90240013D01*
X93559505Y-90137302D01*
X93504358Y-89970880D01*
X93504356Y-89970875D01*
X93412315Y-89821654D01*
X93288345Y-89697684D01*
X93139124Y-89605643D01*
X93139119Y-89605641D01*
X92972697Y-89550494D01*
X92972690Y-89550493D01*
X92869986Y-89540000D01*
X91470000Y-89540000D01*
X91470000Y-90465000D01*
X90970000Y-90465000D01*
X90970000Y-89540000D01*
X89570028Y-89540000D01*
X89570010Y-89540001D01*
X89487101Y-89548471D01*
X89418408Y-89535701D01*
X89367524Y-89487820D01*
X89350500Y-89425113D01*
X89350500Y-86354886D01*
X89370185Y-86287847D01*
X89422989Y-86242092D01*
X89487104Y-86231528D01*
X89570021Y-86239999D01*
X90969999Y-86239999D01*
X91470000Y-86239999D01*
X92869972Y-86239999D01*
X92869986Y-86239998D01*
X92972697Y-86229505D01*
X93139119Y-86174358D01*
X93139124Y-86174356D01*
X93288345Y-86082315D01*
X93412315Y-85958345D01*
X93504356Y-85809124D01*
X93504358Y-85809119D01*
X93559505Y-85642697D01*
X93559506Y-85642690D01*
X93569999Y-85539986D01*
X93570000Y-85539973D01*
X93570000Y-85315000D01*
X91470000Y-85315000D01*
X91470000Y-86239999D01*
X90969999Y-86239999D01*
X90970000Y-86239998D01*
X90970000Y-84815000D01*
X91470000Y-84815000D01*
X93569999Y-84815000D01*
X93569999Y-84590028D01*
X93569998Y-84590013D01*
X93559505Y-84487302D01*
X93504358Y-84320880D01*
X93504356Y-84320875D01*
X93412315Y-84171654D01*
X93288345Y-84047684D01*
X93139124Y-83955643D01*
X93139119Y-83955641D01*
X92972697Y-83900494D01*
X92972690Y-83900493D01*
X92869986Y-83890000D01*
X91470000Y-83890000D01*
X91470000Y-84815000D01*
X90970000Y-84815000D01*
X90970000Y-83890000D01*
X89570028Y-83890000D01*
X89570010Y-83890001D01*
X89487101Y-83898471D01*
X89418408Y-83885701D01*
X89367524Y-83837820D01*
X89350500Y-83775113D01*
X89350500Y-77486582D01*
X133470001Y-77486582D01*
X133476408Y-77557102D01*
X133476409Y-77557107D01*
X133526981Y-77719396D01*
X133614927Y-77864877D01*
X133735122Y-77985072D01*
X133880604Y-78073019D01*
X133880603Y-78073019D01*
X134042894Y-78123590D01*
X134042892Y-78123590D01*
X134113418Y-78129999D01*
X134695000Y-78129999D01*
X134776581Y-78129999D01*
X134847102Y-78123591D01*
X134847107Y-78123590D01*
X135009396Y-78073018D01*
X135154877Y-77985072D01*
X135275072Y-77864877D01*
X135363019Y-77719395D01*
X135413590Y-77557106D01*
X135419999Y-77486582D01*
X137870001Y-77486582D01*
X137876408Y-77557102D01*
X137876409Y-77557107D01*
X137926981Y-77719396D01*
X138014927Y-77864877D01*
X138135122Y-77985072D01*
X138280604Y-78073019D01*
X138280603Y-78073019D01*
X138442894Y-78123590D01*
X138442892Y-78123590D01*
X138513418Y-78129999D01*
X139095000Y-78129999D01*
X139176581Y-78129999D01*
X139247102Y-78123591D01*
X139247107Y-78123590D01*
X139409396Y-78073018D01*
X139554877Y-77985072D01*
X139675072Y-77864877D01*
X139763019Y-77719395D01*
X139813590Y-77557106D01*
X139819999Y-77486582D01*
X142250001Y-77486582D01*
X142256408Y-77557102D01*
X142256409Y-77557107D01*
X142306981Y-77719396D01*
X142394927Y-77864877D01*
X142515122Y-77985072D01*
X142660604Y-78073019D01*
X142660603Y-78073019D01*
X142822894Y-78123590D01*
X142822892Y-78123590D01*
X142893418Y-78129999D01*
X143475000Y-78129999D01*
X143556581Y-78129999D01*
X143627102Y-78123591D01*
X143627107Y-78123590D01*
X143789396Y-78073018D01*
X143934877Y-77985072D01*
X144055072Y-77864877D01*
X144143019Y-77719395D01*
X144193590Y-77557106D01*
X144200000Y-77486572D01*
X144200000Y-77480000D01*
X143475000Y-77480000D01*
X143475000Y-78129999D01*
X142893418Y-78129999D01*
X142974999Y-78129998D01*
X142975000Y-78129998D01*
X142975000Y-77480000D01*
X142250001Y-77480000D01*
X142250001Y-77486582D01*
X139819999Y-77486582D01*
X139820000Y-77486572D01*
X139820000Y-77480000D01*
X139095000Y-77480000D01*
X139095000Y-78129999D01*
X138513418Y-78129999D01*
X138594999Y-78129998D01*
X138595000Y-78129998D01*
X138595000Y-77480000D01*
X137870001Y-77480000D01*
X137870001Y-77486582D01*
X135419999Y-77486582D01*
X135420000Y-77486572D01*
X135420000Y-77480000D01*
X134695000Y-77480000D01*
X134695000Y-78129999D01*
X134113418Y-78129999D01*
X134194999Y-78129998D01*
X134195000Y-78129998D01*
X134195000Y-77480000D01*
X133470001Y-77480000D01*
X133470001Y-77486582D01*
X89350500Y-77486582D01*
X89350500Y-69338437D01*
X89370185Y-69271398D01*
X89422989Y-69225643D01*
X89492147Y-69215699D01*
X89503145Y-69218291D01*
X89503189Y-69218089D01*
X89509809Y-69219506D01*
X89612519Y-69229999D01*
X91012499Y-69229999D01*
X91512500Y-69229999D01*
X92912472Y-69229999D01*
X92912486Y-69229998D01*
X93015197Y-69219505D01*
X93181619Y-69164358D01*
X93181624Y-69164356D01*
X93330845Y-69072315D01*
X93454815Y-68948345D01*
X93546856Y-68799124D01*
X93546858Y-68799119D01*
X93602005Y-68632697D01*
X93602006Y-68632690D01*
X93612499Y-68529986D01*
X93612500Y-68529973D01*
X93612500Y-68305000D01*
X91512500Y-68305000D01*
X91512500Y-69229999D01*
X91012499Y-69229999D01*
X91012500Y-69229998D01*
X91012500Y-67805000D01*
X91512500Y-67805000D01*
X93612499Y-67805000D01*
X93612499Y-67580028D01*
X93612498Y-67580013D01*
X93602005Y-67477302D01*
X93546858Y-67310880D01*
X93546856Y-67310875D01*
X93454815Y-67161654D01*
X93330845Y-67037684D01*
X93181624Y-66945643D01*
X93181619Y-66945641D01*
X93015197Y-66890494D01*
X93015190Y-66890493D01*
X92912486Y-66880000D01*
X91512500Y-66880000D01*
X91512500Y-67805000D01*
X91012500Y-67805000D01*
X91012500Y-66880000D01*
X89612528Y-66880000D01*
X89612512Y-66880001D01*
X89509798Y-66890494D01*
X89503181Y-66891911D01*
X89502695Y-66889643D01*
X89443650Y-66891662D01*
X89383616Y-66855918D01*
X89352437Y-66793391D01*
X89350500Y-66771561D01*
X89350500Y-63688437D01*
X89370185Y-63621398D01*
X89422989Y-63575643D01*
X89492147Y-63565699D01*
X89503145Y-63568291D01*
X89503189Y-63568089D01*
X89509809Y-63569506D01*
X89612519Y-63579999D01*
X91012499Y-63579999D01*
X91512500Y-63579999D01*
X92912472Y-63579999D01*
X92912486Y-63579998D01*
X93015197Y-63569505D01*
X93181619Y-63514358D01*
X93181624Y-63514356D01*
X93330845Y-63422315D01*
X93454815Y-63298345D01*
X93546856Y-63149124D01*
X93546858Y-63149119D01*
X93602005Y-62982697D01*
X93602006Y-62982690D01*
X93612499Y-62879986D01*
X93612500Y-62879973D01*
X93612500Y-62655000D01*
X91512500Y-62655000D01*
X91512500Y-63579999D01*
X91012499Y-63579999D01*
X91012500Y-63579998D01*
X91012500Y-62155000D01*
X91512500Y-62155000D01*
X93612499Y-62155000D01*
X93612499Y-61930028D01*
X93612498Y-61930013D01*
X93602005Y-61827302D01*
X93546858Y-61660880D01*
X93546856Y-61660875D01*
X93454815Y-61511654D01*
X93330845Y-61387684D01*
X93181624Y-61295643D01*
X93181619Y-61295641D01*
X93015197Y-61240494D01*
X93015190Y-61240493D01*
X92912486Y-61230000D01*
X91512500Y-61230000D01*
X91512500Y-62155000D01*
X91012500Y-62155000D01*
X91012500Y-61230000D01*
X89612528Y-61230000D01*
X89612512Y-61230001D01*
X89509798Y-61240494D01*
X89503181Y-61241911D01*
X89502695Y-61239643D01*
X89443650Y-61241662D01*
X89383616Y-61205918D01*
X89352437Y-61143391D01*
X89350500Y-61121561D01*
X89350500Y-56142706D01*
X89350618Y-56137297D01*
X89353377Y-56074108D01*
X89367387Y-55753224D01*
X89368325Y-55742496D01*
X89418151Y-55364032D01*
X89420024Y-55353402D01*
X89471772Y-55119986D01*
X99710001Y-55119986D01*
X99720494Y-55222697D01*
X99775641Y-55389119D01*
X99775643Y-55389124D01*
X99867684Y-55538345D01*
X99991654Y-55662315D01*
X100140875Y-55754356D01*
X100140880Y-55754358D01*
X100307302Y-55809505D01*
X100307309Y-55809506D01*
X100410019Y-55819999D01*
X100634999Y-55819999D01*
X101135000Y-55819999D01*
X101359972Y-55819999D01*
X101359986Y-55819998D01*
X101462697Y-55809505D01*
X101629119Y-55754358D01*
X101629124Y-55754356D01*
X101778345Y-55662315D01*
X101902315Y-55538345D01*
X101994356Y-55389124D01*
X101994358Y-55389119D01*
X102049505Y-55222697D01*
X102049506Y-55222690D01*
X102059999Y-55119986D01*
X102060000Y-55119973D01*
X102060000Y-53720000D01*
X101135000Y-53720000D01*
X101135000Y-55819999D01*
X100634999Y-55819999D01*
X100635000Y-55819998D01*
X100635000Y-53720000D01*
X99710001Y-53720000D01*
X99710001Y-55119986D01*
X89471772Y-55119986D01*
X89502648Y-54980714D01*
X89505446Y-54970276D01*
X89515915Y-54937073D01*
X89620230Y-54606227D01*
X89623917Y-54596095D01*
X89770003Y-54243412D01*
X89774561Y-54233638D01*
X89950822Y-53895045D01*
X89956217Y-53885700D01*
X90161325Y-53563744D01*
X90167515Y-53554905D01*
X90399896Y-53252060D01*
X90406834Y-53243791D01*
X90664726Y-52962352D01*
X90672352Y-52954726D01*
X90953791Y-52696834D01*
X90962060Y-52689896D01*
X91264905Y-52457515D01*
X91273744Y-52451325D01*
X91595700Y-52246217D01*
X91605045Y-52240822D01*
X91943638Y-52064561D01*
X91953412Y-52060003D01*
X92306095Y-51913917D01*
X92316227Y-51910230D01*
X92680285Y-51795443D01*
X92690714Y-51792648D01*
X93063402Y-51710024D01*
X93074032Y-51708151D01*
X93452496Y-51658325D01*
X93463224Y-51657387D01*
X93847297Y-51640617D01*
X93852706Y-51640500D01*
X93915892Y-51640500D01*
X99591027Y-51640500D01*
X99658066Y-51660185D01*
G37*
%TD.AperFunction*%
%TA.AperFunction,Conductor*%
G36*
X139967581Y-81424511D02*
G01*
X139971649Y-81424647D01*
X141105899Y-81481558D01*
X141109969Y-81481830D01*
X142241669Y-81576607D01*
X142245699Y-81577012D01*
X143373669Y-81709561D01*
X143377730Y-81710107D01*
X144500548Y-81880259D01*
X144504585Y-81880940D01*
X145621138Y-82088524D01*
X145625099Y-82089328D01*
X146734122Y-82334113D01*
X146738102Y-82335062D01*
X147838282Y-82616756D01*
X147842209Y-82617832D01*
X148932385Y-82936139D01*
X148936266Y-82937343D01*
X150015143Y-83291882D01*
X150019058Y-83293241D01*
X151085484Y-83683632D01*
X151089317Y-83685108D01*
X151621846Y-83900494D01*
X152142117Y-84110922D01*
X152145932Y-84112540D01*
X153183891Y-84573284D01*
X153187650Y-84575029D01*
X154209605Y-85070186D01*
X154213304Y-85072055D01*
X155218185Y-85601105D01*
X155221760Y-85603064D01*
X156208453Y-86165426D01*
X156211947Y-86167495D01*
X157179315Y-86762526D01*
X157182739Y-86764713D01*
X157777967Y-87158844D01*
X158129601Y-87391680D01*
X158133018Y-87394025D01*
X159058409Y-88052288D01*
X159061745Y-88054746D01*
X159964629Y-88743566D01*
X159967881Y-88746135D01*
X160847195Y-89464700D01*
X160850355Y-89467371D01*
X160945406Y-89550494D01*
X161705228Y-90214971D01*
X161708301Y-90217751D01*
X162537675Y-90993461D01*
X162540654Y-90996342D01*
X163343657Y-91799345D01*
X163346538Y-91802324D01*
X164122248Y-92631698D01*
X164125028Y-92634771D01*
X164872624Y-93489639D01*
X164875299Y-93492804D01*
X165593864Y-94372118D01*
X165596433Y-94375370D01*
X166285253Y-95278254D01*
X166287711Y-95281590D01*
X166945974Y-96206981D01*
X166948319Y-96210398D01*
X167575264Y-97157226D01*
X167577482Y-97160700D01*
X168065657Y-97954347D01*
X168172482Y-98128016D01*
X168174583Y-98131564D01*
X168736919Y-99118210D01*
X168738910Y-99121844D01*
X169267944Y-100126695D01*
X169269813Y-100130394D01*
X169764970Y-101152349D01*
X169766715Y-101156108D01*
X170227459Y-102194067D01*
X170229077Y-102197882D01*
X170654884Y-103250665D01*
X170656373Y-103254532D01*
X171046758Y-104320941D01*
X171048117Y-104324856D01*
X171402644Y-105403695D01*
X171403872Y-105407653D01*
X171722157Y-106497755D01*
X171723252Y-106501752D01*
X172004931Y-107601872D01*
X172005892Y-107605903D01*
X172250660Y-108714850D01*
X172251485Y-108718911D01*
X172459055Y-109835390D01*
X172459744Y-109839476D01*
X172629888Y-110962246D01*
X172630441Y-110966353D01*
X172762982Y-112094254D01*
X172763396Y-112098378D01*
X172858166Y-113229998D01*
X172858443Y-113234132D01*
X172915350Y-114368313D01*
X172915489Y-114372455D01*
X172934483Y-115508982D01*
X172934500Y-115511054D01*
X172934500Y-147244942D01*
X172916039Y-147310038D01*
X172880189Y-147368159D01*
X172880186Y-147368166D01*
X172825001Y-147534703D01*
X172825001Y-147534704D01*
X172825000Y-147534704D01*
X172814500Y-147637483D01*
X172814500Y-150437501D01*
X172814501Y-150437516D01*
X172821181Y-150502898D01*
X172808411Y-150571591D01*
X172760531Y-150622475D01*
X172697823Y-150639500D01*
X172416675Y-150639500D01*
X172349636Y-150619815D01*
X172303881Y-150567011D01*
X172293317Y-150502898D01*
X172299999Y-150437488D01*
X172300000Y-150437473D01*
X172300000Y-149037500D01*
X169950001Y-149037500D01*
X169950001Y-150437486D01*
X169956684Y-150502898D01*
X169943914Y-150571591D01*
X169896034Y-150622475D01*
X169833326Y-150639500D01*
X107826675Y-150639500D01*
X107759636Y-150619815D01*
X107713881Y-150567011D01*
X107703317Y-150502898D01*
X107709999Y-150437488D01*
X107710000Y-150437473D01*
X107710000Y-149037500D01*
X105360001Y-149037500D01*
X105360001Y-150437486D01*
X105366684Y-150502898D01*
X105353914Y-150571591D01*
X105306034Y-150622475D01*
X105243326Y-150639500D01*
X104962178Y-150639500D01*
X104895139Y-150619815D01*
X104849384Y-150567011D01*
X104838820Y-150502898D01*
X104845499Y-150437518D01*
X104845499Y-150437516D01*
X104845500Y-150437509D01*
X104845499Y-147637492D01*
X104834999Y-147534703D01*
X104779814Y-147368166D01*
X104743961Y-147310038D01*
X104739265Y-147293480D01*
X104730523Y-147279877D01*
X104725500Y-147244942D01*
X104725500Y-147137513D01*
X105360000Y-147137513D01*
X105360000Y-148537500D01*
X106285000Y-148537500D01*
X106785000Y-148537500D01*
X107709999Y-148537500D01*
X107709999Y-147137529D01*
X107709998Y-147137513D01*
X169950000Y-147137513D01*
X169950000Y-148537500D01*
X170875000Y-148537500D01*
X171375000Y-148537500D01*
X172299999Y-148537500D01*
X172299999Y-147137528D01*
X172299998Y-147137513D01*
X172289505Y-147034802D01*
X172234358Y-146868380D01*
X172234356Y-146868375D01*
X172142315Y-146719154D01*
X172018345Y-146595184D01*
X171869124Y-146503143D01*
X171869119Y-146503141D01*
X171702697Y-146447994D01*
X171702690Y-146447993D01*
X171599986Y-146437500D01*
X171375000Y-146437500D01*
X171375000Y-148537500D01*
X170875000Y-148537500D01*
X170875000Y-146437500D01*
X170650029Y-146437500D01*
X170650012Y-146437501D01*
X170547302Y-146447994D01*
X170380880Y-146503141D01*
X170380875Y-146503143D01*
X170231654Y-146595184D01*
X170107684Y-146719154D01*
X170015643Y-146868375D01*
X170015641Y-146868380D01*
X169960494Y-147034802D01*
X169960493Y-147034809D01*
X169950000Y-147137513D01*
X107709998Y-147137513D01*
X107709998Y-147137512D01*
X107699505Y-147034802D01*
X107644358Y-146868380D01*
X107644356Y-146868375D01*
X107552315Y-146719154D01*
X107428345Y-146595184D01*
X107279124Y-146503143D01*
X107279119Y-146503141D01*
X107112697Y-146447994D01*
X107112690Y-146447993D01*
X107009986Y-146437500D01*
X106785000Y-146437500D01*
X106785000Y-148537500D01*
X106285000Y-148537500D01*
X106285000Y-146437500D01*
X106060029Y-146437500D01*
X106060012Y-146437501D01*
X105957302Y-146447994D01*
X105790880Y-146503141D01*
X105790875Y-146503143D01*
X105641654Y-146595184D01*
X105517684Y-146719154D01*
X105425643Y-146868375D01*
X105425641Y-146868380D01*
X105370494Y-147034802D01*
X105370493Y-147034809D01*
X105360000Y-147137513D01*
X104725500Y-147137513D01*
X104725500Y-115511054D01*
X104725517Y-115508982D01*
X104735382Y-114918681D01*
X104744511Y-114372417D01*
X104744647Y-114368352D01*
X104801558Y-113234096D01*
X104801830Y-113230034D01*
X104896608Y-112098324D01*
X104897011Y-112094306D01*
X105029562Y-110966323D01*
X105030106Y-110962277D01*
X105200260Y-109839441D01*
X105200938Y-109835424D01*
X105408526Y-108718849D01*
X105409326Y-108714912D01*
X105654116Y-107605864D01*
X105655058Y-107601911D01*
X105936760Y-106501702D01*
X105937828Y-106497805D01*
X106256144Y-105407597D01*
X106257337Y-105403750D01*
X106611888Y-104324837D01*
X106613241Y-104320941D01*
X107003640Y-103254495D01*
X107005100Y-103250702D01*
X107430927Y-102197868D01*
X107432540Y-102194067D01*
X107893284Y-101156108D01*
X107895029Y-101152349D01*
X108390186Y-100130394D01*
X108392055Y-100126695D01*
X108921118Y-99121789D01*
X108923050Y-99118264D01*
X109485441Y-98131519D01*
X109487480Y-98128078D01*
X110082543Y-97160657D01*
X110084695Y-97157287D01*
X110711685Y-96210389D01*
X110714025Y-96206981D01*
X111372288Y-95281590D01*
X111374746Y-95278254D01*
X111630875Y-94942528D01*
X112063579Y-94375353D01*
X112066135Y-94372118D01*
X112784729Y-93492769D01*
X112787346Y-93489673D01*
X113534982Y-92634758D01*
X113537751Y-92631698D01*
X114008122Y-92128787D01*
X114313490Y-91802293D01*
X114316312Y-91799375D01*
X115119375Y-90996312D01*
X115122293Y-90993490D01*
X115951710Y-90217739D01*
X115954771Y-90214971D01*
X116043585Y-90137302D01*
X116809673Y-89467346D01*
X116812769Y-89464729D01*
X117692135Y-88746121D01*
X117695353Y-88743579D01*
X118598264Y-88054738D01*
X118601590Y-88052288D01*
X119526981Y-87394025D01*
X119530398Y-87391680D01*
X120477287Y-86764695D01*
X120480657Y-86762543D01*
X121448078Y-86167480D01*
X121451519Y-86165441D01*
X122438264Y-85603050D01*
X122441789Y-85601118D01*
X123446716Y-85072044D01*
X123450373Y-85070196D01*
X124472367Y-84575020D01*
X124476089Y-84573292D01*
X125514081Y-84112533D01*
X125517868Y-84110927D01*
X126570702Y-83685100D01*
X126574495Y-83683640D01*
X127640959Y-83293234D01*
X127644837Y-83291888D01*
X128723750Y-82937337D01*
X128727597Y-82936144D01*
X129817805Y-82617828D01*
X129821702Y-82616760D01*
X130921911Y-82335058D01*
X130925864Y-82334116D01*
X132034912Y-82089326D01*
X132038849Y-82088526D01*
X133155424Y-81880938D01*
X133159441Y-81880260D01*
X134282277Y-81710106D01*
X134286323Y-81709562D01*
X135414306Y-81577011D01*
X135418324Y-81576608D01*
X136550034Y-81481830D01*
X136554096Y-81481558D01*
X137688352Y-81424647D01*
X137692417Y-81424511D01*
X138827966Y-81405534D01*
X138832034Y-81405534D01*
X139967581Y-81424511D01*
G37*
%TD.AperFunction*%
%TA.AperFunction,Conductor*%
G36*
X105308066Y-51660185D02*
G01*
X105353821Y-51712989D01*
X105364385Y-51777104D01*
X105360000Y-51820016D01*
X105360000Y-53220000D01*
X107709999Y-53220000D01*
X107709999Y-51820028D01*
X107709998Y-51820010D01*
X107705615Y-51777101D01*
X107718385Y-51708408D01*
X107766266Y-51657524D01*
X107828973Y-51640500D01*
X169826000Y-51640500D01*
X169893039Y-51660185D01*
X169938794Y-51712989D01*
X169950000Y-51764500D01*
X169950000Y-53152500D01*
X172299999Y-53152500D01*
X172299999Y-51764500D01*
X172319684Y-51697461D01*
X172372488Y-51651706D01*
X172423999Y-51640500D01*
X172690500Y-51640500D01*
X172757539Y-51660185D01*
X172803294Y-51712989D01*
X172814500Y-51764500D01*
X172814500Y-54552501D01*
X172814501Y-54552518D01*
X172825000Y-54655296D01*
X172825001Y-54655299D01*
X172860700Y-54763031D01*
X172866743Y-54809926D01*
X172858970Y-54931828D01*
X172858523Y-54937073D01*
X172764592Y-55818768D01*
X172763924Y-55823989D01*
X172632650Y-56700951D01*
X172631760Y-56706139D01*
X172463391Y-57576707D01*
X172462282Y-57581853D01*
X172257116Y-58444493D01*
X172255790Y-58449587D01*
X172014189Y-59302773D01*
X172012647Y-59307806D01*
X171735071Y-60149914D01*
X171733318Y-60154877D01*
X171420231Y-60984506D01*
X171418268Y-60989391D01*
X171070269Y-61804939D01*
X171068101Y-61809736D01*
X170685790Y-62609811D01*
X170683420Y-62614511D01*
X170267506Y-63397622D01*
X170264939Y-63402217D01*
X169816166Y-64166969D01*
X169813406Y-64171452D01*
X169332567Y-64916486D01*
X169329619Y-64920847D01*
X168817607Y-65644784D01*
X168814477Y-65649016D01*
X168272192Y-66350583D01*
X168268885Y-66354678D01*
X167697337Y-67032569D01*
X167693860Y-67036521D01*
X167094011Y-67689593D01*
X167090368Y-67693393D01*
X166463393Y-68320368D01*
X166459593Y-68324011D01*
X165806521Y-68923860D01*
X165802569Y-68927337D01*
X165124678Y-69498885D01*
X165120583Y-69502192D01*
X164419016Y-70044477D01*
X164414784Y-70047607D01*
X163690847Y-70559619D01*
X163686486Y-70562567D01*
X162941452Y-71043406D01*
X162936969Y-71046166D01*
X162172217Y-71494939D01*
X162167622Y-71497506D01*
X161384511Y-71913420D01*
X161379811Y-71915790D01*
X160579736Y-72298101D01*
X160574939Y-72300269D01*
X159759391Y-72648268D01*
X159754506Y-72650231D01*
X158924877Y-72963318D01*
X158919914Y-72965071D01*
X158077806Y-73242647D01*
X158072773Y-73244189D01*
X157219587Y-73485790D01*
X157214493Y-73487116D01*
X156351853Y-73692282D01*
X156346707Y-73693391D01*
X155476139Y-73861760D01*
X155470951Y-73862650D01*
X154593989Y-73993924D01*
X154588768Y-73994592D01*
X153707073Y-74088523D01*
X153701828Y-74088970D01*
X152816892Y-74145401D01*
X152811633Y-74145624D01*
X151923819Y-74164471D01*
X151921187Y-74164499D01*
X151822287Y-74164499D01*
X151822267Y-74164500D01*
X144709977Y-74164500D01*
X144513796Y-74203523D01*
X144513788Y-74203525D01*
X144328983Y-74280073D01*
X144328973Y-74280079D01*
X144300285Y-74299247D01*
X144233607Y-74320123D01*
X144166227Y-74301637D01*
X144125283Y-74260296D01*
X144055472Y-74144815D01*
X144055470Y-74144813D01*
X144055469Y-74144811D01*
X143952984Y-74042326D01*
X143919499Y-73981003D01*
X143924483Y-73911311D01*
X143952985Y-73866963D01*
X144055071Y-73764878D01*
X144055072Y-73764877D01*
X144143019Y-73619395D01*
X144193590Y-73457106D01*
X144200000Y-73386572D01*
X144200000Y-73380000D01*
X142250001Y-73380000D01*
X142250001Y-73386582D01*
X142256408Y-73457102D01*
X142256409Y-73457107D01*
X142306981Y-73619396D01*
X142394927Y-73764877D01*
X142497015Y-73866965D01*
X142530500Y-73928288D01*
X142525516Y-73997980D01*
X142497015Y-74042327D01*
X142394531Y-74144810D01*
X142394529Y-74144813D01*
X142379878Y-74169047D01*
X142328348Y-74216232D01*
X142259488Y-74228068D01*
X142236876Y-74223278D01*
X142197196Y-74210914D01*
X142197185Y-74210913D01*
X142126616Y-74204500D01*
X141613384Y-74204500D01*
X141594145Y-74206248D01*
X141542807Y-74210913D01*
X141380393Y-74261522D01*
X141234811Y-74349530D01*
X141234810Y-74349531D01*
X141132681Y-74451661D01*
X141071358Y-74485146D01*
X141001666Y-74480162D01*
X140957319Y-74451661D01*
X140855188Y-74349530D01*
X140756262Y-74289727D01*
X140709606Y-74261522D01*
X140547196Y-74210914D01*
X140547194Y-74210913D01*
X140547192Y-74210913D01*
X140497778Y-74206423D01*
X140476616Y-74204500D01*
X139963384Y-74204500D01*
X139910449Y-74209310D01*
X139892803Y-74210914D01*
X139892797Y-74210915D01*
X139836292Y-74228522D01*
X139766432Y-74229672D01*
X139707040Y-74192870D01*
X139693287Y-74174285D01*
X139690497Y-74169670D01*
X139675472Y-74144815D01*
X139675470Y-74144813D01*
X139675468Y-74144810D01*
X139572984Y-74042326D01*
X139539499Y-73981003D01*
X139544483Y-73911311D01*
X139572985Y-73866963D01*
X139675071Y-73764878D01*
X139675072Y-73764877D01*
X139763019Y-73619395D01*
X139813590Y-73457106D01*
X139820000Y-73386572D01*
X139820000Y-73380000D01*
X137870001Y-73380000D01*
X137870001Y-73386582D01*
X137876408Y-73457102D01*
X137876409Y-73457107D01*
X137926981Y-73619396D01*
X138014927Y-73764877D01*
X138117015Y-73866965D01*
X138150500Y-73928288D01*
X138145516Y-73997980D01*
X138117015Y-74042327D01*
X138014531Y-74144810D01*
X138014531Y-74144811D01*
X138014529Y-74144813D01*
X138014528Y-74144815D01*
X138014073Y-74145568D01*
X137996709Y-74174290D01*
X137945179Y-74221475D01*
X137876319Y-74233312D01*
X137853706Y-74228522D01*
X137797196Y-74210914D01*
X137797185Y-74210913D01*
X137726616Y-74204500D01*
X137213384Y-74204500D01*
X137194145Y-74206248D01*
X137142807Y-74210913D01*
X136980393Y-74261522D01*
X136834811Y-74349530D01*
X136834810Y-74349531D01*
X136732681Y-74451661D01*
X136671358Y-74485146D01*
X136601666Y-74480162D01*
X136557319Y-74451661D01*
X136455188Y-74349530D01*
X136356262Y-74289727D01*
X136309606Y-74261522D01*
X136147196Y-74210914D01*
X136147194Y-74210913D01*
X136147192Y-74210913D01*
X136097778Y-74206423D01*
X136076616Y-74204500D01*
X135563384Y-74204500D01*
X135510449Y-74209310D01*
X135492803Y-74210914D01*
X135492797Y-74210915D01*
X135436292Y-74228522D01*
X135366432Y-74229672D01*
X135307040Y-74192870D01*
X135293287Y-74174285D01*
X135290497Y-74169670D01*
X135275472Y-74144815D01*
X135275470Y-74144813D01*
X135275468Y-74144810D01*
X135172984Y-74042326D01*
X135139499Y-73981003D01*
X135144483Y-73911311D01*
X135172985Y-73866963D01*
X135275071Y-73764878D01*
X135275072Y-73764877D01*
X135363019Y-73619395D01*
X135413590Y-73457106D01*
X135420000Y-73386572D01*
X135420000Y-73380000D01*
X133470001Y-73380000D01*
X133470001Y-73386582D01*
X133476408Y-73457102D01*
X133476409Y-73457107D01*
X133526981Y-73619396D01*
X133614927Y-73764877D01*
X133717015Y-73866965D01*
X133750500Y-73928288D01*
X133745516Y-73997980D01*
X133717015Y-74042327D01*
X133614531Y-74144810D01*
X133614528Y-74144814D01*
X133550472Y-74250775D01*
X133498944Y-74297962D01*
X133430085Y-74309800D01*
X133375466Y-74289727D01*
X133361024Y-74280077D01*
X133361013Y-74280071D01*
X133176215Y-74203526D01*
X133176203Y-74203523D01*
X132980022Y-74164500D01*
X132980018Y-74164500D01*
X125671313Y-74164500D01*
X125668681Y-74164472D01*
X124783731Y-74145684D01*
X124778472Y-74145461D01*
X123896395Y-74089213D01*
X123891150Y-74088766D01*
X123012305Y-73995139D01*
X123007084Y-73994471D01*
X122132955Y-73863620D01*
X122127767Y-73862730D01*
X121260013Y-73694906D01*
X121254867Y-73693797D01*
X120942036Y-73619395D01*
X120395013Y-73489293D01*
X120389920Y-73487968D01*
X119539491Y-73247147D01*
X119534458Y-73245605D01*
X118754096Y-72988382D01*
X118695073Y-72968927D01*
X118690109Y-72967174D01*
X118441695Y-72873427D01*
X133470000Y-72873427D01*
X133470000Y-72880000D01*
X134195000Y-72880000D01*
X134695000Y-72880000D01*
X135419999Y-72880000D01*
X135419999Y-72873427D01*
X137870000Y-72873427D01*
X137870000Y-72880000D01*
X138595000Y-72880000D01*
X139095000Y-72880000D01*
X139819999Y-72880000D01*
X139819999Y-72873427D01*
X142250000Y-72873427D01*
X142250000Y-72880000D01*
X142975000Y-72880000D01*
X143475000Y-72880000D01*
X144199999Y-72880000D01*
X144199999Y-72873417D01*
X144193591Y-72802897D01*
X144193590Y-72802892D01*
X144143018Y-72640603D01*
X144055072Y-72495122D01*
X143934877Y-72374927D01*
X143789395Y-72286980D01*
X143789396Y-72286980D01*
X143627105Y-72236409D01*
X143627106Y-72236409D01*
X143556572Y-72230000D01*
X143475000Y-72230000D01*
X143475000Y-72880000D01*
X142975000Y-72880000D01*
X142975000Y-72230000D01*
X142974999Y-72229999D01*
X142893417Y-72230000D01*
X142822897Y-72236408D01*
X142822892Y-72236409D01*
X142660603Y-72286981D01*
X142515122Y-72374927D01*
X142394927Y-72495122D01*
X142306980Y-72640604D01*
X142256409Y-72802893D01*
X142250000Y-72873427D01*
X139819999Y-72873427D01*
X139819999Y-72873417D01*
X139813591Y-72802897D01*
X139813590Y-72802892D01*
X139763018Y-72640603D01*
X139675072Y-72495122D01*
X139554877Y-72374927D01*
X139409395Y-72286980D01*
X139409396Y-72286980D01*
X139247105Y-72236409D01*
X139247106Y-72236409D01*
X139176572Y-72230000D01*
X139095000Y-72230000D01*
X139095000Y-72880000D01*
X138595000Y-72880000D01*
X138595000Y-72230000D01*
X138594999Y-72229999D01*
X138513417Y-72230000D01*
X138442897Y-72236408D01*
X138442892Y-72236409D01*
X138280603Y-72286981D01*
X138135122Y-72374927D01*
X138014927Y-72495122D01*
X137926980Y-72640604D01*
X137876409Y-72802893D01*
X137870000Y-72873427D01*
X135419999Y-72873427D01*
X135419999Y-72873417D01*
X135413591Y-72802897D01*
X135413590Y-72802892D01*
X135363018Y-72640603D01*
X135275072Y-72495122D01*
X135154877Y-72374927D01*
X135009395Y-72286980D01*
X135009396Y-72286980D01*
X134847105Y-72236409D01*
X134847106Y-72236409D01*
X134776572Y-72230000D01*
X134695000Y-72230000D01*
X134695000Y-72880000D01*
X134195000Y-72880000D01*
X134195000Y-72230000D01*
X134194999Y-72229999D01*
X134113417Y-72230000D01*
X134042897Y-72236408D01*
X134042892Y-72236409D01*
X133880603Y-72286981D01*
X133735122Y-72374927D01*
X133614927Y-72495122D01*
X133526980Y-72640604D01*
X133476409Y-72802893D01*
X133470000Y-72873427D01*
X118441695Y-72873427D01*
X118254789Y-72802892D01*
X117863148Y-72655093D01*
X117858288Y-72653140D01*
X117045362Y-72306261D01*
X117040565Y-72304093D01*
X116243077Y-71923018D01*
X116238377Y-71920648D01*
X115457796Y-71506077D01*
X115453201Y-71503510D01*
X114690921Y-71056187D01*
X114686438Y-71053427D01*
X114675187Y-71046166D01*
X114647507Y-71028301D01*
X113943812Y-70574142D01*
X113939451Y-70571194D01*
X113217853Y-70060837D01*
X113213621Y-70057707D01*
X112514321Y-69517174D01*
X112510226Y-69513867D01*
X112494476Y-69500588D01*
X111834522Y-68944162D01*
X111830574Y-68940689D01*
X111816037Y-68927337D01*
X111179612Y-68342778D01*
X111175812Y-68339135D01*
X110550864Y-67714187D01*
X110547221Y-67710387D01*
X110255055Y-67392298D01*
X109949303Y-67059417D01*
X109945833Y-67055473D01*
X109853232Y-66945643D01*
X109376125Y-66379765D01*
X109372825Y-66375678D01*
X109353427Y-66350583D01*
X108832290Y-65676375D01*
X108829162Y-65672146D01*
X108318805Y-64950548D01*
X108315857Y-64946187D01*
X107903337Y-64307009D01*
X107836564Y-64203548D01*
X107833812Y-64199078D01*
X107817600Y-64171452D01*
X107494816Y-63621398D01*
X107386489Y-63436798D01*
X107383922Y-63432203D01*
X107145183Y-62982690D01*
X106969342Y-62651604D01*
X106966990Y-62646941D01*
X106585896Y-61849413D01*
X106583747Y-61844658D01*
X106236849Y-61031687D01*
X106234915Y-61026875D01*
X105922820Y-60199876D01*
X105921072Y-60194926D01*
X105907066Y-60152434D01*
X105644385Y-59355512D01*
X105642860Y-59350537D01*
X105402022Y-58500046D01*
X105400713Y-58495019D01*
X105196193Y-57635093D01*
X105195101Y-57630025D01*
X105027263Y-56762200D01*
X105026384Y-56757075D01*
X104895523Y-55882882D01*
X104894864Y-55877727D01*
X104814138Y-55119986D01*
X105360001Y-55119986D01*
X105370494Y-55222697D01*
X105425641Y-55389119D01*
X105425643Y-55389124D01*
X105517684Y-55538345D01*
X105641654Y-55662315D01*
X105790875Y-55754356D01*
X105790880Y-55754358D01*
X105957302Y-55809505D01*
X105957309Y-55809506D01*
X106060019Y-55819999D01*
X106284999Y-55819999D01*
X106785000Y-55819999D01*
X107009972Y-55819999D01*
X107009986Y-55819998D01*
X107112697Y-55809505D01*
X107279119Y-55754358D01*
X107279124Y-55754356D01*
X107428345Y-55662315D01*
X107552315Y-55538345D01*
X107644356Y-55389124D01*
X107644358Y-55389119D01*
X107699505Y-55222697D01*
X107699506Y-55222690D01*
X107709999Y-55119986D01*
X107710000Y-55119973D01*
X107710000Y-55052486D01*
X169950001Y-55052486D01*
X169960494Y-55155197D01*
X170015641Y-55321619D01*
X170015643Y-55321624D01*
X170107684Y-55470845D01*
X170231654Y-55594815D01*
X170380875Y-55686856D01*
X170380880Y-55686858D01*
X170547302Y-55742005D01*
X170547309Y-55742006D01*
X170650019Y-55752499D01*
X170874999Y-55752499D01*
X171375000Y-55752499D01*
X171599972Y-55752499D01*
X171599986Y-55752498D01*
X171702697Y-55742005D01*
X171869119Y-55686858D01*
X171869124Y-55686856D01*
X172018345Y-55594815D01*
X172142315Y-55470845D01*
X172234356Y-55321624D01*
X172234358Y-55321619D01*
X172289505Y-55155197D01*
X172289506Y-55155190D01*
X172299999Y-55052486D01*
X172300000Y-55052473D01*
X172300000Y-53652500D01*
X171375000Y-53652500D01*
X171375000Y-55752499D01*
X170874999Y-55752499D01*
X170875000Y-55752498D01*
X170875000Y-53652500D01*
X169950001Y-53652500D01*
X169950001Y-55052486D01*
X107710000Y-55052486D01*
X107710000Y-53720000D01*
X106785000Y-53720000D01*
X106785000Y-55819999D01*
X106284999Y-55819999D01*
X106285000Y-55819998D01*
X106285000Y-53720000D01*
X105360001Y-53720000D01*
X105360001Y-55119986D01*
X104814138Y-55119986D01*
X104801231Y-54998831D01*
X104800786Y-54993606D01*
X104800456Y-54988430D01*
X104793357Y-54877115D01*
X104799399Y-54830226D01*
X104834999Y-54722797D01*
X104845500Y-54620009D01*
X104845499Y-53220000D01*
X104845499Y-51819998D01*
X104845498Y-51819980D01*
X104841118Y-51777101D01*
X104853888Y-51708408D01*
X104901769Y-51657524D01*
X104964476Y-51640500D01*
X105241027Y-51640500D01*
X105308066Y-51660185D01*
G37*
%TD.AperFunction*%
%TD*%
M02*
