%TF.GenerationSoftware,KiCad,Pcbnew,10.0.6*%
%TF.CreationDate,2026-09-21T17:07:54+08:00*%
%TF.ProjectId,6g_att,36675f61-7474-42e6-9b69-6361645f7063,rev?*%
%TF.SameCoordinates,Original*%
%TF.FileFunction,Soldermask,Top*%
%TF.FilePolarity,Negative*%
%FSLAX46Y46*%
G04 Gerber Fmt 4.6, Leading zero omitted, Abs format (unit mm)*
G04 Created by KiCad (PCBNEW 10.0.6) date 2026-09-21 17:07:54*
%MOMM*%
%LPD*%
G01*
G04 APERTURE LIST*
G04 Aperture macros list*
%AMRoundRect*
0 Rectangle with rounded corners*
0 $1 Rounding radius*
0 $2 $3 $4 $5 $6 $7 $8 $9 X,Y pos of 4 corners*
0 Add a 4 corners polygon primitive as box body*
4,1,4,$2,$3,$4,$5,$6,$7,$8,$9,$2,$3,0*
0 Add four circle primitives for the rounded corners*
1,1,$1+$1,$2,$3*
1,1,$1+$1,$4,$5*
1,1,$1+$1,$6,$7*
1,1,$1+$1,$8,$9*
0 Add four rect primitives between the rounded corners*
20,1,$1+$1,$2,$3,$4,$5,0*
20,1,$1+$1,$4,$5,$6,$7,0*
20,1,$1+$1,$6,$7,$8,$9,0*
20,1,$1+$1,$8,$9,$2,$3,0*%
G04 Aperture macros list end*
%ADD10RoundRect,0.250000X0.450000X-0.262500X0.450000X0.262500X-0.450000X0.262500X-0.450000X-0.262500X0*%
%ADD11RoundRect,0.250000X-0.262500X-0.450000X0.262500X-0.450000X0.262500X0.450000X-0.262500X0.450000X0*%
%ADD12RoundRect,0.250000X-0.450000X0.262500X-0.450000X-0.262500X0.450000X-0.262500X0.450000X0.262500X0*%
%ADD13RoundRect,0.250000X0.262500X0.450000X-0.262500X0.450000X-0.262500X-0.450000X0.262500X-0.450000X0*%
%ADD14RoundRect,0.250000X-1.350000X0.385000X-1.350000X-0.385000X1.350000X-0.385000X1.350000X0.385000X0*%
%ADD15RoundRect,0.250000X-1.600000X0.425000X-1.600000X-0.425000X1.600000X-0.425000X1.600000X0.425000X0*%
%ADD16RoundRect,0.250000X-0.425000X-1.600000X0.425000X-1.600000X0.425000X1.600000X-0.425000X1.600000X0*%
%ADD17RoundRect,0.250000X0.425000X1.600000X-0.425000X1.600000X-0.425000X-1.600000X0.425000X-1.600000X0*%
G04 APERTURE END LIST*
D10*
%TO.C,R16*%
X110567500Y-116607500D03*
X110567500Y-114782500D03*
%TD*%
D11*
%TO.C,R11*%
X106330000Y-114270000D03*
X108155000Y-114270000D03*
%TD*%
D12*
%TO.C,R77*%
X147179999Y-88402500D03*
X147179999Y-90227500D03*
%TD*%
%TO.C,R110*%
X132540000Y-131770000D03*
X132540000Y-133595000D03*
%TD*%
D10*
%TO.C,R129*%
X106829999Y-87377500D03*
X106829999Y-85552500D03*
%TD*%
D11*
%TO.C,R72*%
X168080000Y-114270000D03*
X169905000Y-114270000D03*
%TD*%
D10*
%TO.C,R63*%
X159967500Y-116607500D03*
X159967500Y-114782500D03*
%TD*%
D11*
%TO.C,R30*%
X123343700Y-65219900D03*
X125168700Y-65219900D03*
%TD*%
D12*
%TO.C,R74*%
X161579999Y-82702500D03*
X161579999Y-84527500D03*
%TD*%
D11*
%TO.C,R20*%
X117493700Y-65219900D03*
X119318700Y-65219900D03*
%TD*%
D10*
%TO.C,R130*%
X107840000Y-136445000D03*
X107840000Y-134620000D03*
%TD*%
D11*
%TO.C,R94*%
X140492499Y-87890000D03*
X142317499Y-87890000D03*
%TD*%
D10*
%TO.C,R26*%
X121331200Y-67557400D03*
X121331200Y-65732400D03*
%TD*%
D13*
%TO.C,R6*%
X104918700Y-65219900D03*
X103093700Y-65219900D03*
%TD*%
D11*
%TO.C,R67*%
X157993700Y-65219900D03*
X159818700Y-65219900D03*
%TD*%
%TO.C,R32*%
X129043700Y-65219900D03*
X130868700Y-65219900D03*
%TD*%
D13*
%TO.C,R71*%
X167055000Y-114270000D03*
X165230000Y-114270000D03*
%TD*%
D11*
%TO.C,R21*%
X112980000Y-114270000D03*
X114805000Y-114270000D03*
%TD*%
D10*
%TO.C,R52*%
X147617500Y-116607500D03*
X147617500Y-114782500D03*
%TD*%
D11*
%TO.C,R9*%
X100630000Y-114270000D03*
X102455000Y-114270000D03*
%TD*%
%TO.C,R116*%
X125452500Y-136957500D03*
X127277500Y-136957500D03*
%TD*%
D13*
%TO.C,R122*%
X113517499Y-87890000D03*
X111692499Y-87890000D03*
%TD*%
%TO.C,R68*%
X162668700Y-65219900D03*
X160843700Y-65219900D03*
%TD*%
D11*
%TO.C,R85*%
X158702500Y-136957500D03*
X160527500Y-136957500D03*
%TD*%
D12*
%TO.C,R15*%
X110567500Y-111932500D03*
X110567500Y-113757500D03*
%TD*%
%TO.C,R13*%
X109781200Y-62882400D03*
X109781200Y-64707400D03*
%TD*%
D10*
%TO.C,R38*%
X132881200Y-67557400D03*
X132881200Y-65732400D03*
%TD*%
D11*
%TO.C,R23*%
X118680000Y-114270000D03*
X120505000Y-114270000D03*
%TD*%
D10*
%TO.C,R141*%
X98340000Y-136445000D03*
X98340000Y-134620000D03*
%TD*%
D12*
%TO.C,R61*%
X159967500Y-111932500D03*
X159967500Y-113757500D03*
%TD*%
D10*
%TO.C,R109*%
X132540000Y-136445000D03*
X132540000Y-134620000D03*
%TD*%
D13*
%TO.C,R125*%
X114927500Y-136957500D03*
X113102500Y-136957500D03*
%TD*%
D11*
%TO.C,R114*%
X117542499Y-87890000D03*
X119367499Y-87890000D03*
%TD*%
D13*
%TO.C,R133*%
X105427500Y-136957500D03*
X103602500Y-136957500D03*
%TD*%
D11*
%TO.C,R100*%
X143502500Y-136957500D03*
X145327500Y-136957500D03*
%TD*%
D13*
%TO.C,R78*%
X159567499Y-87890000D03*
X157742499Y-87890000D03*
%TD*%
%TO.C,R84*%
X163377500Y-136957500D03*
X161552500Y-136957500D03*
%TD*%
D10*
%TO.C,R75*%
X165790000Y-136445000D03*
X165790000Y-134620000D03*
%TD*%
D11*
%TO.C,R53*%
X146443700Y-65219900D03*
X148268700Y-65219900D03*
%TD*%
D10*
%TO.C,R29*%
X122917500Y-116607500D03*
X122917500Y-114782500D03*
%TD*%
D12*
%TO.C,R62*%
X161579999Y-88402500D03*
X161579999Y-90227500D03*
%TD*%
D14*
%TO.C,J1*%
X91012500Y-65230000D03*
D15*
X91262500Y-68055000D03*
X91262500Y-62405000D03*
%TD*%
D13*
%TO.C,R22*%
X117655000Y-114270000D03*
X115830000Y-114270000D03*
%TD*%
D12*
%TO.C,R140*%
X98129999Y-82702500D03*
X98129999Y-84527500D03*
%TD*%
D10*
%TO.C,R139*%
X98129999Y-87377500D03*
X98129999Y-85552500D03*
%TD*%
D11*
%TO.C,R81*%
X149192499Y-87890000D03*
X151017499Y-87890000D03*
%TD*%
%TO.C,R56*%
X150030000Y-114270000D03*
X151855000Y-114270000D03*
%TD*%
D10*
%TO.C,R88*%
X150590000Y-142145000D03*
X150590000Y-140320000D03*
%TD*%
D12*
%TO.C,R90*%
X147179999Y-82702500D03*
X147179999Y-84527500D03*
%TD*%
D13*
%TO.C,R10*%
X105305000Y-114270000D03*
X103480000Y-114270000D03*
%TD*%
%TO.C,R34*%
X130005000Y-114270000D03*
X128180000Y-114270000D03*
%TD*%
D12*
%TO.C,R92*%
X150590000Y-131770000D03*
X150590000Y-133595000D03*
%TD*%
D11*
%TO.C,R134*%
X100752500Y-136957500D03*
X102577500Y-136957500D03*
%TD*%
D13*
%TO.C,R111*%
X127917499Y-87890000D03*
X126092499Y-87890000D03*
%TD*%
D12*
%TO.C,R24*%
X121331200Y-62882400D03*
X121331200Y-64707400D03*
%TD*%
D11*
%TO.C,R33*%
X125330000Y-114270000D03*
X127155000Y-114270000D03*
%TD*%
D13*
%TO.C,R80*%
X153867499Y-87890000D03*
X152042499Y-87890000D03*
%TD*%
D11*
%TO.C,R55*%
X152143700Y-65219900D03*
X153968700Y-65219900D03*
%TD*%
D10*
%TO.C,R82*%
X147179999Y-93077500D03*
X147179999Y-91252500D03*
%TD*%
%TO.C,R50*%
X144431200Y-67557400D03*
X144431200Y-65732400D03*
%TD*%
D12*
%TO.C,R127*%
X106829999Y-88402500D03*
X106829999Y-90227500D03*
%TD*%
D10*
%TO.C,R66*%
X165790000Y-142145000D03*
X165790000Y-140320000D03*
%TD*%
D13*
%TO.C,R86*%
X157677500Y-136957500D03*
X155852500Y-136957500D03*
%TD*%
%TO.C,R57*%
X154705000Y-114270000D03*
X152880000Y-114270000D03*
%TD*%
D14*
%TO.C,J7*%
X90850000Y-136970000D03*
D15*
X91100000Y-139795000D03*
X91100000Y-134145000D03*
%TD*%
D13*
%TO.C,R113*%
X122217499Y-87890000D03*
X120392499Y-87890000D03*
%TD*%
D11*
%TO.C,R69*%
X163693700Y-65219900D03*
X165518700Y-65219900D03*
%TD*%
%TO.C,R132*%
X100142499Y-87890000D03*
X101967499Y-87890000D03*
%TD*%
D13*
%TO.C,R31*%
X128018700Y-65219900D03*
X126193700Y-65219900D03*
%TD*%
D10*
%TO.C,R124*%
X117340000Y-136445000D03*
X117340000Y-134620000D03*
%TD*%
D12*
%TO.C,R39*%
X135267500Y-111932500D03*
X135267500Y-113757500D03*
%TD*%
D13*
%TO.C,R97*%
X133767499Y-87890000D03*
X131942499Y-87890000D03*
%TD*%
D10*
%TO.C,R73*%
X161579999Y-87377500D03*
X161579999Y-85552500D03*
%TD*%
%TO.C,R104*%
X129930000Y-93077500D03*
X129930000Y-91252500D03*
%TD*%
D11*
%TO.C,R123*%
X108842499Y-87890000D03*
X110667499Y-87890000D03*
%TD*%
D12*
%TO.C,R83*%
X150590000Y-137470000D03*
X150590000Y-139295000D03*
%TD*%
D13*
%TO.C,R115*%
X130127500Y-136957500D03*
X128302500Y-136957500D03*
%TD*%
%TO.C,R42*%
X139568700Y-65219900D03*
X137743700Y-65219900D03*
%TD*%
D12*
%TO.C,R128*%
X107840000Y-137470000D03*
X107840000Y-139295000D03*
%TD*%
D10*
%TO.C,R106*%
X132540000Y-142145000D03*
X132540000Y-140320000D03*
%TD*%
D11*
%TO.C,R70*%
X162380000Y-114270000D03*
X164205000Y-114270000D03*
%TD*%
%TO.C,R43*%
X140593700Y-65219900D03*
X142418700Y-65219900D03*
%TD*%
D10*
%TO.C,R40*%
X135267500Y-116607500D03*
X135267500Y-114782500D03*
%TD*%
%TO.C,R136*%
X98129999Y-93077500D03*
X98129999Y-91252500D03*
%TD*%
%TO.C,R2*%
X98231200Y-67557400D03*
X98231200Y-65732400D03*
%TD*%
D11*
%TO.C,R58*%
X155730000Y-114270000D03*
X157555000Y-114270000D03*
%TD*%
D12*
%TO.C,R27*%
X122917500Y-111932500D03*
X122917500Y-113757500D03*
%TD*%
D11*
%TO.C,R112*%
X123242499Y-87890000D03*
X125067499Y-87890000D03*
%TD*%
%TO.C,R79*%
X154892499Y-87890000D03*
X156717499Y-87890000D03*
%TD*%
%TO.C,R18*%
X111793700Y-65219900D03*
X113618700Y-65219900D03*
%TD*%
D12*
%TO.C,R76*%
X165790000Y-131770000D03*
X165790000Y-133595000D03*
%TD*%
D11*
%TO.C,R96*%
X134792499Y-87890000D03*
X136617499Y-87890000D03*
%TD*%
%TO.C,R5*%
X100243699Y-65219900D03*
X102068699Y-65219900D03*
%TD*%
D12*
%TO.C,R98*%
X129930000Y-88402500D03*
X129930000Y-90227500D03*
%TD*%
%TO.C,R36*%
X132881200Y-62882400D03*
X132881200Y-64707400D03*
%TD*%
%TO.C,R1*%
X98231200Y-62882400D03*
X98231200Y-64707400D03*
%TD*%
D13*
%TO.C,R103*%
X136777500Y-136957500D03*
X134952500Y-136957500D03*
%TD*%
%TO.C,R131*%
X104817499Y-87890000D03*
X102992499Y-87890000D03*
%TD*%
D11*
%TO.C,R35*%
X131030000Y-114270000D03*
X132855000Y-114270000D03*
%TD*%
%TO.C,R46*%
X143380000Y-114270000D03*
X145205000Y-114270000D03*
%TD*%
D10*
%TO.C,R14*%
X109781200Y-67557400D03*
X109781200Y-65732400D03*
%TD*%
D12*
%TO.C,R65*%
X165790000Y-137470000D03*
X165790000Y-139295000D03*
%TD*%
D14*
%TO.C,J2*%
X90982500Y-114260000D03*
D15*
X91232500Y-117085000D03*
X91232500Y-111435000D03*
%TD*%
D11*
%TO.C,R44*%
X137680000Y-114270000D03*
X139505000Y-114270000D03*
%TD*%
D12*
%TO.C,R49*%
X144431200Y-62882400D03*
X144431200Y-64707400D03*
%TD*%
D10*
%TO.C,R89*%
X147179999Y-87377500D03*
X147179999Y-85552500D03*
%TD*%
D13*
%TO.C,R93*%
X145167499Y-87890000D03*
X143342499Y-87890000D03*
%TD*%
D11*
%TO.C,R102*%
X137802500Y-136957500D03*
X139627500Y-136957500D03*
%TD*%
D12*
%TO.C,R59*%
X155981200Y-62882400D03*
X155981200Y-64707400D03*
%TD*%
%TO.C,R3*%
X98217500Y-111932500D03*
X98217500Y-113757500D03*
%TD*%
D13*
%TO.C,R101*%
X142477501Y-136957500D03*
X140652501Y-136957500D03*
%TD*%
D10*
%TO.C,R4*%
X98217500Y-116607500D03*
X98217500Y-114782500D03*
%TD*%
D11*
%TO.C,R126*%
X110252500Y-136957500D03*
X112077500Y-136957500D03*
%TD*%
D12*
%TO.C,R135*%
X98129999Y-88402500D03*
X98129999Y-90227500D03*
%TD*%
D10*
%TO.C,R64*%
X161579999Y-93077500D03*
X161579999Y-91252500D03*
%TD*%
D12*
%TO.C,R142*%
X98340000Y-131770000D03*
X98340000Y-133595000D03*
%TD*%
D11*
%TO.C,R87*%
X153002500Y-136957500D03*
X154827500Y-136957500D03*
%TD*%
D12*
%TO.C,R51*%
X147617500Y-111932500D03*
X147617500Y-113757500D03*
%TD*%
D11*
%TO.C,R118*%
X119752500Y-136957500D03*
X121577500Y-136957500D03*
%TD*%
D12*
%TO.C,R105*%
X132540000Y-137470000D03*
X132540000Y-139295000D03*
%TD*%
D10*
%TO.C,R60*%
X155981200Y-67557400D03*
X155981200Y-65732400D03*
%TD*%
D13*
%TO.C,R19*%
X116468700Y-65219900D03*
X114643700Y-65219900D03*
%TD*%
%TO.C,R95*%
X139467499Y-87890000D03*
X137642499Y-87890000D03*
%TD*%
%TO.C,R54*%
X151118700Y-65219900D03*
X149293700Y-65219900D03*
%TD*%
D10*
%TO.C,R91*%
X150590000Y-136445000D03*
X150590000Y-134620000D03*
%TD*%
D12*
%TO.C,R119*%
X115529999Y-88402500D03*
X115529999Y-90227500D03*
%TD*%
D10*
%TO.C,R138*%
X98340000Y-142145000D03*
X98340000Y-140320000D03*
%TD*%
D13*
%TO.C,R99*%
X148177500Y-136957500D03*
X146352500Y-136957500D03*
%TD*%
D10*
%TO.C,R121*%
X115529999Y-87377500D03*
X115529999Y-85552500D03*
%TD*%
D11*
%TO.C,R7*%
X105943700Y-65219900D03*
X107768700Y-65219900D03*
%TD*%
D12*
%TO.C,R108*%
X129930000Y-82702500D03*
X129930000Y-84527500D03*
%TD*%
%TO.C,R120*%
X117340000Y-137470000D03*
X117340000Y-139295000D03*
%TD*%
D13*
%TO.C,R117*%
X124427500Y-136957500D03*
X122602500Y-136957500D03*
%TD*%
D12*
%TO.C,R137*%
X98340000Y-137470000D03*
X98340000Y-139295000D03*
%TD*%
D13*
%TO.C,R45*%
X142355000Y-114270000D03*
X140530000Y-114270000D03*
%TD*%
D10*
%TO.C,R107*%
X129930000Y-87377500D03*
X129930000Y-85552500D03*
%TD*%
D14*
%TO.C,J6*%
X90970000Y-87890000D03*
D15*
X91220000Y-90715000D03*
X91220000Y-85065000D03*
%TD*%
D11*
%TO.C,R41*%
X134893700Y-65219900D03*
X136718700Y-65219900D03*
%TD*%
D16*
%TO.C,J4*%
X100885000Y-53470000D03*
X106535000Y-53470000D03*
%TD*%
D17*
%TO.C,J8*%
X176775000Y-148787500D03*
X171125000Y-148787500D03*
%TD*%
D16*
%TO.C,J5*%
X171125000Y-53402500D03*
X176775000Y-53402500D03*
%TD*%
D17*
%TO.C,J3*%
X106535000Y-148787500D03*
X100885000Y-148787500D03*
%TD*%
M02*
