%TF.GenerationSoftware,KiCad,Pcbnew,10.0.6*%
%TF.CreationDate,2026-09-21T17:07:54+08:00*%
%TF.ProjectId,6g_att,36675f61-7474-42e6-9b69-6361645f7063,rev?*%
%TF.SameCoordinates,Original*%
%TF.FileFunction,Legend,Bot*%
%TF.FilePolarity,Positive*%
%FSLAX46Y46*%
G04 Gerber Fmt 4.6, Leading zero omitted, Abs format (unit mm)*
G04 Created by KiCad (PCBNEW 10.0.6) date 2026-09-21 17:07:54*
%MOMM*%
%LPD*%
G01*
G04 APERTURE LIST*
%ADD10C,0.150000*%
%ADD11C,0.120000*%
G04 APERTURE END LIST*
D10*
X108244819Y-52886666D02*
X108959104Y-52886666D01*
X108959104Y-52886666D02*
X109101961Y-52839047D01*
X109101961Y-52839047D02*
X109197200Y-52743809D01*
X109197200Y-52743809D02*
X109244819Y-52600952D01*
X109244819Y-52600952D02*
X109244819Y-52505714D01*
X108578152Y-53791428D02*
X109244819Y-53791428D01*
X108197200Y-53553333D02*
X108911485Y-53315238D01*
X108911485Y-53315238D02*
X108911485Y-53934285D01*
X168324819Y-148704166D02*
X169039104Y-148704166D01*
X169039104Y-148704166D02*
X169181961Y-148656547D01*
X169181961Y-148656547D02*
X169277200Y-148561309D01*
X169277200Y-148561309D02*
X169324819Y-148418452D01*
X169324819Y-148418452D02*
X169324819Y-148323214D01*
X168753390Y-149323214D02*
X168705771Y-149227976D01*
X168705771Y-149227976D02*
X168658152Y-149180357D01*
X168658152Y-149180357D02*
X168562914Y-149132738D01*
X168562914Y-149132738D02*
X168515295Y-149132738D01*
X168515295Y-149132738D02*
X168420057Y-149180357D01*
X168420057Y-149180357D02*
X168372438Y-149227976D01*
X168372438Y-149227976D02*
X168324819Y-149323214D01*
X168324819Y-149323214D02*
X168324819Y-149513690D01*
X168324819Y-149513690D02*
X168372438Y-149608928D01*
X168372438Y-149608928D02*
X168420057Y-149656547D01*
X168420057Y-149656547D02*
X168515295Y-149704166D01*
X168515295Y-149704166D02*
X168562914Y-149704166D01*
X168562914Y-149704166D02*
X168658152Y-149656547D01*
X168658152Y-149656547D02*
X168705771Y-149608928D01*
X168705771Y-149608928D02*
X168753390Y-149513690D01*
X168753390Y-149513690D02*
X168753390Y-149323214D01*
X168753390Y-149323214D02*
X168801009Y-149227976D01*
X168801009Y-149227976D02*
X168848628Y-149180357D01*
X168848628Y-149180357D02*
X168943866Y-149132738D01*
X168943866Y-149132738D02*
X169134342Y-149132738D01*
X169134342Y-149132738D02*
X169229580Y-149180357D01*
X169229580Y-149180357D02*
X169277200Y-149227976D01*
X169277200Y-149227976D02*
X169324819Y-149323214D01*
X169324819Y-149323214D02*
X169324819Y-149513690D01*
X169324819Y-149513690D02*
X169277200Y-149608928D01*
X169277200Y-149608928D02*
X169229580Y-149656547D01*
X169229580Y-149656547D02*
X169134342Y-149704166D01*
X169134342Y-149704166D02*
X168943866Y-149704166D01*
X168943866Y-149704166D02*
X168848628Y-149656547D01*
X168848628Y-149656547D02*
X168801009Y-149608928D01*
X168801009Y-149608928D02*
X168753390Y-149513690D01*
X141652857Y-71404819D02*
X141986190Y-70928628D01*
X142224285Y-71404819D02*
X142224285Y-70404819D01*
X142224285Y-70404819D02*
X141843333Y-70404819D01*
X141843333Y-70404819D02*
X141748095Y-70452438D01*
X141748095Y-70452438D02*
X141700476Y-70500057D01*
X141700476Y-70500057D02*
X141652857Y-70595295D01*
X141652857Y-70595295D02*
X141652857Y-70738152D01*
X141652857Y-70738152D02*
X141700476Y-70833390D01*
X141700476Y-70833390D02*
X141748095Y-70881009D01*
X141748095Y-70881009D02*
X141843333Y-70928628D01*
X141843333Y-70928628D02*
X142224285Y-70928628D01*
X141319523Y-70404819D02*
X140700476Y-70404819D01*
X140700476Y-70404819D02*
X141033809Y-70785771D01*
X141033809Y-70785771D02*
X140890952Y-70785771D01*
X140890952Y-70785771D02*
X140795714Y-70833390D01*
X140795714Y-70833390D02*
X140748095Y-70881009D01*
X140748095Y-70881009D02*
X140700476Y-70976247D01*
X140700476Y-70976247D02*
X140700476Y-71214342D01*
X140700476Y-71214342D02*
X140748095Y-71309580D01*
X140748095Y-71309580D02*
X140795714Y-71357200D01*
X140795714Y-71357200D02*
X140890952Y-71404819D01*
X140890952Y-71404819D02*
X141176666Y-71404819D01*
X141176666Y-71404819D02*
X141271904Y-71357200D01*
X141271904Y-71357200D02*
X141319523Y-71309580D01*
X140367142Y-70404819D02*
X139700476Y-70404819D01*
X139700476Y-70404819D02*
X140129047Y-71404819D01*
X137287857Y-77064819D02*
X137621190Y-76588628D01*
X137859285Y-77064819D02*
X137859285Y-76064819D01*
X137859285Y-76064819D02*
X137478333Y-76064819D01*
X137478333Y-76064819D02*
X137383095Y-76112438D01*
X137383095Y-76112438D02*
X137335476Y-76160057D01*
X137335476Y-76160057D02*
X137287857Y-76255295D01*
X137287857Y-76255295D02*
X137287857Y-76398152D01*
X137287857Y-76398152D02*
X137335476Y-76493390D01*
X137335476Y-76493390D02*
X137383095Y-76541009D01*
X137383095Y-76541009D02*
X137478333Y-76588628D01*
X137478333Y-76588628D02*
X137859285Y-76588628D01*
X136335476Y-77064819D02*
X136906904Y-77064819D01*
X136621190Y-77064819D02*
X136621190Y-76064819D01*
X136621190Y-76064819D02*
X136716428Y-76207676D01*
X136716428Y-76207676D02*
X136811666Y-76302914D01*
X136811666Y-76302914D02*
X136906904Y-76350533D01*
X136002142Y-76064819D02*
X135335476Y-76064819D01*
X135335476Y-76064819D02*
X135764047Y-77064819D01*
X133374819Y-76897142D02*
X132898628Y-76563809D01*
X133374819Y-76325714D02*
X132374819Y-76325714D01*
X132374819Y-76325714D02*
X132374819Y-76706666D01*
X132374819Y-76706666D02*
X132422438Y-76801904D01*
X132422438Y-76801904D02*
X132470057Y-76849523D01*
X132470057Y-76849523D02*
X132565295Y-76897142D01*
X132565295Y-76897142D02*
X132708152Y-76897142D01*
X132708152Y-76897142D02*
X132803390Y-76849523D01*
X132803390Y-76849523D02*
X132851009Y-76801904D01*
X132851009Y-76801904D02*
X132898628Y-76706666D01*
X132898628Y-76706666D02*
X132898628Y-76325714D01*
X133374819Y-77849523D02*
X133374819Y-77278095D01*
X133374819Y-77563809D02*
X132374819Y-77563809D01*
X132374819Y-77563809D02*
X132517676Y-77468571D01*
X132517676Y-77468571D02*
X132612914Y-77373333D01*
X132612914Y-77373333D02*
X132660533Y-77278095D01*
X132470057Y-78230476D02*
X132422438Y-78278095D01*
X132422438Y-78278095D02*
X132374819Y-78373333D01*
X132374819Y-78373333D02*
X132374819Y-78611428D01*
X132374819Y-78611428D02*
X132422438Y-78706666D01*
X132422438Y-78706666D02*
X132470057Y-78754285D01*
X132470057Y-78754285D02*
X132565295Y-78801904D01*
X132565295Y-78801904D02*
X132660533Y-78801904D01*
X132660533Y-78801904D02*
X132803390Y-78754285D01*
X132803390Y-78754285D02*
X133374819Y-78182857D01*
X133374819Y-78182857D02*
X133374819Y-78801904D01*
X137804819Y-72187142D02*
X137328628Y-71853809D01*
X137804819Y-71615714D02*
X136804819Y-71615714D01*
X136804819Y-71615714D02*
X136804819Y-71996666D01*
X136804819Y-71996666D02*
X136852438Y-72091904D01*
X136852438Y-72091904D02*
X136900057Y-72139523D01*
X136900057Y-72139523D02*
X136995295Y-72187142D01*
X136995295Y-72187142D02*
X137138152Y-72187142D01*
X137138152Y-72187142D02*
X137233390Y-72139523D01*
X137233390Y-72139523D02*
X137281009Y-72091904D01*
X137281009Y-72091904D02*
X137328628Y-71996666D01*
X137328628Y-71996666D02*
X137328628Y-71615714D01*
X136900057Y-72568095D02*
X136852438Y-72615714D01*
X136852438Y-72615714D02*
X136804819Y-72710952D01*
X136804819Y-72710952D02*
X136804819Y-72949047D01*
X136804819Y-72949047D02*
X136852438Y-73044285D01*
X136852438Y-73044285D02*
X136900057Y-73091904D01*
X136900057Y-73091904D02*
X136995295Y-73139523D01*
X136995295Y-73139523D02*
X137090533Y-73139523D01*
X137090533Y-73139523D02*
X137233390Y-73091904D01*
X137233390Y-73091904D02*
X137804819Y-72520476D01*
X137804819Y-72520476D02*
X137804819Y-73139523D01*
X136804819Y-74044285D02*
X136804819Y-73568095D01*
X136804819Y-73568095D02*
X137281009Y-73520476D01*
X137281009Y-73520476D02*
X137233390Y-73568095D01*
X137233390Y-73568095D02*
X137185771Y-73663333D01*
X137185771Y-73663333D02*
X137185771Y-73901428D01*
X137185771Y-73901428D02*
X137233390Y-73996666D01*
X137233390Y-73996666D02*
X137281009Y-74044285D01*
X137281009Y-74044285D02*
X137376247Y-74091904D01*
X137376247Y-74091904D02*
X137614342Y-74091904D01*
X137614342Y-74091904D02*
X137709580Y-74044285D01*
X137709580Y-74044285D02*
X137757200Y-73996666D01*
X137757200Y-73996666D02*
X137804819Y-73901428D01*
X137804819Y-73901428D02*
X137804819Y-73663333D01*
X137804819Y-73663333D02*
X137757200Y-73568095D01*
X137757200Y-73568095D02*
X137709580Y-73520476D01*
X133294819Y-73023333D02*
X132818628Y-72690000D01*
X133294819Y-72451905D02*
X132294819Y-72451905D01*
X132294819Y-72451905D02*
X132294819Y-72832857D01*
X132294819Y-72832857D02*
X132342438Y-72928095D01*
X132342438Y-72928095D02*
X132390057Y-72975714D01*
X132390057Y-72975714D02*
X132485295Y-73023333D01*
X132485295Y-73023333D02*
X132628152Y-73023333D01*
X132628152Y-73023333D02*
X132723390Y-72975714D01*
X132723390Y-72975714D02*
X132771009Y-72928095D01*
X132771009Y-72928095D02*
X132818628Y-72832857D01*
X132818628Y-72832857D02*
X132818628Y-72451905D01*
X132723390Y-73594762D02*
X132675771Y-73499524D01*
X132675771Y-73499524D02*
X132628152Y-73451905D01*
X132628152Y-73451905D02*
X132532914Y-73404286D01*
X132532914Y-73404286D02*
X132485295Y-73404286D01*
X132485295Y-73404286D02*
X132390057Y-73451905D01*
X132390057Y-73451905D02*
X132342438Y-73499524D01*
X132342438Y-73499524D02*
X132294819Y-73594762D01*
X132294819Y-73594762D02*
X132294819Y-73785238D01*
X132294819Y-73785238D02*
X132342438Y-73880476D01*
X132342438Y-73880476D02*
X132390057Y-73928095D01*
X132390057Y-73928095D02*
X132485295Y-73975714D01*
X132485295Y-73975714D02*
X132532914Y-73975714D01*
X132532914Y-73975714D02*
X132628152Y-73928095D01*
X132628152Y-73928095D02*
X132675771Y-73880476D01*
X132675771Y-73880476D02*
X132723390Y-73785238D01*
X132723390Y-73785238D02*
X132723390Y-73594762D01*
X132723390Y-73594762D02*
X132771009Y-73499524D01*
X132771009Y-73499524D02*
X132818628Y-73451905D01*
X132818628Y-73451905D02*
X132913866Y-73404286D01*
X132913866Y-73404286D02*
X133104342Y-73404286D01*
X133104342Y-73404286D02*
X133199580Y-73451905D01*
X133199580Y-73451905D02*
X133247200Y-73499524D01*
X133247200Y-73499524D02*
X133294819Y-73594762D01*
X133294819Y-73594762D02*
X133294819Y-73785238D01*
X133294819Y-73785238D02*
X133247200Y-73880476D01*
X133247200Y-73880476D02*
X133199580Y-73928095D01*
X133199580Y-73928095D02*
X133104342Y-73975714D01*
X133104342Y-73975714D02*
X132913866Y-73975714D01*
X132913866Y-73975714D02*
X132818628Y-73928095D01*
X132818628Y-73928095D02*
X132771009Y-73880476D01*
X132771009Y-73880476D02*
X132723390Y-73785238D01*
X142224819Y-72327142D02*
X141748628Y-71993809D01*
X142224819Y-71755714D02*
X141224819Y-71755714D01*
X141224819Y-71755714D02*
X141224819Y-72136666D01*
X141224819Y-72136666D02*
X141272438Y-72231904D01*
X141272438Y-72231904D02*
X141320057Y-72279523D01*
X141320057Y-72279523D02*
X141415295Y-72327142D01*
X141415295Y-72327142D02*
X141558152Y-72327142D01*
X141558152Y-72327142D02*
X141653390Y-72279523D01*
X141653390Y-72279523D02*
X141701009Y-72231904D01*
X141701009Y-72231904D02*
X141748628Y-72136666D01*
X141748628Y-72136666D02*
X141748628Y-71755714D01*
X141558152Y-73184285D02*
X142224819Y-73184285D01*
X141177200Y-72946190D02*
X141891485Y-72708095D01*
X141891485Y-72708095D02*
X141891485Y-73327142D01*
X141224819Y-73612857D02*
X141224819Y-74279523D01*
X141224819Y-74279523D02*
X142224819Y-73850952D01*
X178484819Y-52819166D02*
X179199104Y-52819166D01*
X179199104Y-52819166D02*
X179341961Y-52771547D01*
X179341961Y-52771547D02*
X179437200Y-52676309D01*
X179437200Y-52676309D02*
X179484819Y-52533452D01*
X179484819Y-52533452D02*
X179484819Y-52438214D01*
X178484819Y-53771547D02*
X178484819Y-53295357D01*
X178484819Y-53295357D02*
X178961009Y-53247738D01*
X178961009Y-53247738D02*
X178913390Y-53295357D01*
X178913390Y-53295357D02*
X178865771Y-53390595D01*
X178865771Y-53390595D02*
X178865771Y-53628690D01*
X178865771Y-53628690D02*
X178913390Y-53723928D01*
X178913390Y-53723928D02*
X178961009Y-53771547D01*
X178961009Y-53771547D02*
X179056247Y-53819166D01*
X179056247Y-53819166D02*
X179294342Y-53819166D01*
X179294342Y-53819166D02*
X179389580Y-53771547D01*
X179389580Y-53771547D02*
X179437200Y-53723928D01*
X179437200Y-53723928D02*
X179484819Y-53628690D01*
X179484819Y-53628690D02*
X179484819Y-53390595D01*
X179484819Y-53390595D02*
X179437200Y-53295357D01*
X179437200Y-53295357D02*
X179389580Y-53247738D01*
X140914819Y-76837142D02*
X140438628Y-76503809D01*
X140914819Y-76265714D02*
X139914819Y-76265714D01*
X139914819Y-76265714D02*
X139914819Y-76646666D01*
X139914819Y-76646666D02*
X139962438Y-76741904D01*
X139962438Y-76741904D02*
X140010057Y-76789523D01*
X140010057Y-76789523D02*
X140105295Y-76837142D01*
X140105295Y-76837142D02*
X140248152Y-76837142D01*
X140248152Y-76837142D02*
X140343390Y-76789523D01*
X140343390Y-76789523D02*
X140391009Y-76741904D01*
X140391009Y-76741904D02*
X140438628Y-76646666D01*
X140438628Y-76646666D02*
X140438628Y-76265714D01*
X140010057Y-77218095D02*
X139962438Y-77265714D01*
X139962438Y-77265714D02*
X139914819Y-77360952D01*
X139914819Y-77360952D02*
X139914819Y-77599047D01*
X139914819Y-77599047D02*
X139962438Y-77694285D01*
X139962438Y-77694285D02*
X140010057Y-77741904D01*
X140010057Y-77741904D02*
X140105295Y-77789523D01*
X140105295Y-77789523D02*
X140200533Y-77789523D01*
X140200533Y-77789523D02*
X140343390Y-77741904D01*
X140343390Y-77741904D02*
X140914819Y-77170476D01*
X140914819Y-77170476D02*
X140914819Y-77789523D01*
X140343390Y-78360952D02*
X140295771Y-78265714D01*
X140295771Y-78265714D02*
X140248152Y-78218095D01*
X140248152Y-78218095D02*
X140152914Y-78170476D01*
X140152914Y-78170476D02*
X140105295Y-78170476D01*
X140105295Y-78170476D02*
X140010057Y-78218095D01*
X140010057Y-78218095D02*
X139962438Y-78265714D01*
X139962438Y-78265714D02*
X139914819Y-78360952D01*
X139914819Y-78360952D02*
X139914819Y-78551428D01*
X139914819Y-78551428D02*
X139962438Y-78646666D01*
X139962438Y-78646666D02*
X140010057Y-78694285D01*
X140010057Y-78694285D02*
X140105295Y-78741904D01*
X140105295Y-78741904D02*
X140152914Y-78741904D01*
X140152914Y-78741904D02*
X140248152Y-78694285D01*
X140248152Y-78694285D02*
X140295771Y-78646666D01*
X140295771Y-78646666D02*
X140343390Y-78551428D01*
X140343390Y-78551428D02*
X140343390Y-78360952D01*
X140343390Y-78360952D02*
X140391009Y-78265714D01*
X140391009Y-78265714D02*
X140438628Y-78218095D01*
X140438628Y-78218095D02*
X140533866Y-78170476D01*
X140533866Y-78170476D02*
X140724342Y-78170476D01*
X140724342Y-78170476D02*
X140819580Y-78218095D01*
X140819580Y-78218095D02*
X140867200Y-78265714D01*
X140867200Y-78265714D02*
X140914819Y-78360952D01*
X140914819Y-78360952D02*
X140914819Y-78551428D01*
X140914819Y-78551428D02*
X140867200Y-78646666D01*
X140867200Y-78646666D02*
X140819580Y-78694285D01*
X140819580Y-78694285D02*
X140724342Y-78741904D01*
X140724342Y-78741904D02*
X140533866Y-78741904D01*
X140533866Y-78741904D02*
X140438628Y-78694285D01*
X140438628Y-78694285D02*
X140391009Y-78646666D01*
X140391009Y-78646666D02*
X140343390Y-78551428D01*
X145484819Y-76777142D02*
X145008628Y-76443809D01*
X145484819Y-76205714D02*
X144484819Y-76205714D01*
X144484819Y-76205714D02*
X144484819Y-76586666D01*
X144484819Y-76586666D02*
X144532438Y-76681904D01*
X144532438Y-76681904D02*
X144580057Y-76729523D01*
X144580057Y-76729523D02*
X144675295Y-76777142D01*
X144675295Y-76777142D02*
X144818152Y-76777142D01*
X144818152Y-76777142D02*
X144913390Y-76729523D01*
X144913390Y-76729523D02*
X144961009Y-76681904D01*
X144961009Y-76681904D02*
X145008628Y-76586666D01*
X145008628Y-76586666D02*
X145008628Y-76205714D01*
X144818152Y-77634285D02*
X145484819Y-77634285D01*
X144437200Y-77396190D02*
X145151485Y-77158095D01*
X145151485Y-77158095D02*
X145151485Y-77777142D01*
X144913390Y-78300952D02*
X144865771Y-78205714D01*
X144865771Y-78205714D02*
X144818152Y-78158095D01*
X144818152Y-78158095D02*
X144722914Y-78110476D01*
X144722914Y-78110476D02*
X144675295Y-78110476D01*
X144675295Y-78110476D02*
X144580057Y-78158095D01*
X144580057Y-78158095D02*
X144532438Y-78205714D01*
X144532438Y-78205714D02*
X144484819Y-78300952D01*
X144484819Y-78300952D02*
X144484819Y-78491428D01*
X144484819Y-78491428D02*
X144532438Y-78586666D01*
X144532438Y-78586666D02*
X144580057Y-78634285D01*
X144580057Y-78634285D02*
X144675295Y-78681904D01*
X144675295Y-78681904D02*
X144722914Y-78681904D01*
X144722914Y-78681904D02*
X144818152Y-78634285D01*
X144818152Y-78634285D02*
X144865771Y-78586666D01*
X144865771Y-78586666D02*
X144913390Y-78491428D01*
X144913390Y-78491428D02*
X144913390Y-78300952D01*
X144913390Y-78300952D02*
X144961009Y-78205714D01*
X144961009Y-78205714D02*
X145008628Y-78158095D01*
X145008628Y-78158095D02*
X145103866Y-78110476D01*
X145103866Y-78110476D02*
X145294342Y-78110476D01*
X145294342Y-78110476D02*
X145389580Y-78158095D01*
X145389580Y-78158095D02*
X145437200Y-78205714D01*
X145437200Y-78205714D02*
X145484819Y-78300952D01*
X145484819Y-78300952D02*
X145484819Y-78491428D01*
X145484819Y-78491428D02*
X145437200Y-78586666D01*
X145437200Y-78586666D02*
X145389580Y-78634285D01*
X145389580Y-78634285D02*
X145294342Y-78681904D01*
X145294342Y-78681904D02*
X145103866Y-78681904D01*
X145103866Y-78681904D02*
X145008628Y-78634285D01*
X145008628Y-78634285D02*
X144961009Y-78586666D01*
X144961009Y-78586666D02*
X144913390Y-78491428D01*
X98084819Y-148704166D02*
X98799104Y-148704166D01*
X98799104Y-148704166D02*
X98941961Y-148656547D01*
X98941961Y-148656547D02*
X99037200Y-148561309D01*
X99037200Y-148561309D02*
X99084819Y-148418452D01*
X99084819Y-148418452D02*
X99084819Y-148323214D01*
X98084819Y-149085119D02*
X98084819Y-149704166D01*
X98084819Y-149704166D02*
X98465771Y-149370833D01*
X98465771Y-149370833D02*
X98465771Y-149513690D01*
X98465771Y-149513690D02*
X98513390Y-149608928D01*
X98513390Y-149608928D02*
X98561009Y-149656547D01*
X98561009Y-149656547D02*
X98656247Y-149704166D01*
X98656247Y-149704166D02*
X98894342Y-149704166D01*
X98894342Y-149704166D02*
X98989580Y-149656547D01*
X98989580Y-149656547D02*
X99037200Y-149608928D01*
X99037200Y-149608928D02*
X99084819Y-149513690D01*
X99084819Y-149513690D02*
X99084819Y-149227976D01*
X99084819Y-149227976D02*
X99037200Y-149132738D01*
X99037200Y-149132738D02*
X98989580Y-149085119D01*
%TO.C,J4*%
D11*
X101760000Y-51680000D02*
X102870000Y-51680000D01*
X101760000Y-54930000D02*
X102870000Y-54930000D01*
X103460000Y-55980000D02*
X103710000Y-55480000D01*
X103710000Y-55480000D02*
X103960000Y-55980000D01*
X103960000Y-55980000D02*
X103460000Y-55980000D01*
X104550000Y-51680000D02*
X105660000Y-51680000D01*
X104550000Y-54930000D02*
X105660000Y-54930000D01*
%TO.C,J8*%
X173110000Y-147327500D02*
X172000000Y-147327500D01*
X173110000Y-150577500D02*
X172000000Y-150577500D01*
X173700000Y-146277500D02*
X174200000Y-146277500D01*
X173950000Y-146777500D02*
X173700000Y-146277500D01*
X174200000Y-146277500D02*
X173950000Y-146777500D01*
X175900000Y-147327500D02*
X174790000Y-147327500D01*
X175900000Y-150577500D02*
X174790000Y-150577500D01*
%TO.C,R37*%
X140807742Y-75702500D02*
X141282258Y-75702500D01*
X140807742Y-74657500D02*
X141282258Y-74657500D01*
%TO.C,R17*%
X136407742Y-75702500D02*
X136882258Y-75702500D01*
X136407742Y-74657500D02*
X136882258Y-74657500D01*
%TO.C,R12*%
X134967500Y-76642258D02*
X134967500Y-76167742D01*
X133922500Y-76642258D02*
X133922500Y-76167742D01*
%TO.C,R25*%
X138322500Y-73717742D02*
X138322500Y-74192258D01*
X139367500Y-73717742D02*
X139367500Y-74192258D01*
%TO.C,R8*%
X134967500Y-73717742D02*
X134967500Y-74192258D01*
X133922500Y-73717742D02*
X133922500Y-74192258D01*
%TO.C,R47*%
X143747500Y-73717742D02*
X143747500Y-74192258D01*
X142702500Y-73717742D02*
X142702500Y-74192258D01*
%TO.C,J5*%
X172000000Y-51612500D02*
X173110000Y-51612500D01*
X172000000Y-54862500D02*
X173110000Y-54862500D01*
X173700000Y-55912500D02*
X173950000Y-55412500D01*
X173950000Y-55412500D02*
X174200000Y-55912500D01*
X174200000Y-55912500D02*
X173700000Y-55912500D01*
X174790000Y-51612500D02*
X175900000Y-51612500D01*
X174790000Y-54862500D02*
X175900000Y-54862500D01*
%TO.C,R28*%
X139367500Y-76642258D02*
X139367500Y-76167742D01*
X138322500Y-76642258D02*
X138322500Y-76167742D01*
%TO.C,R48*%
X143747500Y-76642258D02*
X143747500Y-76167742D01*
X142702500Y-76642258D02*
X142702500Y-76167742D01*
%TO.C,J3*%
X102870000Y-147327500D02*
X101760000Y-147327500D01*
X102870000Y-150577500D02*
X101760000Y-150577500D01*
X103460000Y-146277500D02*
X103960000Y-146277500D01*
X103710000Y-146777500D02*
X103460000Y-146277500D01*
X103960000Y-146277500D02*
X103710000Y-146777500D01*
X105660000Y-147327500D02*
X104550000Y-147327500D01*
X105660000Y-150577500D02*
X104550000Y-150577500D01*
%TD*%
M02*
